SplineFontDB: 3.0
FontName: PedanticMalayalamBold
FullName: Pedantic Malayalam Bold
FamilyName: Pedantic Indic Bold
Weight: Bold
Copyright: Based on Rachana Bold, Copyright (c) Akshara Vedi (Chitrajakumar R, Hussain KH, Rajeev Sebastian, Gangadharan N, Vijayakumaran Nair, Subash Kuraiakose ), 2005. \nCopyright 2013 Rajeesh K Nambiar, Santhosh Thottingal, Swathanthra Malayalam Computing (http://smc.org.in, http://savannah.nongnu.org/projects/smc/)
Version: 1.0
ItalicAngle: 0
UnderlinePosition: -554
UnderlineWidth: 34
Ascent: 1638
Descent: 410
InvalidEm: 0
sfntRevision: 0x00010000
LayerCount: 2
Layer: 0 1 "Back" 1
Layer: 1 1 "Fore" 0
XUID: [1021 231 -1607738659 964653]
StyleMap: 0x0020
FSType: 0
OS2Version: 4
OS2_WeightWidthSlopeOnly: 0
OS2_UseTypoMetrics: 1
CreationTime: 1201144321
ModificationTime: 1515256351
PfmFamily: 17
TTFWeight: 700
TTFWidth: 5
LineGap: 0
VLineGap: 0
Panose: 2 0 8 3 0 0 0 0 0 0
OS2TypoAscent: 1434
OS2TypoAOffset: 0
OS2TypoDescent: -1304
OS2TypoDOffset: 0
OS2TypoLinegap: 0
OS2WinAscent: 1410
OS2WinAOffset: 0
OS2WinDescent: 822
OS2WinDOffset: 0
HheadAscent: 1410
HheadAOffset: 0
HheadDescent: -822
HheadDOffset: 0
OS2SubXSize: 1330
OS2SubYSize: 1228
OS2SubXOff: 0
OS2SubYOff: 152
OS2SupXSize: 1330
OS2SupYSize: 1430
OS2SupXOff: 0
OS2SupYOff: 980
OS2StrikeYSize: 102
OS2StrikeYPos: 512
OS2CapHeight: 1211
OS2XHeight: 898
OS2FamilyClass: 768
OS2Vendor: 'PfEd'
OS2CodePages: 00000001.00000000
OS2UnicodeRanges: 80800001.00002000.00000000.00000000
Lookup: 4 0 0 "Required Feature lookup 16" { "vowels"  "consonants"  } [' RQD' ('DFLT' <'dflt' > 'mlm2' <'dflt' > 'mlym' <'dflt' > ) ]
Lookup: 4 0 0 "'pref' Pre Base Forms in Malay+AQEA-lam2 lookup 0" { "'pref' Pre Base Forms in Malay+AQEA-lam2 lookup 0 subtable"  } ['pref' ('mlm2' <'dflt' > ) ]
Lookup: 4 0 0 "'akhn' Akhand lookup 1" { "'akhn' Akhand lookup 1 subtable"  } ['akhn' ('mlm2' <'dflt' > 'mlym' <'dflt' > ) ]

StartChar: .notdef
Encoding: 154 -1 0
Width: 602
GlyphClass: 2
Flags: W
LayerCount: 2
Fore
SplineSet
46 0 m 1,0,-1
 46 932 l 1,1,-1
 512 932 l 1,2,-1
 512 0 l 1,3,-1
 46 0 l 1,0,-1
92 46 m 1,4,-1
 466 46 l 1,5,-1
 466 884 l 1,6,-1
 92 884 l 1,7,-1
 92 46 l 1,4,-1
EndSplineSet
Validated: 1
EndChar

StartChar: exclam
Encoding: 4 33 5
Width: 429
GlyphClass: 2
Flags: W
LayerCount: 2
Fore
SplineSet
392.5 210.5 m 128,-1,1
 435 169 435 169 435 111.5 c 128,-1,2
 435 54 435 54 394.5 10.5 c 128,-1,3
 354 -33 354 -33 293.5 -33 c 128,-1,4
 233 -33 233 -33 191 9.5 c 128,-1,5
 149 52 149 52 149 113 c 128,-1,6
 149 174 149 174 191.5 213 c 128,-1,7
 234 252 234 252 292 252 c 128,-1,0
 350 252 350 252 392.5 210.5 c 128,-1,1
426 1070 m 2,8,-1
 353 368 l 1,9,-1
 226 368 l 1,10,-1
 157 1057 l 2,11,12
 152 1128 152 1128 194 1178.5 c 128,-1,13
 236 1229 236 1229 294 1229 c 128,-1,14
 352 1229 352 1229 390.5 1179 c 128,-1,15
 429 1129 429 1129 426 1070 c 2,8,-1
EndSplineSet
Validated: 33
EndChar

StartChar: quotedbl
Encoding: 5 34 6
Width: 446
GlyphClass: 2
Flags: W
LayerCount: 2
Fore
SplineSet
590.5 1223.5 m 128,-1,1
 620 1201 620 1201 620 1162 c 0,2,3
 620 1081 620 1081 592.5 956.5 c 128,-1,4
 565 832 565 832 558 794 c 1,5,-1
 485 794 l 1,6,7
 478 829 478 829 467.5 877.5 c 128,-1,8
 457 926 457 926 446 978 c 0,9,10
 422 1098 422 1098 422 1138 c 128,-1,11
 422 1178 422 1178 430.5 1194.5 c 128,-1,12
 439 1211 439 1211 453 1222 c 0,13,14
 482 1246 482 1246 521.5 1246 c 128,-1,0
 561 1246 561 1246 590.5 1223.5 c 128,-1,1
175 794 m 1,15,16
 112 1070 112 1070 112 1157 c 0,17,18
 112 1200 112 1200 142 1223 c 128,-1,19
 172 1246 172 1246 201.5 1246 c 128,-1,20
 231 1246 231 1246 249 1240 c 128,-1,21
 267 1234 267 1234 280 1223 c 0,22,23
 310 1199 310 1199 310 1161 c 0,24,25
 310 1093 310 1093 282.5 962.5 c 128,-1,26
 255 832 255 832 248 794 c 1,27,-1
 175 794 l 1,15,16
EndSplineSet
Validated: 1
EndChar

StartChar: numbersign
Encoding: 6 35 7
Width: 1085
GlyphClass: 2
Flags: W
LayerCount: 2
Fore
SplineSet
663 465 m 1,0,-1
 728 770 l 1,1,-1
 554 770 l 1,2,-1
 489 465 l 1,3,-1
 663 465 l 1,0,-1
1085 913 m 1,4,-1
 1085 770 l 1,5,-1
 909 770 l 1,6,-1
 843 465 l 1,7,-1
 1001 465 l 1,8,-1
 1001 322 l 1,9,-1
 812 322 l 1,10,-1
 745 0 l 1,11,-1
 564 0 l 1,12,-1
 634 322 l 1,13,-1
 458 322 l 1,14,-1
 390 0 l 1,15,-1
 210 0 l 1,16,-1
 278 322 l 1,17,-1
 134 322 l 1,18,-1
 134 465 l 1,19,-1
 308 465 l 1,20,-1
 374 770 l 1,21,-1
 218 770 l 1,22,-1
 218 913 l 1,23,-1
 403 913 l 1,24,-1
 468 1206 l 1,25,-1
 648 1206 l 1,26,-1
 583 913 l 1,27,-1
 757 913 l 1,28,-1
 823 1206 l 1,29,-1
 1003 1206 l 1,30,-1
 937 913 l 1,31,-1
 1085 913 l 1,4,-1
EndSplineSet
Validated: 1
EndChar

StartChar: dollar
Encoding: 7 36 8
Width: 928
GlyphClass: 2
Flags: W
LayerCount: 2
Fore
SplineSet
692 195 m 128,-1,1
 722 238 722 238 722 293 c 128,-1,2
 722 348 722 348 695.5 381 c 128,-1,3
 669 414 669 414 613 435 c 1,4,-1
 613 129 l 1,5,0
 662 152 662 152 692 195 c 128,-1,1
458 746 m 1,6,-1
 458 997 l 1,7,8
 412 978 412 978 384 941 c 128,-1,9
 356 904 356 904 356 868 c 128,-1,10
 356 832 356 832 363 814 c 128,-1,11
 370 796 370 796 387 783 c 0,12,13
 410 766 410 766 458 746 c 1,6,-1
613 1008 m 1,14,-1
 611 696 l 1,15,16
 848 625 848 625 905 482 c 0,17,18
 928 423 928 423 928 346 c 0,19,20
 928 202 928 202 841.5 101 c 128,-1,21
 755 0 755 0 613 -21 c 1,22,-1
 613 -81 l 1,23,-1
 458 -81 l 1,24,-1
 458 -21 l 1,25,26
 265 0 265 0 126 177 c 1,27,-1
 229 337 l 1,28,29
 332 140 332 140 458 114 c 1,30,-1
 463 473 l 1,31,32
 149 545 149 545 149 807 c 0,33,34
 149 945 149 945 234 1034 c 128,-1,35
 319 1123 319 1123 458 1146 c 1,36,-1
 458 1206 l 1,37,-1
 613 1206 l 1,38,-1
 613 1150 l 1,39,40
 776 1130 776 1130 918 976 c 1,41,-1
 815 849 l 1,42,43
 719 985 719 985 613 1008 c 1,14,-1
EndSplineSet
Validated: 1
EndChar

StartChar: percent
Encoding: 8 37 9
Width: 1076
GlyphClass: 2
Flags: W
LayerCount: 2
Fore
SplineSet
753 254 m 0,0,1
 753 92 753 92 848 92 c 0,2,3
 896 92 896 92 916.5 136 c 128,-1,4
 937 180 937 180 937 234 c 0,5,6
 937 396 937 396 842 396 c 0,7,8
 794 396 794 396 773.5 352.5 c 128,-1,9
 753 309 753 309 753 254 c 0,0,1
1019 423.5 m 128,-1,11
 1084 354 1084 354 1084 244.5 c 128,-1,12
 1084 135 1084 135 1019 65.5 c 128,-1,13
 954 -4 954 -4 845 -4 c 128,-1,14
 736 -4 736 -4 671 65 c 128,-1,15
 606 134 606 134 606 244 c 128,-1,16
 606 354 606 354 671 423.5 c 128,-1,17
 736 493 736 493 845 493 c 128,-1,10
 954 493 954 493 1019 423.5 c 128,-1,11
898 1107 m 1,18,-1
 1019 1107 l 1,19,-1
 319 -2 l 1,20,-1
 198 -2 l 1,21,-1
 898 1107 l 1,18,-1
303 884 m 0,22,23
 303 722 303 722 398 722 c 0,24,25
 446 722 446 722 466.5 766 c 128,-1,26
 487 810 487 810 487 864 c 0,27,28
 487 1026 487 1026 392 1026 c 0,29,30
 344 1026 344 1026 323.5 982.5 c 128,-1,31
 303 939 303 939 303 884 c 0,22,23
569 1053.5 m 128,-1,33
 634 984 634 984 634 874.5 c 128,-1,34
 634 765 634 765 569 695 c 128,-1,35
 504 625 504 625 395 625 c 128,-1,36
 286 625 286 625 221 694.5 c 128,-1,37
 156 764 156 764 156 874 c 128,-1,38
 156 984 156 984 221 1053.5 c 128,-1,39
 286 1123 286 1123 395 1123 c 128,-1,32
 504 1123 504 1123 569 1053.5 c 128,-1,33
EndSplineSet
Validated: 1
EndChar

StartChar: ampersand
Encoding: 9 38 10
Width: 1320
GlyphClass: 2
Flags: W
LayerCount: 2
Fore
SplineSet
724 226 m 1,0,1
 564 411 564 411 474 576 c 1,2,3
 370 483 370 483 370 345 c 0,4,5
 370 261 370 261 417.5 195.5 c 128,-1,6
 465 130 465 130 545 130 c 0,7,8
 590 130 590 130 640.5 159 c 128,-1,9
 691 188 691 188 724 226 c 1,0,1
649 1102 m 0,10,11
 571 1102 571 1102 571 981 c 0,12,13
 571 896 571 896 614 796 c 1,14,15
 676 838 676 838 711 881.5 c 128,-1,16
 746 925 746 925 746 978.5 c 128,-1,17
 746 1032 746 1032 720 1067 c 128,-1,18
 694 1102 694 1102 649 1102 c 0,10,11
1272 196 m 1,19,-1
 1337 77 l 1,20,21
 1236 -15 1236 -15 1079.5 -15 c 128,-1,22
 923 -15 923 -15 809 126 c 1,23,24
 640 -15 640 -15 460 -15 c 0,25,26
 329 -15 329 -15 244 76 c 128,-1,27
 159 167 159 167 159 299 c 0,28,29
 159 430 159 430 240 528 c 0,30,31
 309 614 309 614 421 693 c 1,32,33
 364 821 364 821 364 941 c 128,-1,34
 364 1061 364 1061 443 1146 c 128,-1,35
 522 1231 522 1231 642.5 1231 c 128,-1,36
 763 1231 763 1231 830.5 1165.5 c 128,-1,37
 898 1100 898 1100 898 991 c 0,38,39
 898 883 898 883 826 805 c 0,40,41
 764 739 764 739 667 681 c 1,42,43
 699 617 699 617 779.5 511.5 c 128,-1,44
 860 406 860 406 874 386 c 1,45,46
 948 482 948 482 1022 661 c 1,47,-1
 1142 564 l 1,48,49
 1095 443 1095 443 959 283 c 1,50,51
 1039 171 1039 171 1080 149 c 0,52,53
 1123 126 1123 126 1174 126 c 128,-1,54
 1225 126 1225 126 1272 196 c 1,19,-1
EndSplineSet
Validated: 1
EndChar

StartChar: quotesingle
Encoding: 10 39 11
Width: 449
GlyphClass: 2
Flags: W
LayerCount: 2
Fore
SplineSet
121 794 m 1,0,1
 58 1070 58 1070 58 1157 c 0,2,3
 58 1197 58 1197 80 1215 c 0,4,5
 116 1246 116 1246 157 1246 c 0,6,7
 222 1246 222 1246 247 1196 c 0,8,9
 255 1180 255 1180 255 1146 c 0,10,11
 255 1056 255 1056 228.5 947.5 c 128,-1,12
 202 839 202 839 192 794 c 1,13,-1
 121 794 l 1,0,1
EndSplineSet
Validated: 1
EndChar

StartChar: parenleft
Encoding: 11 40 12
Width: 615
GlyphClass: 2
Flags: W
LayerCount: 2
Fore
SplineSet
698 -289 m 1,0,-1
 621 -381 l 1,1,2
 407 -254 407 -254 287.5 -38.5 c 128,-1,3
 168 177 168 177 168 427.5 c 128,-1,4
 168 678 168 678 287.5 893.5 c 128,-1,5
 407 1109 407 1109 621 1236 c 1,6,-1
 698 1144 l 1,7,8
 557 1003 557 1003 481.5 816 c 128,-1,9
 406 629 406 629 406 428 c 128,-1,10
 406 227 406 227 482 39.5 c 128,-1,11
 558 -148 558 -148 698 -289 c 1,0,-1
EndSplineSet
Validated: 1
EndChar

StartChar: parenright
Encoding: 12 41 13
Width: 615
GlyphClass: 2
Flags: W
LayerCount: 2
Fore
SplineSet
498.5 893.5 m 128,-1,1
 618 678 618 678 618 427.5 c 128,-1,2
 618 177 618 177 498.5 -38.5 c 128,-1,3
 379 -254 379 -254 165 -381 c 1,4,-1
 88 -289 l 1,5,6
 228 -148 228 -148 304 39.5 c 128,-1,7
 380 227 380 227 380 428 c 128,-1,8
 380 629 380 629 304.5 816 c 128,-1,9
 229 1003 229 1003 88 1144 c 1,10,-1
 165 1236 l 1,11,0
 379 1109 379 1109 498.5 893.5 c 128,-1,1
EndSplineSet
Validated: 1
EndChar

StartChar: asterisk
Encoding: 13 42 14
Width: 764
GlyphClass: 2
Flags: W
LayerCount: 2
Fore
SplineSet
768 982 m 0,0,1
 768 924 768 924 704 906 c 2,2,-1
 547 861 l 2,3,4
 549 860 549 860 596 848 c 0,5,6
 705 818 705 818 738 799.5 c 128,-1,7
 771 781 771 781 771 741.5 c 128,-1,8
 771 702 771 702 745 670.5 c 128,-1,9
 719 639 719 639 691.5 639 c 128,-1,10
 664 639 664 639 636.5 656 c 128,-1,11
 609 673 609 673 589 692 c 0,12,13
 529 747 529 747 501 775 c 1,14,15
 504 762 504 762 516 722 c 0,16,17
 542 639 542 639 542 599 c 128,-1,18
 542 559 542 559 516.5 535 c 128,-1,19
 491 511 491 511 453 511 c 128,-1,20
 415 511 415 511 388.5 533.5 c 128,-1,21
 362 556 362 556 362 585.5 c 128,-1,22
 362 615 362 615 369.5 648 c 128,-1,23
 377 681 377 681 389 721.5 c 128,-1,24
 401 762 401 762 405 777 c 1,25,26
 397 769 397 769 370 739.5 c 128,-1,27
 343 710 343 710 324 692 c 0,28,29
 271 642 271 642 230 642 c 128,-1,30
 189 642 189 642 164 668.5 c 128,-1,31
 139 695 139 695 139 728 c 0,32,33
 139 794 139 794 205 814 c 2,34,-1
 354 861 l 1,35,36
 344 864 344 864 309.5 871 c 128,-1,37
 275 878 275 878 249.5 885.5 c 128,-1,38
 224 893 224 893 194 904 c 0,39,40
 131 929 131 929 131 970.5 c 128,-1,41
 131 1012 131 1012 158 1043 c 128,-1,42
 185 1074 185 1074 215 1074 c 0,43,44
 263 1074 263 1074 357 986 c 2,45,-1
 403 943 l 1,46,47
 400 957 400 957 388 998 c 0,48,49
 362 1088 362 1088 362 1127 c 128,-1,50
 362 1166 362 1166 387 1187.5 c 128,-1,51
 412 1209 412 1209 451.5 1209 c 128,-1,52
 491 1209 491 1209 516.5 1188.5 c 128,-1,53
 542 1168 542 1168 542 1143.5 c 128,-1,54
 542 1119 542 1119 534 1083 c 128,-1,55
 526 1047 526 1047 514 998.5 c 128,-1,56
 502 950 502 950 501 945 c 1,57,58
 508 951 508 951 536 977.5 c 128,-1,59
 564 1004 564 1004 584 1022 c 0,60,61
 642 1074 642 1074 679.5 1074 c 128,-1,62
 717 1074 717 1074 742.5 1045.5 c 128,-1,63
 768 1017 768 1017 768 982 c 0,0,1
EndSplineSet
Validated: 1
EndChar

StartChar: plus
Encoding: 14 43 15
Width: 1081
GlyphClass: 2
Flags: W
LayerCount: 2
Fore
SplineSet
1080 543 m 1,0,-1
 1080 356 l 1,1,-1
 750 356 l 1,2,-1
 750 26 l 1,3,-1
 502 26 l 1,4,-1
 502 356 l 1,5,-1
 164 356 l 1,6,-1
 164 543 l 1,7,-1
 502 543 l 1,8,-1
 502 864 l 1,9,-1
 750 864 l 1,10,-1
 750 543 l 1,11,-1
 1080 543 l 1,0,-1
EndSplineSet
Validated: 1
EndChar

StartChar: comma
Encoding: 15 44 16
Width: 467
GlyphClass: 2
Flags: W
LayerCount: 2
Fore
SplineSet
424 206 m 128,-1,1
 464 153 464 153 464 60 c 128,-1,2
 464 -33 464 -33 407 -141 c 128,-1,3
 350 -249 350 -249 263 -307 c 1,4,-1
 169 -219 l 1,5,6
 210 -184 210 -184 249 -137 c 128,-1,7
 288 -90 288 -90 288 -55 c 1,8,9
 224 -54 224 -54 185 -7 c 128,-1,10
 146 40 146 40 146 105.5 c 128,-1,11
 146 171 146 171 192 215 c 128,-1,12
 238 259 238 259 311 259 c 128,-1,0
 384 259 384 259 424 206 c 128,-1,1
EndSplineSet
Validated: 1
EndChar

StartChar: hyphen
Encoding: 16 45 17
Width: 849
GlyphClass: 2
Flags: W
LayerCount: 2
Fore
SplineSet
845 445 m 1,0,-1
 845 264 l 1,1,-1
 154 264 l 1,2,-1
 154 445 l 1,3,-1
 845 445 l 1,0,-1
EndSplineSet
Validated: 1
EndChar

StartChar: period
Encoding: 17 46 18
Width: 475
GlyphClass: 2
Flags: W
LayerCount: 2
Fore
SplineSet
417 242.5 m 128,-1,1
 464 196 464 196 464 132.5 c 128,-1,2
 464 69 464 69 419 21 c 128,-1,3
 374 -27 374 -27 306.5 -27 c 128,-1,4
 239 -27 239 -27 192.5 20 c 128,-1,5
 146 67 146 67 146 134.5 c 128,-1,6
 146 202 146 202 193.5 245.5 c 128,-1,7
 241 289 241 289 305.5 289 c 128,-1,0
 370 289 370 289 417 242.5 c 128,-1,1
EndSplineSet
Validated: 1
EndChar

StartChar: slash
Encoding: 18 47 19
Width: 723
GlyphClass: 2
Flags: W
LayerCount: 2
Fore
SplineSet
618 1207 m 1,0,-1
 782 1207 l 1,1,-1
 282 -363 l 1,2,-1
 116 -363 l 1,3,-1
 618 1207 l 1,0,-1
EndSplineSet
Validated: 1
EndChar

StartChar: zero
Encoding: 19 48 20
Width: 1005
GlyphClass: 2
Flags: W
LayerCount: 2
Fore
SplineSet
803 607 m 0,0,1
 803 999 803 999 620 999 c 0,2,3
 402 999 402 999 402 515 c 0,4,5
 402 112 402 112 588 112 c 0,6,7
 667 112 667 112 710 169 c 0,8,9
 759 232 759 232 771.5 290.5 c 128,-1,10
 784 349 784 349 790 385 c 128,-1,11
 796 421 796 421 799 468 c 0,12,13
 803 531 803 531 803 607 c 0,0,1
1031 558 m 0,14,15
 1031 472 1031 472 1018 393 c 128,-1,16
 1005 314 1005 314 973 237.5 c 128,-1,17
 941 161 941 161 893.5 105 c 128,-1,18
 846 49 846 49 771.5 15 c 128,-1,19
 697 -19 697 -19 604 -19 c 128,-1,20
 511 -19 511 -19 436 15 c 128,-1,21
 361 49 361 49 313 105 c 128,-1,22
 265 161 265 161 233 237.5 c 128,-1,23
 201 314 201 314 187.5 393.5 c 128,-1,24
 174 473 174 473 174 559 c 128,-1,25
 174 645 174 645 187.5 724 c 128,-1,26
 201 803 201 803 233 878.5 c 128,-1,27
 265 954 265 954 313 1010 c 0,28,29
 419 1132 419 1132 604 1132 c 0,30,31
 865 1132 865 1132 973 878 c 0,32,33
 1031 741 1031 741 1031 558 c 0,14,15
EndSplineSet
Validated: 1
Substitution2: "'onum' Oldstyle Figures lookup 24 subtable" zero.old
EndChar

StartChar: one
Encoding: 20 49 21
Width: 525
GlyphClass: 2
Flags: W
LayerCount: 2
Fore
SplineSet
523 1 m 1,0,-1
 272 1 l 1,1,-1
 272 856 l 1,2,-1
 129 780 l 1,3,-1
 129 949 l 1,4,5
 235 1017 235 1017 322 1111 c 1,6,-1
 523 1111 l 1,7,8
 494 792 494 792 494 551.5 c 128,-1,9
 494 311 494 311 523 1 c 1,0,-1
EndSplineSet
Validated: 1
Substitution2: "'onum' Oldstyle Figures lookup 24 subtable" one.old
EndChar

StartChar: two
Encoding: 21 50 22
Width: 948
GlyphClass: 2
Flags: W
LayerCount: 2
Fore
SplineSet
896 949.5 m 128,-1,1
 954 860 954 860 954 768.5 c 128,-1,2
 954 677 954 677 936.5 621.5 c 128,-1,3
 919 566 919 566 889.5 530 c 128,-1,4
 860 494 860 494 821.5 467 c 128,-1,5
 783 440 783 440 740 421 c 128,-1,6
 697 402 697 402 654 385 c 128,-1,7
 611 368 611 368 572 347.5 c 128,-1,8
 533 327 533 327 502 301 c 0,9,10
 434 244 434 244 430 141 c 1,11,-1
 946 141 l 1,12,-1
 946 -12 l 1,13,14
 718 0 718 0 534 0 c 128,-1,15
 350 0 350 0 155 -12 c 1,16,-1
 155 47 l 2,17,18
 155 215 155 215 224 306 c 0,19,20
 285 388 285 388 383 434 c 0,21,22
 428 456 428 456 473.5 475.5 c 128,-1,23
 519 495 519 495 560 517.5 c 128,-1,24
 601 540 601 540 633 569 c 0,25,26
 702 632 702 632 702 741.5 c 128,-1,27
 702 851 702 851 647 905 c 128,-1,28
 592 959 592 959 510.5 959 c 128,-1,29
 429 959 429 959 375.5 932.5 c 128,-1,30
 322 906 322 906 287 870.5 c 128,-1,31
 252 835 252 835 211 778 c 1,32,-1
 153 904 l 1,33,34
 233 1015 233 1015 324 1074.5 c 128,-1,35
 415 1134 415 1134 532 1134 c 128,-1,36
 649 1134 649 1134 743.5 1086.5 c 128,-1,0
 838 1039 838 1039 896 949.5 c 128,-1,1
EndSplineSet
Validated: 1
Substitution2: "'onum' Oldstyle Figures lookup 24 subtable" two.old
EndChar

StartChar: three
Encoding: 22 51 23
Width: 940
GlyphClass: 2
Flags: W
LayerCount: 2
Fore
SplineSet
896.5 483 m 128,-1,1
 941 416 941 416 941 333.5 c 128,-1,2
 941 251 941 251 905.5 180.5 c 128,-1,3
 870 110 870 110 809 66 c 0,4,5
 685 -22 685 -22 511 -22 c 0,6,7
 399 -22 399 -22 295 15 c 128,-1,8
 191 52 191 52 119 126 c 1,9,-1
 206 248 l 1,10,11
 245 187 245 187 313.5 153 c 128,-1,12
 382 119 382 119 467 119 c 128,-1,13
 552 119 552 119 612 174 c 128,-1,14
 672 229 672 229 672 324 c 0,15,16
 672 442 672 442 588.5 480.5 c 128,-1,17
 505 519 505 519 431.5 515.5 c 128,-1,18
 358 512 358 512 313 512 c 1,19,-1
 313 661 l 1,20,-1
 445 661 l 2,21,22
 567 661 567 661 635 724 c 0,23,24
 674 761 674 761 674 815 c 0,25,26
 674 895 674 895 604 943 c 128,-1,27
 534 991 534 991 458.5 991 c 128,-1,28
 383 991 383 991 322.5 959 c 128,-1,29
 262 927 262 927 229 871 c 1,30,-1
 149 961 l 1,31,32
 216 1042 216 1042 317.5 1086 c 128,-1,33
 419 1130 419 1130 509.5 1130 c 128,-1,34
 600 1130 600 1130 669.5 1110 c 128,-1,35
 739 1090 739 1090 797 1052 c 128,-1,36
 855 1014 855 1014 891 952.5 c 128,-1,37
 927 891 927 891 927 819.5 c 128,-1,38
 927 748 927 748 886 689.5 c 128,-1,39
 845 631 845 631 783 592 c 1,40,0
 852 550 852 550 896.5 483 c 128,-1,1
EndSplineSet
Validated: 33
Substitution2: "'onum' Oldstyle Figures lookup 24 subtable" three.old
EndChar

StartChar: four
Encoding: 23 52 24
Width: 1082
GlyphClass: 2
Flags: W
LayerCount: 2
Fore
SplineSet
359 410 m 1,0,-1
 688 410 l 1,1,-1
 688 820 l 1,2,-1
 359 410 l 1,0,-1
1076 410 m 1,3,-1
 1076 230 l 1,4,-1
 925 230 l 1,5,6
 929 117 929 117 937 0 c 1,7,-1
 688 0 l 1,8,-1
 688 229 l 1,9,-1
 137 229 l 1,10,-1
 137 374 l 1,11,12
 176 418 176 418 285.5 535 c 128,-1,13
 395 652 395 652 450 718 c 128,-1,14
 505 784 505 784 594.5 917.5 c 128,-1,15
 684 1051 684 1051 729 1109 c 1,16,-1
 937 1109 l 1,17,18
 919 799 919 799 919 635 c 128,-1,19
 919 471 919 471 920 410 c 1,20,-1
 1076 410 l 1,3,-1
EndSplineSet
Validated: 1
Substitution2: "'onum' Oldstyle Figures lookup 24 subtable" four.old
EndChar

StartChar: five
Encoding: 24 53 25
Width: 1025
GlyphClass: 2
Flags: W
LayerCount: 2
Fore
SplineSet
198 261 m 1,0,1
 344 122 344 122 518 122 c 0,2,3
 625 122 625 122 695.5 179.5 c 128,-1,4
 766 237 766 237 766 344 c 128,-1,5
 766 451 766 451 690.5 529 c 128,-1,6
 615 607 615 607 501.5 607 c 128,-1,7
 388 607 388 607 292 519 c 1,8,-1
 177 571 l 1,9,-1
 230 1115 l 1,10,11
 421 1097 421 1097 615.5 1097 c 128,-1,12
 810 1097 810 1097 1006 1115 c 1,13,-1
 1006 912 l 1,14,-1
 387 912 l 1,15,-1
 355 709 l 1,16,17
 464 751 464 751 562 751 c 128,-1,18
 660 751 660 751 741 724.5 c 128,-1,19
 822 698 822 698 886.5 649.5 c 128,-1,20
 951 601 951 601 989.5 526 c 128,-1,21
 1028 451 1028 451 1028 359 c 128,-1,22
 1028 267 1028 267 986 191.5 c 128,-1,23
 944 116 944 116 875 70 c 0,24,25
 735 -22 735 -22 549 -22 c 0,26,27
 292 -22 292 -22 126 134 c 1,28,-1
 198 261 l 1,0,1
EndSplineSet
Validated: 1
Substitution2: "'onum' Oldstyle Figures lookup 24 subtable" five.old
EndChar

StartChar: six
Encoding: 25 54 26
Width: 1071
GlyphClass: 2
Flags: W
LayerCount: 2
Fore
SplineSet
763 542.5 m 128,-1,1
 701 614 701 614 598.5 614 c 128,-1,2
 496 614 496 614 405 558 c 1,3,4
 401 523 401 523 401 470 c 128,-1,5
 401 417 401 417 412 357 c 128,-1,6
 423 297 423 297 447.5 237 c 128,-1,7
 472 177 472 177 521 140 c 128,-1,8
 570 103 570 103 635 103 c 128,-1,9
 700 103 700 103 744 144 c 0,10,11
 825 220 825 220 825 345.5 c 128,-1,0
 825 471 825 471 763 542.5 c 128,-1,1
1032 526.5 m 128,-1,13
 1067 454 1067 454 1067 351.5 c 128,-1,14
 1067 249 1067 249 1008 159.5 c 128,-1,15
 949 70 949 70 853.5 24 c 128,-1,16
 758 -22 758 -22 645 -22 c 128,-1,17
 532 -22 532 -22 439 20 c 128,-1,18
 346 62 346 62 284 134 c 0,19,20
 154 287 154 287 154 491 c 128,-1,21
 154 695 154 695 240.5 837.5 c 128,-1,22
 327 980 327 980 474.5 1054.5 c 128,-1,23
 622 1129 622 1129 806 1129 c 0,24,25
 882 1129 882 1129 986 1110 c 1,26,-1
 955 982 l 1,27,28
 882 993 882 993 835 993 c 0,29,30
 682 993 682 993 567 917.5 c 128,-1,31
 452 842 452 842 421 699 c 1,32,33
 520 737 520 737 621 737 c 128,-1,34
 722 737 722 737 799 713 c 128,-1,35
 876 689 876 689 936.5 644 c 128,-1,12
 997 599 997 599 1032 526.5 c 128,-1,13
EndSplineSet
Validated: 1
Substitution2: "'onum' Oldstyle Figures lookup 24 subtable" six.old
EndChar

StartChar: seven
Encoding: 26 55 27
Width: 847
GlyphClass: 2
Flags: W
LayerCount: 2
Fore
SplineSet
869 1116 m 1,0,-1
 869 989 l 1,1,2
 607 523 607 523 431 1 c 1,3,-1
 200 1 l 1,4,-1
 630 953 l 1,5,-1
 119 953 l 1,6,-1
 119 1117 l 1,7,8
 316 1096 316 1096 486 1096 c 128,-1,9
 656 1096 656 1096 869 1116 c 1,0,-1
EndSplineSet
Validated: 1
Substitution2: "'onum' Oldstyle Figures lookup 24 subtable" seven.old
EndChar

StartChar: eight
Encoding: 27 56 28
Width: 998
GlyphClass: 2
Flags: W
LayerCount: 2
Fore
SplineSet
755 297 m 128,-1,1
 755 372 755 372 700.5 425 c 128,-1,2
 646 478 646 478 571 478 c 128,-1,3
 496 478 496 478 442 425 c 128,-1,4
 388 372 388 372 388 297 c 128,-1,5
 388 222 388 222 442 168.5 c 128,-1,6
 496 115 496 115 571 115 c 128,-1,7
 646 115 646 115 700.5 168.5 c 128,-1,0
 755 222 755 222 755 297 c 128,-1,1
749 814 m 128,-1,9
 749 888 749 888 696 940.5 c 128,-1,10
 643 993 643 993 569 993 c 128,-1,11
 495 993 495 993 442.5 940.5 c 128,-1,12
 390 888 390 888 390 814 c 128,-1,13
 390 740 390 740 443 687.5 c 128,-1,14
 496 635 496 635 569.5 635 c 128,-1,15
 643 635 643 635 696 687.5 c 128,-1,8
 749 740 749 740 749 814 c 128,-1,9
145 299 m 0,16,17
 145 467 145 467 316 560 c 1,18,19
 169 653 169 653 169 818 c 0,20,21
 169 895 169 895 204.5 957 c 128,-1,22
 240 1019 240 1019 298.5 1056.5 c 128,-1,23
 357 1094 357 1094 426 1113.5 c 128,-1,24
 495 1133 495 1133 568 1133 c 128,-1,25
 641 1133 641 1133 710.5 1113.5 c 128,-1,26
 780 1094 780 1094 839 1056.5 c 128,-1,27
 898 1019 898 1019 934 957 c 128,-1,28
 970 895 970 895 970 818 c 0,29,30
 970 651 970 651 824 559 c 1,31,32
 902 517 902 517 948 450.5 c 128,-1,33
 994 384 994 384 994 301.5 c 128,-1,34
 994 219 994 219 955.5 155.5 c 128,-1,35
 917 92 917 92 854 55 c 0,36,37
 726 -20 726 -20 570 -20 c 128,-1,38
 414 -20 414 -20 286 55 c 0,39,40
 223 92 223 92 184 155.5 c 128,-1,41
 145 219 145 219 145 299 c 0,16,17
EndSplineSet
Validated: 1
Substitution2: "'onum' Oldstyle Figures lookup 24 subtable" eight.old
EndChar

StartChar: nine
Encoding: 28 57 29
Width: 1072
GlyphClass: 2
Flags: W
LayerCount: 2
Fore
SplineSet
823 558 m 1,0,1
 825 592 825 592 825 631.5 c 128,-1,2
 825 671 825 671 813 734.5 c 128,-1,3
 801 798 801 798 775.5 861.5 c 128,-1,4
 750 925 750 925 700.5 965.5 c 128,-1,5
 651 1006 651 1006 587.5 1006 c 128,-1,6
 524 1006 524 1006 479 966 c 0,7,8
 396 892 396 892 396 768.5 c 128,-1,9
 396 645 396 645 458 570 c 128,-1,10
 520 495 520 495 625.5 495 c 128,-1,11
 731 495 731 495 823 558 c 1,0,1
1015 861.5 m 128,-1,13
 1074 740 1074 740 1074 574 c 128,-1,14
 1074 408 1074 408 985 266 c 128,-1,15
 896 124 896 124 747 50.5 c 128,-1,16
 598 -23 598 -23 413 -23 c 0,17,18
 355 -23 355 -23 262 -10 c 1,19,-1
 289 119 l 1,20,21
 353 111 353 111 421 111 c 128,-1,22
 489 111 489 111 576.5 143 c 128,-1,23
 664 175 664 175 729 245.5 c 128,-1,24
 794 316 794 316 812 416 c 1,25,26
 702 370 702 370 582.5 370 c 128,-1,27
 463 370 463 370 368 411.5 c 128,-1,28
 273 453 273 453 213 539 c 128,-1,29
 153 625 153 625 153 741 c 128,-1,30
 153 857 153 857 212.5 947 c 128,-1,31
 272 1037 272 1037 369 1083.5 c 128,-1,32
 466 1130 466 1130 597.5 1130 c 128,-1,33
 729 1130 729 1130 842.5 1056.5 c 128,-1,12
 956 983 956 983 1015 861.5 c 128,-1,13
EndSplineSet
Validated: 1
Substitution2: "'onum' Oldstyle Figures lookup 24 subtable" nine.old
EndChar

StartChar: colon
Encoding: 29 58 30
Width: 465
GlyphClass: 2
Flags: W
LayerCount: 2
Fore
SplineSet
418 302.5 m 128,-1,1
 465 256 465 256 465 192.5 c 128,-1,2
 465 129 465 129 420 80.5 c 128,-1,3
 375 32 375 32 307.5 32 c 128,-1,4
 240 32 240 32 193.5 79 c 128,-1,5
 147 126 147 126 147 194 c 128,-1,6
 147 262 147 262 194.5 305.5 c 128,-1,7
 242 349 242 349 306.5 349 c 128,-1,0
 371 349 371 349 418 302.5 c 128,-1,1
418 784 m 128,-1,9
 465 738 465 738 465 674.5 c 128,-1,10
 465 611 465 611 419.5 562 c 128,-1,11
 374 513 374 513 307 513 c 128,-1,12
 240 513 240 513 193.5 560.5 c 128,-1,13
 147 608 147 608 147 676.5 c 128,-1,14
 147 745 147 745 194 787.5 c 128,-1,15
 241 830 241 830 306 830 c 128,-1,8
 371 830 371 830 418 784 c 128,-1,9
EndSplineSet
Validated: 1
EndChar

StartChar: semicolon
Encoding: 30 59 31
Width: 476
GlyphClass: 2
Flags: W
LayerCount: 2
Fore
SplineSet
434 186 m 128,-1,1
 474 133 474 133 474 40 c 128,-1,2
 474 -53 474 -53 417 -161 c 128,-1,3
 360 -269 360 -269 273 -327 c 1,4,-1
 179 -239 l 1,5,6
 220 -204 220 -204 259 -157 c 128,-1,7
 298 -110 298 -110 298 -75 c 1,8,9
 234 -74 234 -74 195 -27 c 128,-1,10
 156 20 156 20 156 85.5 c 128,-1,11
 156 151 156 151 202 195 c 128,-1,12
 248 239 248 239 321 239 c 128,-1,0
 394 239 394 239 434 186 c 128,-1,1
427 604 m 128,-1,14
 474 558 474 558 474 494.5 c 128,-1,15
 474 431 474 431 428.5 382 c 128,-1,16
 383 333 383 333 316 333 c 128,-1,17
 249 333 249 333 202.5 380.5 c 128,-1,18
 156 428 156 428 156 496.5 c 128,-1,19
 156 565 156 565 203 607.5 c 128,-1,20
 250 650 250 650 315 650 c 128,-1,13
 380 650 380 650 427 604 c 128,-1,14
EndSplineSet
Validated: 1
EndChar

StartChar: less
Encoding: 31 60 32
Width: 955
GlyphClass: 2
Flags: W
LayerCount: 2
Fore
SplineSet
950 195 m 1,0,-1
 950 9 l 1,1,-1
 154 384 l 1,2,-1
 154 525 l 1,3,-1
 950 898 l 1,4,-1
 950 714 l 1,5,-1
 438 455 l 1,6,-1
 950 195 l 1,0,-1
EndSplineSet
Validated: 1
EndChar

StartChar: equal
Encoding: 32 61 33
Width: 917
GlyphClass: 2
Flags: W
LayerCount: 2
Fore
SplineSet
916 381 m 1,0,-1
 916 205 l 1,1,-1
 152 205 l 1,2,-1
 152 381 l 1,3,-1
 916 381 l 1,0,-1
916 674 m 1,4,-1
 916 498 l 1,5,-1
 152 498 l 1,6,-1
 152 674 l 1,7,-1
 916 674 l 1,4,-1
EndSplineSet
Validated: 1
EndChar

StartChar: greater
Encoding: 33 62 34
Width: 953
GlyphClass: 2
Flags: W
LayerCount: 2
Fore
SplineSet
950 515 m 1,0,-1
 950 374 l 1,1,-1
 154 0 l 1,2,-1
 154 185 l 1,3,-1
 666 445 l 1,4,-1
 154 704 l 1,5,-1
 154 888 l 1,6,-1
 950 515 l 1,0,-1
EndSplineSet
Validated: 1
EndChar

StartChar: question
Encoding: 34 63 35
Width: 1000
GlyphClass: 2
Flags: W
LayerCount: 2
Fore
SplineSet
728 213.5 m 128,-1,1
 777 173 777 173 777 112 c 128,-1,2
 777 51 777 51 730 8.5 c 128,-1,3
 683 -34 683 -34 618 -34 c 128,-1,4
 553 -34 553 -34 504 7.5 c 128,-1,5
 455 49 455 49 455 113 c 128,-1,6
 455 177 455 177 504.5 215.5 c 128,-1,7
 554 254 554 254 616.5 254 c 128,-1,0
 679 254 679 254 728 213.5 c 128,-1,1
953.5 1050.5 m 128,-1,9
 994 988 994 988 994 926 c 128,-1,10
 994 864 994 864 974 822.5 c 128,-1,11
 954 781 954 781 922.5 751.5 c 128,-1,12
 891 722 891 722 852.5 695 c 128,-1,13
 814 668 814 668 775.5 642.5 c 128,-1,14
 737 617 737 617 706 590 c 0,15,16
 634 529 634 529 634 449 c 0,17,18
 634 424 634 424 650 378 c 1,19,-1
 495 337 l 1,20,21
 467 405 467 405 467 454.5 c 128,-1,22
 467 504 467 504 490.5 558 c 128,-1,23
 514 612 514 612 547 653.5 c 128,-1,24
 580 695 580 695 614 735 c 0,25,26
 694 831 694 831 694 914.5 c 128,-1,27
 694 998 694 998 651.5 1050 c 128,-1,28
 609 1102 609 1102 541 1102 c 128,-1,29
 473 1102 473 1102 428 1074.5 c 128,-1,30
 383 1047 383 1047 383 992 c 0,31,32
 383 977 383 977 413.5 939.5 c 128,-1,33
 444 902 444 902 444 862.5 c 128,-1,34
 444 823 444 823 399.5 794.5 c 128,-1,35
 355 766 355 766 294.5 766 c 128,-1,36
 234 766 234 766 188 807.5 c 128,-1,37
 142 849 142 849 142 915.5 c 128,-1,38
 142 982 142 982 168 1036 c 128,-1,39
 194 1090 194 1090 236.5 1125 c 128,-1,40
 279 1160 279 1160 336 1184 c 0,41,42
 441 1229 441 1229 540.5 1229 c 128,-1,43
 640 1229 640 1229 712.5 1209 c 128,-1,44
 785 1189 785 1189 849 1151 c 128,-1,8
 913 1113 913 1113 953.5 1050.5 c 128,-1,9
EndSplineSet
Validated: 1
EndChar

StartChar: at
Encoding: 35 64 36
Width: 1363
GlyphClass: 2
Flags: W
LayerCount: 2
Fore
SplineSet
817 584 m 2,0,-1
 819 674 l 2,1,2
 819 736 819 736 810.5 759 c 128,-1,3
 802 782 802 782 790 800 c 0,4,5
 768 834 768 834 709.5 834 c 128,-1,6
 651 834 651 834 618 769 c 128,-1,7
 585 704 585 704 585 634.5 c 128,-1,8
 585 565 585 565 598.5 514.5 c 128,-1,9
 612 464 612 464 645.5 426.5 c 128,-1,10
 679 389 679 389 714 389 c 128,-1,11
 749 389 749 389 765 395 c 128,-1,12
 781 401 781 401 790.5 416 c 128,-1,13
 800 431 800 431 806 442 c 128,-1,14
 812 453 812 453 814.5 478 c 128,-1,15
 817 503 817 503 817.5 512.5 c 128,-1,16
 818 522 818 522 817.5 551 c 128,-1,17
 817 580 817 580 817 584 c 2,0,-1
561 932 m 128,-1,19
 622 965 622 965 691.5 965 c 128,-1,20
 761 965 761 965 834 911 c 1,21,-1
 834 957 l 1,22,-1
 1019 957 l 1,23,24
 994 805 994 805 994 705 c 128,-1,25
 994 605 994 605 999.5 559 c 128,-1,26
 1005 513 1005 513 1022 481.5 c 128,-1,27
 1039 450 1039 450 1063.5 450 c 128,-1,28
 1088 450 1088 450 1110 476.5 c 128,-1,29
 1132 503 1132 503 1143 541 c 0,30,31
 1165 617 1165 617 1165 672 c 0,32,33
 1165 844 1165 844 1059 957 c 0,34,35
 1008 1010 1008 1010 926 1041.5 c 128,-1,36
 844 1073 844 1073 750.5 1073 c 128,-1,37
 657 1073 657 1073 575 1035 c 128,-1,38
 493 997 493 997 440 933 c 128,-1,39
 387 869 387 869 358 785.5 c 128,-1,40
 329 702 329 702 329 610 c 128,-1,41
 329 518 329 518 363.5 431 c 128,-1,42
 398 344 398 344 457.5 278 c 128,-1,43
 517 212 517 212 604 172 c 128,-1,44
 691 132 691 132 789 132 c 0,45,46
 931 132 931 132 1071 227 c 1,47,-1
 1165 117 l 1,48,49
 978 -13 978 -13 780 -13 c 0,50,51
 645 -13 645 -13 527 38 c 128,-1,52
 409 89 409 89 327.5 175 c 128,-1,53
 246 261 246 261 199.5 374 c 128,-1,54
 153 487 153 487 153 611.5 c 128,-1,55
 153 736 153 736 196.5 848 c 128,-1,56
 240 960 240 960 318 1044.5 c 128,-1,57
 396 1129 396 1129 512.5 1178.5 c 128,-1,58
 629 1228 629 1228 781.5 1228 c 128,-1,59
 934 1228 934 1228 1070.5 1157.5 c 128,-1,60
 1207 1087 1207 1087 1286 961 c 128,-1,61
 1365 835 1365 835 1365 681 c 0,62,63
 1365 548 1365 548 1288 418 c 0,64,65
 1250 353 1250 353 1183.5 311 c 128,-1,66
 1117 269 1117 269 1031 269 c 128,-1,67
 945 269 945 269 886 337 c 1,68,69
 801 259 801 259 694 259 c 0,70,71
 621 259 621 259 560 292 c 128,-1,72
 499 325 499 325 461.5 377.5 c 128,-1,73
 424 430 424 430 403 491 c 128,-1,74
 382 552 382 552 382 612 c 128,-1,75
 382 672 382 672 403 733 c 128,-1,76
 424 794 424 794 462 846.5 c 128,-1,18
 500 899 500 899 561 932 c 128,-1,19
EndSplineSet
Validated: 1
EndChar

StartChar: bracketleft
Encoding: 36 91 37
Width: 478
GlyphClass: 2
Flags: W
LayerCount: 2
Fore
SplineSet
560 -222 m 1,0,-1
 560 -364 l 1,1,-1
 157 -364 l 1,2,-1
 157 1208 l 1,3,-1
 560 1208 l 1,4,-1
 560 1066 l 1,5,-1
 388 1066 l 1,6,-1
 388 -222 l 1,7,-1
 560 -222 l 1,0,-1
EndSplineSet
Validated: 1
EndChar

StartChar: backslash
Encoding: 37 92 38
Width: 741
GlyphClass: 2
Flags: W
LayerCount: 2
Fore
SplineSet
277 1204 m 1,0,-1
 774 -367 l 1,1,-1
 610 -367 l 1,2,-1
 115 1204 l 1,3,-1
 277 1204 l 1,0,-1
EndSplineSet
Validated: 1
EndChar

StartChar: bracketright
Encoding: 38 93 39
Width: 478
GlyphClass: 2
Flags: W
LayerCount: 2
Fore
SplineSet
477 1208 m 1,0,-1
 477 -364 l 1,1,-1
 74 -364 l 1,2,-1
 74 -222 l 1,3,-1
 246 -222 l 1,4,-1
 246 1066 l 1,5,-1
 74 1066 l 1,6,-1
 74 1208 l 1,7,-1
 477 1208 l 1,0,-1
EndSplineSet
Validated: 1
EndChar

StartChar: asciicircum
Encoding: 39 94 40
Width: 932
GlyphClass: 2
Flags: W
LayerCount: 2
Fore
SplineSet
944 700 m 1,0,-1
 745 700 l 1,1,-1
 528 958 l 1,2,-1
 312 700 l 1,3,-1
 115 700 l 1,4,5
 287 935 287 935 416 1210 c 1,6,-1
 651 1210 l 1,7,8
 768 947 768 947 944 700 c 1,0,-1
EndSplineSet
Validated: 1
EndChar

StartChar: underscore
Encoding: 40 95 41
Width: 1442
GlyphClass: 2
Flags: W
LayerCount: 2
Fore
SplineSet
1436 -212 m 1,0,-1
 1436 -388 l 1,1,-1
 161 -388 l 1,2,-1
 161 -212 l 1,3,-1
 1436 -212 l 1,0,-1
EndSplineSet
Validated: 1
EndChar

StartChar: grave
Encoding: 41 96 42
Width: 464
GlyphClass: 2
Flags: W
LayerCount: 2
Fore
SplineSet
392 1237 m 1,0,-1
 472 758 l 1,1,-1
 326 758 l 1,2,3
 263 1010 263 1010 126 1237 c 1,4,-1
 392 1237 l 1,0,-1
EndSplineSet
Validated: 1
EndChar

StartChar: braceleft
Encoding: 42 123 43
Width: 593
GlyphClass: 2
Flags: W
LayerCount: 2
Fore
SplineSet
503 -148 m 2,0,1
 503 -233 503 -233 598 -230 c 0,2,3
 613 -229 613 -229 639.5 -227.5 c 128,-1,4
 666 -226 666 -226 679 -226 c 1,5,-1
 679 -370 l 1,6,-1
 474 -370 l 2,7,8
 269 -369 269 -369 269 -148 c 2,9,-1
 269 273 l 2,10,11
 269 330 269 330 240 342 c 0,12,13
 219 351 219 351 155 351 c 1,14,-1
 155 494 l 1,15,16
 159 494 159 494 175 494 c 128,-1,17
 191 494 191 494 202.5 494.5 c 128,-1,18
 214 495 214 495 229.5 499 c 128,-1,19
 245 503 245 503 252 511 c 0,20,21
 269 530 269 530 269 574 c 2,22,-1
 269 986 l 2,23,24
 269 1210 269 1210 480 1210 c 2,25,-1
 679 1210 l 1,26,-1
 679 1066 l 1,27,28
 665 1066 665 1066 638.5 1067.5 c 128,-1,29
 612 1069 612 1069 597 1069.5 c 128,-1,30
 582 1070 582 1070 561.5 1066.5 c 128,-1,31
 541 1063 541 1063 530 1055 c 0,32,33
 503 1035 503 1035 503 986 c 2,34,-1
 503 601 l 2,35,36
 503 483 503 483 437 421 c 1,37,38
 503 348 503 348 503 236 c 2,39,-1
 503 -148 l 2,0,1
EndSplineSet
Validated: 33
EndChar

StartChar: bar
Encoding: 43 124 44
Width: 328
GlyphClass: 2
Flags: W
LayerCount: 2
Fore
SplineSet
327 1210 m 1,0,-1
 327 -360 l 1,1,-1
 155 -360 l 1,2,3
 165 14 165 14 165 425 c 128,-1,4
 165 836 165 836 155 1210 c 1,5,-1
 327 1210 l 1,0,-1
EndSplineSet
Validated: 1
EndChar

StartChar: braceright
Encoding: 44 125 45
Width: 632
GlyphClass: 2
Flags: W
LayerCount: 2
Fore
SplineSet
284 986 m 2,0,1
 284 1073 284 1073 190 1070 c 0,2,3
 175 1069 175 1069 148.5 1067.5 c 128,-1,4
 122 1066 122 1066 108 1066 c 1,5,-1
 108 1210 l 1,6,-1
 314 1210 l 2,7,8
 518 1210 518 1210 518 986 c 2,9,-1
 518 574 l 2,10,11
 518 516 518 516 546 504 c 0,12,13
 570 494 570 494 632 494 c 1,14,-1
 632 351 l 1,15,16
 567 351 567 351 551 345 c 0,17,18
 518 332 518 332 518 273 c 2,19,-1
 518 -142 l 2,20,21
 518 -254 518 -254 466.5 -309 c 128,-1,22
 415 -364 415 -364 307 -364 c 2,23,-1
 108 -364 l 1,24,-1
 108 -220 l 1,25,26
 121 -220 121 -220 147.5 -221.5 c 128,-1,27
 174 -223 174 -223 189 -223.5 c 128,-1,28
 204 -224 204 -224 224.5 -220.5 c 128,-1,29
 245 -217 245 -217 256 -209 c 0,30,31
 284 -190 284 -190 284 -142 c 2,32,-1
 284 236 l 2,33,34
 284 346 284 346 350 421 c 1,35,36
 284 483 284 483 284 601 c 2,37,-1
 284 986 l 2,0,1
EndSplineSet
Validated: 33
EndChar

StartChar: asciitilde
Encoding: 45 126 46
Width: 1177
GlyphClass: 2
Flags: W
LayerCount: 2
Fore
SplineSet
943 1224 m 1,0,-1
 1060 1194 l 1,1,2
 1054 1106 1054 1106 983 1025 c 128,-1,3
 912 944 912 944 819 944 c 0,4,5
 755 944 755 944 643 994 c 128,-1,6
 531 1044 531 1044 471.5 1044 c 128,-1,7
 412 1044 412 1044 384 1022.5 c 128,-1,8
 356 1001 356 1001 349 952 c 1,9,-1
 233 982 l 1,10,11
 237 1067 237 1067 309 1139 c 128,-1,12
 381 1211 381 1211 459.5 1211 c 128,-1,13
 538 1211 538 1211 649 1161.5 c 128,-1,14
 760 1112 760 1112 818 1112 c 0,15,16
 927 1112 927 1112 943 1224 c 1,0,-1
EndSplineSet
Validated: 1
EndChar

StartChar: uni00AD
Encoding: 46 173 47
Width: 890
GlyphClass: 2
Flags: W
LayerCount: 2
Fore
SplineSet
865 445 m 1,0,-1
 865 264 l 1,1,-1
 174 264 l 1,2,-1
 174 445 l 1,3,-1
 865 445 l 1,0,-1
EndSplineSet
Validated: 1
EndChar

StartChar: anusvara
Encoding: 47 3330 48
Width: 831
GlyphClass: 2
Flags: W
LayerCount: 2
Fore
SplineSet
730.5 78.5 m 128,-1,1
 629 -23 629 -23 485 -23 c 128,-1,2
 341 -23 341 -23 239.5 77 c 128,-1,3
 138 177 138 177 138 323 c 128,-1,4
 138 469 138 469 239.5 570.5 c 128,-1,5
 341 672 341 672 485.5 672 c 128,-1,6
 630 672 630 672 731 569.5 c 128,-1,7
 832 467 832 467 832 323.5 c 128,-1,0
 832 180 832 180 730.5 78.5 c 128,-1,1
286.5 175.5 m 128,-1,9
 352 110 352 110 445.5 110 c 128,-1,10
 539 110 539 110 604 175 c 128,-1,11
 669 240 669 240 669 333.5 c 128,-1,12
 669 427 669 427 603 491.5 c 128,-1,13
 537 556 537 556 445.5 556 c 128,-1,14
 354 556 354 556 287.5 491 c 128,-1,15
 221 426 221 426 221 333.5 c 128,-1,8
 221 241 221 241 286.5 175.5 c 128,-1,9
EndSplineSet
Validated: 1
Ligature2: "vowels" avagraha ZWJ anusvara
EndChar

StartChar: visarga
Encoding: 48 3331 49
Width: 444
GlyphClass: 2
Flags: W
LayerCount: 2
Fore
SplineSet
389 577.5 m 128,-1,1
 341 528 341 528 269.5 528 c 128,-1,2
 198 528 198 528 151 579 c 128,-1,3
 104 630 104 630 104 701.5 c 128,-1,4
 104 773 104 773 150.5 823.5 c 128,-1,5
 197 874 197 874 269 874 c 128,-1,6
 341 874 341 874 389 826 c 128,-1,7
 437 778 437 778 437 702.5 c 128,-1,0
 437 627 437 627 389 577.5 c 128,-1,1
389.5 68.5 m 128,-1,9
 342 19 342 19 270 19 c 128,-1,10
 198 19 198 19 151 70 c 128,-1,11
 104 121 104 121 104 192 c 128,-1,12
 104 263 104 263 150.5 313.5 c 128,-1,13
 197 364 197 364 269 364 c 128,-1,14
 341 364 341 364 389 316 c 128,-1,15
 437 268 437 268 437 193 c 128,-1,8
 437 118 437 118 389.5 68.5 c 128,-1,9
310 670 m 0,16,17
 316 684 316 684 316 706.5 c 128,-1,18
 316 729 316 729 296 753.5 c 128,-1,19
 276 778 276 778 244.5 778 c 128,-1,20
 213 778 213 778 192.5 753.5 c 128,-1,21
 172 729 172 729 172 706.5 c 128,-1,22
 172 684 172 684 177.5 670.5 c 128,-1,23
 183 657 183 657 193 646 c 0,24,25
 215 622 215 622 253 622 c 128,-1,26
 291 622 291 622 310 670 c 0,16,17
295.5 136.5 m 128,-1,28
 316 161 316 161 316 183.5 c 128,-1,29
 316 206 316 206 310.5 219.5 c 128,-1,30
 305 233 305 233 295 244 c 128,-1,31
 285 255 285 255 272 261.5 c 128,-1,32
 259 268 259 268 244 268 c 0,33,34
 215 268 215 268 193.5 244.5 c 128,-1,35
 172 221 172 221 172 191 c 128,-1,36
 172 161 172 161 193 136.5 c 128,-1,37
 214 112 214 112 244.5 112 c 128,-1,27
 275 112 275 112 295.5 136.5 c 128,-1,28
EndSplineSet
Validated: 1
Ligature2: "vowels" avagraha ZWJ visarga
EndChar

StartChar: ml_a
Encoding: 49 3333 50
Width: 2050
GlyphClass: 2
Flags: W
LayerCount: 2
Fore
SplineSet
1302 804 m 1,0,1
 1381 919 1381 919 1577 919 c 128,-1,2
 1773 919 1773 919 1910.5 776 c 128,-1,3
 2048 633 2048 633 2048 426 c 0,4,5
 2048 257 2048 257 1974 131 c 0,6,7
 1886 -20 1886 -20 1739 -20 c 128,-1,8
 1592 -20 1592 -20 1516 111 c 0,9,10
 1453 220 1453 220 1453 379.5 c 128,-1,11
 1453 539 1453 539 1568 659 c 0,12,13
 1606 698 1606 698 1654 723 c 1,14,15
 1596 759 1596 759 1547 759 c 0,16,17
 1466 759 1466 759 1420.5 725.5 c 128,-1,18
 1375 692 1375 692 1375 634 c 2,19,-1
 1375 -1 l 1,20,-1
 1172 -1 l 1,21,-1
 1172 578 l 2,22,23
 1172 672 1172 672 1120 735.5 c 128,-1,24
 1068 799 1068 799 975 797 c 2,25,-1
 968 797 l 1,26,27
 1073 714 1073 714 1073 609 c 0,28,29
 1073 549 1073 549 1043 496.5 c 128,-1,30
 1013 444 1013 444 963 412 c 1,31,32
 1073 357 1073 357 1073 240 c 128,-1,33
 1073 123 1073 123 986 52 c 128,-1,34
 899 -19 899 -19 796 -19 c 0,35,36
 616 -19 616 -19 528.5 105 c 128,-1,37
 441 229 441 229 441 402 c 0,38,39
 441 617 441 617 583 767 c 1,40,-1
 576 767 l 2,41,42
 422 769 422 769 341 658 c 128,-1,43
 260 547 260 547 260 386 c 0,44,45
 260 161 260 161 432 21 c 1,46,-1
 334 -21 l 1,47,48
 140 130 140 130 140 433 c 0,49,50
 140 651 140 651 264 785.5 c 128,-1,51
 388 920 388 920 605 920 c 0,52,53
 709 920 709 920 778 882 c 1,54,55
 829 909 829 909 884.5 914 c 128,-1,56
 940 919 940 919 991 919 c 0,57,58
 1096 919 1096 919 1167 894.5 c 128,-1,59
 1238 870 1238 870 1302 804 c 1,0,1
1755 621 m 1,60,61
 1582 585 1582 585 1582 378 c 0,62,63
 1582 249 1582 249 1642 200 c 0,64,65
 1666 181 1666 181 1704 181 c 0,66,67
 1771 181 1771 181 1800 260 c 0,68,69
 1819 312 1819 312 1819 385 c 0,70,71
 1819 519 1819 519 1755 621 c 1,60,61
882 213 m 0,72,73
 895 229 895 229 895 252 c 0,74,75
 895 293 895 293 861.5 319.5 c 128,-1,76
 828 346 828 346 789 346 c 2,77,-1
 716 346 l 1,78,-1
 716 499 l 1,79,-1
 789 499 l 2,80,81
 824 499 824 499 845.5 532.5 c 128,-1,82
 867 566 867 566 867 598 c 0,83,84
 867 653 867 653 829.5 688.5 c 128,-1,85
 792 724 792 724 740 742 c 1,86,87
 615 664 615 664 578 513 c 0,88,89
 566 466 566 466 566 418 c 0,90,91
 566 313 566 313 617.5 241 c 128,-1,92
 669 169 669 169 758.5 169 c 128,-1,93
 848 169 848 169 882 213 c 0,72,73
EndSplineSet
Validated: 33
EndChar

StartChar: ml_aa
Encoding: 50 3334 51
Width: 2357
GlyphClass: 2
Flags: W
LayerCount: 2
Fore
SplineSet
1303 804 m 1,0,1
 1385 919 1385 919 1568 919 c 0,2,3
 1684 919 1684 919 1785 868.5 c 128,-1,4
 1886 818 1886 818 1953 724 c 1,5,6
 2140 694 2140 694 2248.5 560 c 128,-1,7
 2357 426 2357 426 2357 221.5 c 128,-1,8
 2357 17 2357 17 2216.5 -141.5 c 128,-1,9
 2076 -300 2076 -300 1861 -300 c 0,10,11
 1694 -300 1694 -300 1557 -195 c 1,12,-1
 1601 -87 l 1,13,14
 1701 -170 1701 -170 1799 -170 c 0,15,16
 1968 -170 1968 -170 2057.5 -30 c 128,-1,17
 2147 110 2147 110 2147 281.5 c 128,-1,18
 2147 453 2147 453 2035 543 c 1,19,20
 2048 480 2048 480 2048 417 c 0,21,22
 2048 255 2048 255 1974 129 c 0,23,24
 1886 -23 1886 -23 1738 -23 c 128,-1,25
 1590 -23 1590 -23 1521 84 c 128,-1,26
 1452 191 1452 191 1452 323 c 128,-1,27
 1452 455 1452 455 1514.5 555 c 128,-1,28
 1577 655 1577 655 1689 698 c 1,29,30
 1617 759 1617 759 1543 759 c 128,-1,31
 1469 759 1469 759 1436 734 c 0,32,33
 1376 690 1376 690 1376 633 c 2,34,-1
 1376 -3 l 1,35,-1
 1173 -3 l 1,36,-1
 1173 577 l 2,37,38
 1173 731 1173 731 1062 780 c 0,39,40
 1025 797 1025 797 976 797 c 2,41,-1
 968 797 l 1,42,43
 1074 713 1074 713 1074 608 c 0,44,45
 1074 548 1074 548 1044 495 c 128,-1,46
 1014 442 1014 442 963 410 c 1,47,48
 1015 385 1015 385 1044.5 338 c 128,-1,49
 1074 291 1074 291 1074 233 c 0,50,51
 1074 122 1074 122 986.5 50 c 128,-1,52
 899 -22 899 -22 797 -22 c 0,53,54
 618 -22 618 -22 529.5 103 c 128,-1,55
 441 228 441 228 441 400 c 0,56,57
 441 616 441 616 584 767 c 1,58,-1
 568 767 l 2,59,60
 415 769 415 769 338 658 c 128,-1,61
 261 547 261 547 261 385 c 0,62,63
 261 158 261 158 433 19 c 1,64,-1
 334 -23 l 1,65,66
 140 124 140 124 140 432 c 0,67,68
 140 650 140 650 264.5 785 c 128,-1,69
 389 920 389 920 606 920 c 0,70,71
 707 920 707 920 778 882 c 1,72,73
 851 919 851 919 969.5 919 c 128,-1,74
 1088 919 1088 919 1163.5 895 c 128,-1,75
 1239 871 1239 871 1303 804 c 1,0,1
1580 318 m 0,76,77
 1580 179 1580 179 1702 179 c 0,78,79
 1818 179 1818 179 1818 395 c 0,80,81
 1818 491 1818 491 1774 585 c 1,82,83
 1684 554 1684 554 1632 483.5 c 128,-1,84
 1580 413 1580 413 1580 318 c 0,76,77
884 211 m 0,85,86
 896 227 896 227 896 250 c 0,87,88
 896 290 896 290 863 317.5 c 128,-1,89
 830 345 830 345 789 345 c 2,90,-1
 717 345 l 1,91,-1
 717 498 l 1,92,-1
 789 498 l 2,93,94
 825 498 825 498 846.5 531 c 128,-1,95
 868 564 868 564 868 597 c 0,96,97
 868 651 868 651 831 687 c 128,-1,98
 794 723 794 723 741 741 c 1,99,100
 614 663 614 663 578 510 c 0,101,102
 566 463 566 463 566 416 c 0,103,104
 566 313 566 313 618 240 c 128,-1,105
 670 167 670 167 759.5 167 c 128,-1,106
 849 167 849 167 884 211 c 0,85,86
EndSplineSet
Validated: 33
AlternateSubs2: "'aalt' Access All Alternates lookup 14 subtable" a2
EndChar

StartChar: ml_i
Encoding: 51 3335 52
Width: 1593
GlyphClass: 2
Flags: W
LayerCount: 2
Fore
SplineSet
368 -78 m 0,0,1
 368 -121 368 -121 422 -121 c 2,2,-1
 1555 -121 l 1,3,-1
 1555 -307 l 1,4,-1
 409 -307 l 2,5,6
 254 -307 254 -307 196 -207 c 0,7,8
 175 -172 175 -172 175 -122 c 0,9,10
 175 -26 175 -26 242 22 c 128,-1,11
 309 70 309 70 409 70 c 2,12,-1
 1095 70 l 2,13,14
 1228 70 1228 70 1294 189 c 0,15,16
 1347 284 1347 284 1347 420 c 128,-1,17
 1347 556 1347 556 1299 654 c 0,18,19
 1238 778 1238 778 1131.5 778 c 128,-1,20
 1025 778 1025 778 991 700 c 0,21,22
 980 674 980 674 980 642 c 2,23,-1
 980 121 l 1,24,-1
 780 121 l 1,25,-1
 780 592 l 2,26,27
 780 688 780 688 698 732 c 0,28,29
 636 766 636 766 520 766 c 128,-1,30
 404 766 404 766 322 684 c 0,31,32
 295 657 295 657 277 622 c 1,33,34
 351 681 351 681 424 681 c 0,35,36
 555 681 555 681 630 594 c 128,-1,37
 705 507 705 507 705 387.5 c 128,-1,38
 705 268 705 268 631.5 183.5 c 128,-1,39
 558 99 558 99 428.5 99 c 128,-1,40
 299 99 299 99 218.5 202 c 128,-1,41
 138 305 138 305 138 447 c 0,42,43
 138 644 138 644 270 785.5 c 128,-1,44
 402 927 402 927 597 927 c 0,45,46
 702 927 702 927 756 906 c 0,47,48
 853 869 853 869 904 792 c 1,49,50
 957 892 957 892 1102 918 c 0,51,52
 1143 926 1143 926 1181 926 c 0,53,54
 1380 926 1380 926 1487 783.5 c 128,-1,55
 1594 641 1594 641 1594 438.5 c 128,-1,56
 1594 236 1594 236 1495 97.5 c 128,-1,57
 1396 -41 1396 -41 1205 -41 c 2,58,-1
 422 -41 l 2,59,60
 404 -41 404 -41 386 -51.5 c 128,-1,61
 368 -62 368 -62 368 -78 c 0,0,1
385 549 m 0,62,63
 306 549 306 549 282 456 c 0,64,65
 276 431 276 431 276 406 c 0,66,67
 276 346 276 346 306.5 299.5 c 128,-1,68
 337 253 337 253 391.5 253 c 128,-1,69
 446 253 446 253 474.5 297.5 c 128,-1,70
 503 342 503 342 503 399 c 128,-1,71
 503 456 503 456 471.5 502.5 c 128,-1,72
 440 549 440 549 385 549 c 0,62,63
EndSplineSet
Validated: 1
AlternateSubs2: "'aalt' Access All Alternates lookup 14 subtable" i1
EndChar

StartChar: ml_ii
Encoding: 52 3336 53
Width: 2837
GlyphClass: 2
Flags: W
LayerCount: 2
Fore
SplineSet
2218 768 m 1,0,1
 2282 889 2282 889 2459.5 889 c 128,-1,2
 2637 889 2637 889 2736 750.5 c 128,-1,3
 2835 612 2835 612 2835 421 c 128,-1,4
 2835 230 2835 230 2705.5 106 c 128,-1,5
 2576 -18 2576 -18 2368 -18 c 0,6,7
 2217 -18 2217 -18 2106.5 59.5 c 128,-1,8
 1996 137 1996 137 1992 279 c 1,9,-1
 2077 279 l 1,10,11
 2086 199 2086 199 2152 151.5 c 128,-1,12
 2218 104 2218 104 2297 104 c 0,13,14
 2446 104 2446 104 2526.5 204.5 c 128,-1,15
 2607 305 2607 305 2607 431.5 c 128,-1,16
 2607 558 2607 558 2573.5 624.5 c 128,-1,17
 2540 691 2540 691 2503 721.5 c 128,-1,18
 2466 752 2466 752 2416 752 c 128,-1,19
 2366 752 2366 752 2334 727.5 c 128,-1,20
 2302 703 2302 703 2302 653 c 2,21,-1
 2302 355 l 1,22,-1
 2101 355 l 1,23,-1
 2101 598 l 2,24,25
 2101 672 2101 672 2066 707 c 128,-1,26
 2031 742 2031 742 1970 742 c 0,27,28
 1870 742 1870 742 1824 665.5 c 128,-1,29
 1778 589 1778 589 1778 507.5 c 128,-1,30
 1778 426 1778 426 1805 363 c 1,31,-1
 1704 363 l 1,32,33
 1684 427 1684 427 1684 501 c 0,34,35
 1684 661 1684 661 1767.5 776.5 c 128,-1,36
 1851 892 1851 892 2005 892 c 128,-1,37
 2159 892 2159 892 2218 768 c 1,0,1
369 -78 m 0,38,39
 369 -121 369 -121 424 -121 c 2,40,-1
 1561 -121 l 1,41,-1
 1561 -307 l 1,42,-1
 410 -307 l 2,43,44
 255 -307 255 -307 196 -208 c 0,45,46
 175 -173 175 -173 175 -122 c 0,47,48
 175 -26 175 -26 242.5 22 c 128,-1,49
 310 70 310 70 410 70 c 2,50,-1
 1098 70 l 2,51,52
 1230 70 1230 70 1298 189 c 0,53,54
 1351 283 1351 283 1351 419.5 c 128,-1,55
 1351 556 1351 556 1303 654 c 0,56,57
 1242 778 1242 778 1135 778 c 128,-1,58
 1028 778 1028 778 994 700 c 0,59,60
 983 675 983 675 983 642 c 2,61,-1
 983 121 l 1,62,-1
 783 121 l 1,63,-1
 783 592 l 2,64,65
 783 688 783 688 700 732 c 0,66,67
 638 766 638 766 522.5 766 c 128,-1,68
 407 766 407 766 324 684 c 0,69,70
 296 657 296 657 278 622 c 1,71,72
 350 681 350 681 424 681 c 0,73,74
 555 681 555 681 631 594.5 c 128,-1,75
 707 508 707 508 707 386.5 c 128,-1,76
 707 265 707 265 632.5 182 c 128,-1,77
 558 99 558 99 428.5 99 c 128,-1,78
 299 99 299 99 218.5 202 c 128,-1,79
 138 305 138 305 138 447 c 0,80,81
 138 643 138 643 270.5 785 c 128,-1,82
 403 927 403 927 599 927 c 0,83,84
 760 927 760 927 846 860 c 0,85,86
 879 833 879 833 906 792 c 1,87,88
 962 892 962 892 1106 918 c 0,89,90
 1147 926 1147 926 1185 926 c 0,91,92
 1386 926 1386 926 1493 783.5 c 128,-1,93
 1600 641 1600 641 1600 437.5 c 128,-1,94
 1600 234 1600 234 1500.5 96.5 c 128,-1,95
 1401 -41 1401 -41 1209 -41 c 2,96,-1
 424 -41 l 2,97,98
 406 -41 406 -41 387.5 -51.5 c 128,-1,99
 369 -62 369 -62 369 -78 c 0,38,39
307.5 299.5 m 128,-1,101
 339 253 339 253 393 253 c 128,-1,102
 447 253 447 253 475.5 297.5 c 128,-1,103
 504 342 504 342 504 399.5 c 128,-1,104
 504 457 504 457 473 503 c 128,-1,105
 442 549 442 549 387.5 549 c 128,-1,106
 333 549 333 549 304.5 505.5 c 128,-1,107
 276 462 276 462 276 404 c 128,-1,100
 276 346 276 346 307.5 299.5 c 128,-1,101
EndSplineSet
Validated: 1
AlternateSubs2: "'aalt' Access All Alternates lookup 14 subtable" i2
EndChar

StartChar: ml_u
Encoding: 53 3337 54
Width: 1141
GlyphClass: 2
Flags: W
LayerCount: 2
Fore
SplineSet
357 -78 m 0,0,1
 357 -121 357 -121 411 -121 c 2,2,-1
 1114 -121 l 1,3,-1
 1114 -307 l 1,4,-1
 397 -307 l 2,5,6
 241 -307 241 -307 184 -207 c 0,7,8
 164 -172 164 -172 164 -122 c 0,9,10
 164 -26 164 -26 230.5 22 c 128,-1,11
 297 70 297 70 397 70 c 2,12,-1
 647 70 l 2,13,14
 773 70 773 70 840 184 c 0,15,16
 896 278 896 278 896 387 c 0,17,18
 896 579 896 579 806 680.5 c 128,-1,19
 716 782 716 782 565.5 782 c 128,-1,20
 415 782 415 782 326 691 c 0,21,22
 296 661 296 661 277 622 c 1,23,24
 351 681 351 681 424 681 c 0,25,26
 553 681 553 681 628 593 c 128,-1,27
 703 505 703 505 703 386.5 c 128,-1,28
 703 268 703 268 629.5 183.5 c 128,-1,29
 556 99 556 99 426.5 99 c 128,-1,30
 297 99 297 99 217.5 203 c 128,-1,31
 138 307 138 307 138 430 c 0,32,33
 138 659 138 659 272.5 788 c 128,-1,34
 407 917 407 917 628.5 917 c 128,-1,35
 850 917 850 917 995.5 782 c 128,-1,36
 1141 647 1141 647 1141 436 c 128,-1,37
 1141 225 1141 225 1042.5 92 c 128,-1,38
 944 -41 944 -41 756 -41 c 2,39,-1
 411 -41 l 2,40,41
 393 -41 393 -41 375 -51.5 c 128,-1,42
 357 -62 357 -62 357 -78 c 0,0,1
494 348 m 0,43,44
 501 373 501 373 501 398 c 0,45,46
 501 457 501 457 470 503 c 128,-1,47
 439 549 439 549 385.5 549 c 128,-1,48
 332 549 332 549 303.5 505.5 c 128,-1,49
 275 462 275 462 275 421 c 0,50,51
 275 349 275 349 306 301 c 128,-1,52
 337 253 337 253 392 253 c 0,53,54
 470 253 470 253 494 348 c 0,43,44
EndSplineSet
Validated: 1
AlternateSubs2: "'aalt' Access All Alternates lookup 14 subtable" u1
EndChar

StartChar: ml_uu
Encoding: 54 3338 55
Width: 2375
GlyphClass: 2
Flags: W
LayerCount: 2
Fore
SplineSet
1758 768 m 1,0,1
 1822 889 1822 889 1999 889 c 128,-1,2
 2176 889 2176 889 2275 750.5 c 128,-1,3
 2374 612 2374 612 2374 421 c 128,-1,4
 2374 230 2374 230 2244.5 106 c 128,-1,5
 2115 -18 2115 -18 1907 -18 c 0,6,7
 1757 -18 1757 -18 1646.5 59.5 c 128,-1,8
 1536 137 1536 137 1532 279 c 1,9,-1
 1617 279 l 1,10,11
 1626 199 1626 199 1692 151.5 c 128,-1,12
 1758 104 1758 104 1837 104 c 0,13,14
 1987 104 1987 104 2066.5 204.5 c 128,-1,15
 2146 305 2146 305 2146 431.5 c 128,-1,16
 2146 558 2146 558 2112.5 624.5 c 128,-1,17
 2079 691 2079 691 2042 721.5 c 128,-1,18
 2005 752 2005 752 1955 752 c 128,-1,19
 1905 752 1905 752 1873 727.5 c 128,-1,20
 1841 703 1841 703 1841 653 c 2,21,-1
 1841 355 l 1,22,-1
 1641 355 l 1,23,-1
 1641 598 l 2,24,25
 1641 672 1641 672 1606 707 c 128,-1,26
 1571 742 1571 742 1510 742 c 0,27,28
 1410 742 1410 742 1364 665.5 c 128,-1,29
 1318 589 1318 589 1318 507.5 c 128,-1,30
 1318 426 1318 426 1345 363 c 1,31,-1
 1244 363 l 1,32,33
 1224 427 1224 427 1224 501 c 0,34,35
 1224 660 1224 660 1307 776 c 128,-1,36
 1390 892 1390 892 1544.5 892 c 128,-1,37
 1699 892 1699 892 1758 768 c 1,0,1
358 -78 m 0,38,39
 358 -121 358 -121 412 -121 c 2,40,-1
 1121 -121 l 1,41,-1
 1121 -307 l 1,42,-1
 398 -307 l 2,43,44
 243 -307 243 -307 184 -207 c 0,45,46
 164 -172 164 -172 164 -122 c 0,47,48
 164 -26 164 -26 231.5 22 c 128,-1,49
 299 70 299 70 398 70 c 2,50,-1
 650 70 l 2,51,52
 777 70 777 70 845 184 c 0,53,54
 901 277 901 277 901 429.5 c 128,-1,55
 901 582 901 582 809 682 c 128,-1,56
 717 782 717 782 566.5 782 c 128,-1,57
 416 782 416 782 326 691 c 0,58,59
 297 661 297 661 278 622 c 1,60,61
 352 681 352 681 426 681 c 0,62,63
 556 681 556 681 631.5 593.5 c 128,-1,64
 707 506 707 506 707 385.5 c 128,-1,65
 707 265 707 265 632.5 182 c 128,-1,66
 558 99 558 99 429.5 99 c 128,-1,67
 301 99 301 99 219.5 201.5 c 128,-1,68
 138 304 138 304 138 429 c 0,69,70
 138 658 138 658 273 787.5 c 128,-1,71
 408 917 408 917 630.5 917 c 128,-1,72
 853 917 853 917 1000.5 782 c 128,-1,73
 1148 647 1148 647 1148 435 c 128,-1,74
 1148 223 1148 223 1048.5 91 c 128,-1,75
 949 -41 949 -41 760 -41 c 2,76,-1
 412 -41 l 2,77,78
 394 -41 394 -41 376 -51.5 c 128,-1,79
 358 -62 358 -62 358 -78 c 0,38,39
307 301 m 128,-1,81
 338 253 338 253 392.5 253 c 128,-1,82
 447 253 447 253 475.5 297.5 c 128,-1,83
 504 342 504 342 504 399 c 128,-1,84
 504 456 504 456 472.5 502.5 c 128,-1,85
 441 549 441 549 387 549 c 128,-1,86
 333 549 333 549 304.5 505.5 c 128,-1,87
 276 462 276 462 276 405.5 c 128,-1,80
 276 349 276 349 307 301 c 128,-1,81
EndSplineSet
Validated: 1
AlternateSubs2: "'aalt' Access All Alternates lookup 14 subtable" u2
EndChar

StartChar: ml_r
Encoding: 55 3339 56
Width: 1354
GlyphClass: 2
Flags: W
LayerCount: 2
Fore
SplineSet
1238 525 m 1,0,1
 1165 422 1165 422 1053.5 422 c 128,-1,2
 942 422 942 422 863.5 491 c 128,-1,3
 785 560 785 560 785 671.5 c 128,-1,4
 785 783 785 783 866 852 c 128,-1,5
 947 921 947 921 1072 921 c 128,-1,6
 1197 921 1197 921 1274.5 816.5 c 128,-1,7
 1352 712 1352 712 1352 574 c 0,8,9
 1352 388 1352 388 1241 290 c 0,10,11
 1202 255 1202 255 1147 235 c 1,12,13
 1224 211 1224 211 1264.5 153 c 128,-1,14
 1305 95 1305 95 1305 17.5 c 128,-1,15
 1305 -60 1305 -60 1275.5 -112.5 c 128,-1,16
 1246 -165 1246 -165 1197 -200 c 0,17,18
 1061 -297 1061 -297 755 -297 c 0,19,20
 580 -297 580 -297 500 -280 c 0,21,22
 345 -246 345 -246 264.5 -176.5 c 128,-1,23
 184 -107 184 -107 184 16 c 0,24,25
 184 95 184 95 225 153 c 128,-1,26
 266 211 266 211 341 235 c 1,27,28
 139 300 139 300 139 574 c 0,29,30
 139 712 139 712 216 816.5 c 128,-1,31
 293 921 293 921 418 921 c 128,-1,32
 543 921 543 921 624 852 c 128,-1,33
 705 783 705 783 705 671.5 c 128,-1,34
 705 560 705 560 626.5 491 c 128,-1,35
 548 422 548 422 437 422 c 128,-1,36
 326 422 326 422 253 524 c 1,37,38
 276 334 276 334 523 315 c 0,39,40
 589 310 589 310 650 310 c 2,41,-1
 812 310 l 2,42,43
 985 310 985 310 1053.5 331.5 c 128,-1,44
 1122 353 1122 353 1156 377 c 0,45,46
 1231 430 1231 430 1238 525 c 1,0,1
1188 670 m 128,-1,48
 1188 693 1188 693 1181.5 717 c 128,-1,49
 1175 741 1175 741 1162 761 c 128,-1,50
 1149 781 1149 781 1129.5 794 c 128,-1,51
 1110 807 1110 807 1084 807 c 0,52,53
 1037 807 1037 807 1012 766 c 128,-1,54
 987 725 987 725 987 688 c 0,55,56
 987 622 987 622 1013.5 582.5 c 128,-1,57
 1040 543 1040 543 1076.5 543 c 128,-1,58
 1113 543 1113 543 1132 554.5 c 128,-1,59
 1151 566 1151 566 1163.5 584 c 128,-1,60
 1176 602 1176 602 1182 624.5 c 128,-1,47
 1188 647 1188 647 1188 670 c 128,-1,48
391 543 m 0,61,62
 475 543 475 543 497 628 c 0,63,64
 503 651 503 651 503 673.5 c 128,-1,65
 503 696 503 696 497.5 719.5 c 128,-1,66
 492 743 492 743 480.5 762.5 c 128,-1,67
 469 782 469 782 450.5 794.5 c 128,-1,68
 432 807 432 807 406 807 c 128,-1,69
 380 807 380 807 360.5 794 c 128,-1,70
 341 781 341 781 328 761 c 128,-1,71
 315 741 315 741 308.5 717 c 128,-1,72
 302 693 302 693 302 670 c 0,73,74
 302 619 302 619 328.5 581 c 128,-1,75
 355 543 355 543 391 543 c 0,61,62
1148 41 m 0,76,77
 1148 157 1148 157 966 196 c 0,78,79
 899 211 899 211 840 211 c 2,80,-1
 629 211 l 2,81,82
 529 211 529 211 466.5 182.5 c 128,-1,83
 404 154 404 154 373.5 121.5 c 128,-1,84
 343 89 343 89 343 49.5 c 128,-1,85
 343 10 343 10 360 -14 c 128,-1,86
 377 -38 377 -38 404 -56 c 0,87,88
 454 -89 454 -89 528.5 -105 c 128,-1,89
 603 -121 603 -121 659 -121 c 2,90,-1
 810 -121 l 2,91,92
 981 -121 981 -121 1082 -59 c 0,93,94
 1148 -19 1148 -19 1148 41 c 0,76,77
EndSplineSet
Validated: 1
EndChar

StartChar: ml_l
Encoding: 56 3340 57
Width: 1761
GlyphClass: 2
Flags: W
LayerCount: 2
Fore
SplineSet
255 492 m 1,0,1
 332 571 332 571 451.5 571 c 128,-1,2
 571 571 571 571 646 483.5 c 128,-1,3
 721 396 721 396 721 271 c 128,-1,4
 721 146 721 146 645 61.5 c 128,-1,5
 569 -23 569 -23 446 -23 c 0,6,7
 296 -23 296 -23 216 99 c 128,-1,8
 136 221 136 221 136 354 c 0,9,10
 136 604 136 604 267.5 763 c 128,-1,11
 399 922 399 922 620 922 c 0,12,13
 739 922 739 922 799 904 c 0,14,15
 912 870 912 870 976 793 c 1,16,17
 1078 922 1078 922 1289.5 922 c 128,-1,18
 1501 922 1501 922 1632.5 763 c 128,-1,19
 1764 604 1764 604 1764 379 c 0,20,21
 1764 221 1764 221 1684 99 c 128,-1,22
 1604 -23 1604 -23 1467.5 -23 c 128,-1,23
 1331 -23 1331 -23 1255 61.5 c 128,-1,24
 1179 146 1179 146 1179 271 c 128,-1,25
 1179 396 1179 396 1254 483.5 c 128,-1,26
 1329 571 1329 571 1448.5 571 c 128,-1,27
 1568 571 1568 571 1645 492 c 1,28,29
 1609 619 1609 619 1512 696.5 c 128,-1,30
 1415 774 1415 774 1284 774 c 0,31,32
 1197 774 1197 774 1147 744.5 c 128,-1,33
 1097 715 1097 715 1075 683.5 c 128,-1,34
 1053 652 1053 652 1053 608 c 2,35,-1
 1053 0 l 1,36,-1
 859 0 l 1,37,-1
 859 568 l 2,38,39
 859 657 859 657 779.5 704.5 c 128,-1,40
 700 752 700 752 621 752 c 0,41,42
 478 752 478 752 383.5 681 c 128,-1,43
 289 610 289 610 255 492 c 1,0,1
1405.5 170.5 m 128,-1,45
 1441 123 1441 123 1503.5 123 c 128,-1,46
 1566 123 1566 123 1607 171.5 c 128,-1,47
 1648 220 1648 220 1648 287.5 c 128,-1,48
 1648 355 1648 355 1610.5 401 c 128,-1,49
 1573 447 1573 447 1508 447 c 128,-1,50
 1443 447 1443 447 1406.5 396.5 c 128,-1,51
 1370 346 1370 346 1370 282 c 128,-1,44
 1370 218 1370 218 1405.5 170.5 c 128,-1,45
293 171.5 m 128,-1,53
 334 123 334 123 396.5 123 c 128,-1,54
 459 123 459 123 494.5 170.5 c 128,-1,55
 530 218 530 218 530 282 c 128,-1,56
 530 346 530 346 493.5 396.5 c 128,-1,57
 457 447 457 447 392 447 c 128,-1,58
 327 447 327 447 289.5 401 c 128,-1,59
 252 355 252 355 252 287.5 c 128,-1,52
 252 220 252 220 293 171.5 c 128,-1,53
EndSplineSet
Validated: 1
EndChar

StartChar: ml_e
Encoding: 57 3342 58
Width: 1991
GlyphClass: 2
Flags: W
LayerCount: 2
Fore
SplineSet
789 96 m 1,0,1
 844 95 844 95 898 95 c 2,2,-1
 1009 95 l 1,3,-1
 1009 270 l 2,4,5
 1009 532 1009 532 1126 710 c 0,6,7
 1210 837 1210 837 1352 888 c 0,8,9
 1425 914 1425 914 1511.5 914 c 128,-1,10
 1598 914 1598 914 1665.5 888 c 128,-1,11
 1733 862 1733 862 1786 817 c 0,12,13
 1887 730 1887 730 1938.5 589 c 128,-1,14
 1990 448 1990 448 1990 321 c 0,15,16
 1990 84 1990 84 1898.5 -106 c 128,-1,17
 1807 -296 1807 -296 1637 -399 c 1,18,-1
 1562 -331 l 1,19,20
 1745 -169 1745 -169 1766 112 c 0,21,22
 1773 196 1773 196 1773 265 c 128,-1,23
 1773 334 1773 334 1767 388.5 c 128,-1,24
 1761 443 1761 443 1748 496 c 0,25,26
 1718 613 1718 613 1649 687.5 c 128,-1,27
 1580 762 1580 762 1461.5 762 c 128,-1,28
 1343 762 1343 762 1259 674 c 0,29,30
 1124 532 1124 532 1124 241 c 2,31,-1
 1124 95 l 1,32,-1
 1351 95 l 1,33,-1
 1351 679 l 1,34,-1
 1553 679 l 1,35,-1
 1553 -149 l 2,36,37
 1553 -248 1553 -248 1478 -319 c 128,-1,38
 1403 -390 1403 -390 1318 -390 c 0,39,40
 1172 -390 1172 -390 1090.5 -291 c 128,-1,41
 1009 -192 1009 -192 1009 -59 c 2,42,-1
 1009 -14 l 1,43,-1
 575 -13 l 1,44,-1
 576 56 l 1,45,46
 668 124 668 124 668 222.5 c 128,-1,47
 668 321 668 321 606.5 384.5 c 128,-1,48
 545 448 545 448 455.5 448 c 128,-1,49
 366 448 366 448 309 384.5 c 128,-1,50
 252 321 252 321 252 214.5 c 128,-1,51
 252 108 252 108 347 32 c 1,52,-1
 277 -24 l 1,53,54
 209 30 209 30 170.5 110 c 128,-1,55
 132 190 132 190 132 274 c 0,56,57
 132 438 132 438 237.5 547 c 128,-1,58
 343 656 343 656 499 656 c 128,-1,59
 655 656 655 656 760.5 559 c 128,-1,60
 866 462 866 462 866 328 c 128,-1,61
 866 194 866 194 789 96 c 1,0,1
1351 -116 m 2,62,-1
 1351 -13 l 1,63,-1
 1124 -14 l 1,64,-1
 1124 -39 l 2,65,66
 1124 -162 1124 -162 1192 -216 c 0,67,68
 1216 -235 1216 -235 1246 -235 c 0,69,70
 1294 -235 1294 -235 1322.5 -198 c 128,-1,71
 1351 -161 1351 -161 1351 -116 c 2,62,-1
EndSplineSet
Validated: 1
AlternateSubs2: "'aalt' Access All Alternates lookup 14 subtable" e1
EndChar

StartChar: ml_ee
Encoding: 58 3343 59
Width: 2017
GlyphClass: 2
Flags: W
LayerCount: 2
Fore
SplineSet
1789 517 m 0,0,1
 1789 763 1789 763 1495 763 c 0,2,3
 1231 763 1231 763 1148 486 c 0,4,5
 1114 375 1114 375 1114 241 c 2,6,-1
 1114 95 l 1,7,-1
 1341 95 l 1,8,-1
 1341 679 l 1,9,-1
 1543 679 l 1,10,-1
 1543 -149 l 2,11,12
 1543 -250 1543 -250 1467.5 -320 c 128,-1,13
 1392 -390 1392 -390 1308 -390 c 0,14,15
 1161 -390 1161 -390 1080 -292 c 128,-1,16
 999 -194 999 -194 999 -59 c 2,17,-1
 999 -14 l 1,18,-1
 575 -13 l 1,19,-1
 576 56 l 1,20,21
 618 86 618 86 643 133 c 128,-1,22
 668 180 668 180 668 229 c 0,23,24
 668 324 668 324 607.5 386 c 128,-1,25
 547 448 547 448 455.5 448 c 128,-1,26
 364 448 364 448 308 384.5 c 128,-1,27
 252 321 252 321 252 229 c 0,28,29
 252 104 252 104 347 32 c 1,30,-1
 277 -24 l 1,31,32
 208 30 208 30 170 109.5 c 128,-1,33
 132 189 132 189 132 274 c 0,34,35
 132 439 132 439 237 547.5 c 128,-1,36
 342 656 342 656 498.5 656 c 128,-1,37
 655 656 655 656 760.5 560 c 128,-1,38
 866 464 866 464 866 329 c 128,-1,39
 866 194 866 194 789 96 c 1,40,41
 842 95 842 95 894 95 c 2,42,-1
 999 95 l 1,43,-1
 999 270 l 2,44,45
 999 717 999 717 1295 866 c 0,46,47
 1398 918 1398 918 1518 918 c 0,48,49
 1746 918 1746 918 1881 820.5 c 128,-1,50
 2016 723 2016 723 2016 527 c 0,51,52
 2016 395 2016 395 1924 305 c 0,53,54
 1895 276 1895 276 1857 259 c 1,55,56
 2016 157 2016 157 2016 -42 c 0,57,58
 2016 -194 2016 -194 1932.5 -287 c 128,-1,59
 1849 -380 1849 -380 1719 -380 c 0,60,61
 1643 -380 1643 -380 1587 -357 c 1,62,-1
 1587 -227 l 1,63,64
 1669 -266 1669 -266 1729 -225 c 128,-1,65
 1789 -184 1789 -184 1789 -57 c 0,66,67
 1789 15 1789 15 1762 54 c 0,68,69
 1714 126 1714 126 1645 126 c 2,70,-1
 1606 126 l 1,71,-1
 1606 325 l 1,72,-1
 1659 325 l 2,73,74
 1725 325 1725 325 1757 385 c 128,-1,75
 1789 445 1789 445 1789 517 c 0,0,1
1341 -116 m 2,76,-1
 1341 -13 l 1,77,-1
 1114 -14 l 1,78,-1
 1114 -39 l 2,79,80
 1114 -165 1114 -165 1181 -216 c 0,81,82
 1206 -235 1206 -235 1236 -235 c 0,83,84
 1284 -235 1284 -235 1312.5 -198 c 128,-1,85
 1341 -161 1341 -161 1341 -116 c 2,76,-1
EndSplineSet
Validated: 33
AlternateSubs2: "'aalt' Access All Alternates lookup 14 subtable" e2
EndChar

StartChar: ml_ai
Encoding: 59 3344 60
Width: 3052
GlyphClass: 2
Flags: W
LayerCount: 2
Fore
SplineSet
1848 96 m 1,0,1
 1904 95 1904 95 1958 95 c 2,2,-1
 2068 95 l 1,3,-1
 2068 270 l 2,4,5
 2068 532 2068 532 2186 710 c 0,6,7
 2269 837 2269 837 2412 888 c 0,8,9
 2484 914 2484 914 2571 914 c 128,-1,10
 2658 914 2658 914 2725.5 888 c 128,-1,11
 2793 862 2793 862 2846 817 c 0,12,13
 2947 730 2947 730 2998.5 589 c 128,-1,14
 3050 448 3050 448 3050 321 c 0,15,16
 3050 84 3050 84 2958.5 -106 c 128,-1,17
 2867 -296 2867 -296 2697 -399 c 1,18,-1
 2621 -331 l 1,19,20
 2805 -170 2805 -170 2826 112 c 0,21,22
 2833 196 2833 196 2833 265 c 128,-1,23
 2833 334 2833 334 2827 388.5 c 128,-1,24
 2821 443 2821 443 2808 496 c 0,25,26
 2778 613 2778 613 2708.5 687.5 c 128,-1,27
 2639 762 2639 762 2524 762 c 0,28,29
 2344 762 2344 762 2255 582 c 0,30,31
 2183 436 2183 436 2183 241 c 2,32,-1
 2183 95 l 1,33,-1
 2411 95 l 1,34,-1
 2411 679 l 1,35,-1
 2613 679 l 1,36,-1
 2613 -149 l 2,37,38
 2613 -248 2613 -248 2538 -319 c 128,-1,39
 2463 -390 2463 -390 2378 -390 c 0,40,41
 2231 -390 2231 -390 2149.5 -291 c 128,-1,42
 2068 -192 2068 -192 2068 -59 c 2,43,-1
 2068 -14 l 1,44,-1
 1635 -13 l 1,45,-1
 1636 56 l 1,46,47
 1728 124 1728 124 1728 222.5 c 128,-1,48
 1728 321 1728 321 1666.5 384.5 c 128,-1,49
 1605 448 1605 448 1515.5 448 c 128,-1,50
 1426 448 1426 448 1368.5 384.5 c 128,-1,51
 1311 321 1311 321 1311 215 c 128,-1,52
 1311 109 1311 109 1407 32 c 1,53,-1
 1337 -24 l 1,54,55
 1269 30 1269 30 1230.5 110 c 128,-1,56
 1192 190 1192 190 1192 274 c 0,57,58
 1192 438 1192 438 1297.5 547 c 128,-1,59
 1403 656 1403 656 1559 656 c 128,-1,60
 1715 656 1715 656 1820.5 559 c 128,-1,61
 1926 462 1926 462 1926 327.5 c 128,-1,62
 1926 193 1926 193 1848 96 c 1,0,1
256 491 m 1,63,64
 332 569 332 569 452.5 569 c 128,-1,65
 573 569 573 569 648 481.5 c 128,-1,66
 723 394 723 394 723 268.5 c 128,-1,67
 723 143 723 143 647 58.5 c 128,-1,68
 571 -26 571 -26 447 -26 c 0,69,70
 296 -26 296 -26 216 96 c 128,-1,71
 136 218 136 218 136 377 c 0,72,73
 136 603 136 603 267 762.5 c 128,-1,74
 398 922 398 922 615 922 c 128,-1,75
 832 922 832 922 964.5 781 c 128,-1,76
 1097 640 1097 640 1097 426 c 0,77,78
 1097 126 1097 126 864 -27 c 1,79,-1
 786 40 l 1,80,81
 903 151 903 151 903 320.5 c 128,-1,82
 903 490 903 490 811 609.5 c 128,-1,83
 719 729 719 729 556.5 729 c 128,-1,84
 394 729 394 729 300 588 c 0,85,86
 271 544 271 544 256 491 c 1,63,64
2411 -116 m 2,87,-1
 2411 -13 l 1,88,-1
 2183 -14 l 1,89,-1
 2183 -39 l 2,90,91
 2183 -162 2183 -162 2251 -216 c 0,92,93
 2276 -235 2276 -235 2306 -235 c 0,94,95
 2354 -235 2354 -235 2382.5 -198 c 128,-1,96
 2411 -161 2411 -161 2411 -116 c 2,87,-1
293 169.5 m 128,-1,98
 333 120 333 120 396.5 120 c 128,-1,99
 460 120 460 120 495.5 167 c 128,-1,100
 531 214 531 214 531 279 c 128,-1,101
 531 344 531 344 494.5 394.5 c 128,-1,102
 458 445 458 445 393 445 c 128,-1,103
 328 445 328 445 290.5 399 c 128,-1,104
 253 353 253 353 253 286 c 128,-1,97
 253 219 253 219 293 169.5 c 128,-1,98
EndSplineSet
Validated: 1
AlternateSubs2: "'aalt' Access All Alternates lookup 14 subtable" ai1
EndChar

StartChar: ml_o
Encoding: 60 3346 61
Width: 1171
GlyphClass: 2
Flags: W
LayerCount: 2
Fore
SplineSet
255 492 m 1,0,1
 330 571 330 571 449.5 571 c 128,-1,2
 569 571 569 571 643.5 484 c 128,-1,3
 718 397 718 397 718 273 c 128,-1,4
 718 149 718 149 636.5 63.5 c 128,-1,5
 555 -22 555 -22 432 -22 c 0,6,7
 282 -22 282 -22 202 110 c 0,8,9
 136 218 136 218 136 365 c 0,10,11
 136 638 136 638 296 780.5 c 128,-1,12
 456 923 456 923 720 923 c 0,13,14
 873 923 873 923 1004 856 c 0,15,16
 1097 808 1097 808 1138 724 c 0,17,18
 1158 682 1158 682 1158 641 c 0,19,20
 1158 573 1158 573 1120 523 c 128,-1,21
 1082 473 1082 473 1027 446 c 1,22,23
 1126 414 1126 414 1160 314 c 0,24,25
 1170 283 1170 283 1170 237 c 0,26,27
 1170 133 1170 133 1096 57 c 128,-1,28
 1022 -19 1022 -19 904 -19 c 0,29,30
 830 -19 830 -19 772 1 c 1,31,-1
 725 178 l 1,32,33
 774 96 774 96 855 96 c 0,34,35
 903 96 903 96 934 138.5 c 128,-1,36
 965 181 965 181 965 230 c 0,37,38
 965 319 965 319 895 344 c 0,39,40
 854 359 854 359 786 359 c 2,41,-1
 747 359 l 1,42,-1
 747 518 l 1,43,-1
 784 518 l 1,44,-1
 817 520 l 1,45,-1
 844 524 l 1,46,-1
 867 533 l 1,47,48
 907 555 907 555 907 640 c 0,49,50
 907 705 907 705 815 741 c 0,51,52
 747 768 747 768 670 768 c 0,53,54
 513 768 513 768 403 701 c 128,-1,55
 293 634 293 634 255 492 c 1,0,1
292 171.5 m 128,-1,57
 332 123 332 123 395 123 c 128,-1,58
 458 123 458 123 493 170.5 c 128,-1,59
 528 218 528 218 528 283 c 128,-1,60
 528 348 528 348 491 397.5 c 128,-1,61
 454 447 454 447 390.5 447 c 128,-1,62
 327 447 327 447 289.5 401 c 128,-1,63
 252 355 252 355 252 287.5 c 128,-1,56
 252 220 252 220 292 171.5 c 128,-1,57
EndSplineSet
Validated: 1
EndChar

StartChar: ml_oo
Encoding: 61 3347 62
Width: 1911
GlyphClass: 2
Flags: W
LayerCount: 2
Fore
SplineSet
1830 128 m 0,0,1
 1735 -23 1735 -23 1557 -23 c 0,2,3
 1425 -23 1425 -23 1336.5 64 c 128,-1,4
 1248 151 1248 151 1248 283 c 2,5,-1
 1248 301 l 1,6,-1
 1250 320 l 1,7,-1
 1345 320 l 1,8,9
 1359 209 1359 209 1440 166 c 0,10,11
 1468 151 1468 151 1512.5 151 c 128,-1,12
 1557 151 1557 151 1592 181 c 0,13,14
 1685 261 1685 261 1685 436.5 c 128,-1,15
 1685 612 1685 612 1612 702 c 0,16,17
 1566 757 1566 757 1497.5 757 c 128,-1,18
 1429 757 1429 757 1388 700 c 128,-1,19
 1347 643 1347 643 1345 571 c 1,20,-1
 1250 571 l 1,21,22
 1248 581 1248 581 1248 590 c 2,23,-1
 1248 608 l 2,24,25
 1248 740 1248 740 1335.5 827.5 c 128,-1,26
 1423 915 1423 915 1537.5 915 c 128,-1,27
 1652 915 1652 915 1719.5 872.5 c 128,-1,28
 1787 830 1787 830 1830 762 c 0,29,30
 1910 633 1910 633 1910 444.5 c 128,-1,31
 1910 256 1910 256 1830 128 c 0,0,1
255 492 m 1,32,33
 330 571 330 571 450 571 c 128,-1,34
 570 571 570 571 645.5 484 c 128,-1,35
 721 397 721 397 721 273 c 128,-1,36
 721 149 721 149 639 63.5 c 128,-1,37
 557 -22 557 -22 433 -22 c 0,38,39
 283 -22 283 -22 202 109 c 0,40,41
 136 218 136 218 136 365 c 0,42,43
 136 640 136 640 297.5 781.5 c 128,-1,44
 459 923 459 923 723 923 c 0,45,46
 881 923 881 923 1008 856 c 0,47,48
 1163 776 1163 776 1163 629 c 0,49,50
 1163 543 1163 543 1080 477 c 0,51,52
 1056 458 1056 458 1031 446 c 1,53,54
 1128 415 1128 415 1164 314 c 0,55,56
 1175 283 1175 283 1175 237 c 0,57,58
 1175 131 1175 131 1100 56 c 128,-1,59
 1025 -19 1025 -19 908 -19 c 0,60,61
 833 -19 833 -19 775 1 c 1,62,-1
 728 178 l 1,63,64
 777 96 777 96 859 96 c 0,65,66
 906 96 906 96 937.5 138.5 c 128,-1,67
 969 181 969 181 969 230 c 0,68,69
 969 320 969 320 898 344 c 0,70,71
 857 359 857 359 790 359 c 2,72,-1
 750 359 l 1,73,-1
 750 518 l 1,74,-1
 788 518 l 1,75,-1
 820 520 l 1,76,-1
 848 524 l 1,77,-1
 870 533 l 1,78,79
 911 556 911 556 911 640 c 0,80,81
 911 704 911 704 818 741 c 0,82,83
 750 768 750 768 672 768 c 0,84,85
 333 768 333 768 255 492 c 1,32,33
521 341 m 128,-1,87
 512 371 512 371 495 394.5 c 128,-1,88
 478 418 478 418 452.5 432.5 c 128,-1,89
 427 447 427 447 393 447 c 128,-1,90
 359 447 359 447 332.5 434 c 128,-1,91
 306 421 306 421 288 399 c 128,-1,92
 270 377 270 377 261 348 c 128,-1,93
 252 319 252 319 252 287 c 0,94,95
 252 220 252 220 292 171.5 c 128,-1,96
 332 123 332 123 395.5 123 c 128,-1,97
 459 123 459 123 494.5 170.5 c 128,-1,98
 530 218 530 218 530 264.5 c 128,-1,86
 530 311 530 311 521 341 c 128,-1,87
EndSplineSet
Validated: 1
EndChar

StartChar: ml_au
Encoding: 62 3348 63
Width: 2354
GlyphClass: 2
Flags: W
LayerCount: 2
Fore
SplineSet
1371 365 m 1,0,-1
 1264 365 l 1,1,2
 1245 434 1245 434 1245 506 c 0,3,4
 1245 667 1245 667 1318 778.5 c 128,-1,5
 1391 890 1391 890 1545.5 890 c 128,-1,6
 1700 890 1700 890 1762 758 c 1,7,8
 1809 852 1809 852 1922 879 c 0,9,10
 1956 887 1956 887 1991 887 c 0,11,12
 2165 887 2165 887 2257 755 c 128,-1,13
 2349 623 2349 623 2349 430.5 c 128,-1,14
 2349 238 2349 238 2223 113.5 c 128,-1,15
 2097 -11 2097 -11 1895 -11 c 0,16,17
 1750 -11 1750 -11 1646 65.5 c 128,-1,18
 1542 142 1542 142 1538 283 c 1,19,-1
 1629 283 l 1,20,21
 1644 160 1644 160 1758 121 c 0,22,23
 1793 109 1793 109 1849 109 c 128,-1,24
 1905 109 1905 109 1959.5 138 c 128,-1,25
 2014 167 2014 167 2050 215 c 0,26,27
 2122 311 2122 311 2122 435.5 c 128,-1,28
 2122 560 2122 560 2090.5 625 c 128,-1,29
 2059 690 2059 690 2024 721 c 128,-1,30
 1989 752 1989 752 1940.5 752 c 128,-1,31
 1892 752 1892 752 1862 726.5 c 128,-1,32
 1832 701 1832 701 1832 653 c 2,33,-1
 1832 358 l 1,34,-1
 1641 358 l 1,35,-1
 1641 599 l 2,36,37
 1641 742 1641 742 1505 742 c 0,38,39
 1422 742 1422 742 1378 656 c 0,40,41
 1345 590 1345 590 1345 507 c 128,-1,42
 1345 424 1345 424 1371 365 c 1,0,-1
255 492 m 1,43,44
 330 571 330 571 450.5 571 c 128,-1,45
 571 571 571 571 646.5 484 c 128,-1,46
 722 397 722 397 722 273.5 c 128,-1,47
 722 150 722 150 639.5 64 c 128,-1,48
 557 -22 557 -22 434 -22 c 0,49,50
 282 -22 282 -22 203 109 c 0,51,52
 136 220 136 220 136 367 c 0,53,54
 136 640 136 640 297.5 781.5 c 128,-1,55
 459 923 459 923 723 923 c 0,56,57
 882 923 882 923 1009 856 c 0,58,59
 1164 776 1164 776 1164 629 c 0,60,61
 1164 542 1164 542 1082 477 c 0,62,63
 1058 458 1058 458 1032 446 c 1,64,65
 1094 426 1094 426 1135 371.5 c 128,-1,66
 1176 317 1176 317 1176 254 c 0,67,68
 1176 131 1176 131 1101 56 c 128,-1,69
 1026 -19 1026 -19 909 -19 c 0,70,71
 834 -19 834 -19 776 1 c 1,72,-1
 729 178 l 1,73,74
 778 96 778 96 860 96 c 0,75,76
 907 96 907 96 938.5 138.5 c 128,-1,77
 970 181 970 181 970 230 c 0,78,79
 970 320 970 320 899 344 c 0,80,81
 858 359 858 359 790 359 c 2,82,-1
 751 359 l 1,83,-1
 751 518 l 1,84,-1
 788 518 l 1,85,-1
 821 520 l 1,86,-1
 848 524 l 1,87,-1
 871 533 l 1,88,89
 912 556 912 556 912 640 c 0,90,91
 912 704 912 704 819 741 c 0,92,93
 751 768 751 768 673 768 c 0,94,95
 515 768 515 768 405 701 c 128,-1,96
 295 634 295 634 255 492 c 1,43,44
293 171.5 m 128,-1,98
 334 123 334 123 397 123 c 128,-1,99
 460 123 460 123 495.5 170.5 c 128,-1,100
 531 218 531 218 531 282 c 128,-1,101
 531 346 531 346 494.5 396.5 c 128,-1,102
 458 447 458 447 392.5 447 c 128,-1,103
 327 447 327 447 289.5 401 c 128,-1,104
 252 355 252 355 252 287.5 c 128,-1,97
 252 220 252 220 293 171.5 c 128,-1,98
EndSplineSet
Validated: 1
AlternateSubs2: "'aalt' Access All Alternates lookup 14 subtable" au2
EndChar

StartChar: k1
Encoding: 63 3349 64
Width: 1594
GlyphClass: 2
Flags: W
AnchorPoint: "Anchor-0" 860 1080 basechar 0
LayerCount: 2
Fore
SplineSet
618 104 m 1,0,1
 545 -19 545 -19 417.5 -19 c 128,-1,2
 290 -19 290 -19 211 72 c 128,-1,3
 132 163 132 163 132 290 c 0,4,5
 132 498 132 498 335 528 c 0,6,7
 396 537 396 537 456 537 c 128,-1,8
 516 537 516 537 552 536 c 1,9,10
 554 682 554 682 633.5 799.5 c 128,-1,11
 713 917 713 917 854.5 917 c 128,-1,12
 996 917 996 917 1093.5 801.5 c 128,-1,13
 1191 686 1191 686 1193 536 c 1,14,-1
 1303 536 l 2,15,16
 1438 536 1438 536 1515 468 c 128,-1,17
 1592 400 1592 400 1592 261 c 0,18,19
 1592 63 1592 63 1436 1 c 0,20,21
 1386 -19 1386 -19 1327.5 -19 c 128,-1,22
 1269 -19 1269 -19 1214 12 c 1,23,-1
 1196 134 l 1,24,25
 1234 107 1234 107 1269 107 c 0,26,27
 1331 107 1331 107 1357 158 c 128,-1,28
 1383 209 1383 209 1383 261 c 0,29,30
 1383 344 1383 344 1338 394.5 c 128,-1,31
 1293 445 1293 445 1232 445 c 2,32,-1
 1204 445 l 1,33,34
 1200 262 1200 262 1125 134 c 0,35,36
 1034 -19 1034 -19 861 -19 c 0,37,38
 781 -19 781 -19 722 8.5 c 128,-1,39
 663 36 663 36 618 104 c 1,0,1
974 536 m 1,40,41
 974 679 974 679 896 738 c 0,42,43
 868 759 868 759 824 759 c 0,44,45
 742 759 742 759 694 691 c 128,-1,46
 646 623 646 623 644 536 c 1,47,-1
 974 536 l 1,40,41
821 126 m 0,48,49
 975 126 975 126 975 400 c 2,50,-1
 975 445 l 1,51,-1
 640 445 l 1,52,53
 638 437 638 437 638 429 c 2,54,-1
 638 413 l 2,55,56
 638 309 638 309 669 246.5 c 128,-1,57
 700 184 700 184 735 155 c 128,-1,58
 770 126 770 126 821 126 c 0,48,49
551 292 m 2,59,-1
 551 445 l 1,60,-1
 510 445 l 2,61,62
 448 445 448 445 399 402.5 c 128,-1,63
 350 360 350 360 350 286 c 128,-1,64
 350 212 350 212 407 170 c 0,65,66
 426 156 426 156 452 156 c 0,67,68
 500 156 500 156 525.5 198 c 128,-1,69
 551 240 551 240 551 292 c 2,59,-1
EndSplineSet
Validated: 1
EndChar

StartChar: k2
Encoding: 64 3350 65
Width: 1513
GlyphClass: 2
Flags: W
AnchorPoint: "Anchor-0" 900 1080 basechar 0
LayerCount: 2
Fore
SplineSet
740 70 m 1,0,1
 878 160 878 160 878 385 c 0,2,3
 878 520 878 520 793 621.5 c 128,-1,4
 708 723 708 723 560 723 c 0,5,6
 452 723 452 723 368.5 660.5 c 128,-1,7
 285 598 285 598 255 493 c 1,8,9
 333 571 333 571 451.5 571 c 128,-1,10
 570 571 570 571 645 483.5 c 128,-1,11
 720 396 720 396 720 271 c 128,-1,12
 720 146 720 146 644 61.5 c 128,-1,13
 568 -23 568 -23 445 -23 c 0,14,15
 296 -23 296 -23 216 99 c 128,-1,16
 136 221 136 221 136 355 c 0,17,18
 136 611 136 611 265.5 767.5 c 128,-1,19
 395 924 395 924 611.5 924 c 128,-1,20
 828 924 828 924 966 784.5 c 128,-1,21
 1104 645 1104 645 1104 445.5 c 128,-1,22
 1104 246 1104 246 972 99 c 1,23,-1
 1283 99 l 1,24,-1
 1283 895 l 1,25,-1
 1512 895 l 1,26,-1
 1512 -8 l 1,27,-1
 741 -8 l 1,28,-1
 740 70 l 1,0,1
292 171.5 m 128,-1,30
 332 123 332 123 395.5 123 c 128,-1,31
 459 123 459 123 494.5 170.5 c 128,-1,32
 530 218 530 218 530 282 c 128,-1,33
 530 346 530 346 493.5 396.5 c 128,-1,34
 457 447 457 447 392 447 c 128,-1,35
 327 447 327 447 289.5 401 c 128,-1,36
 252 355 252 355 252 287.5 c 128,-1,29
 252 220 252 220 292 171.5 c 128,-1,30
EndSplineSet
Validated: 1
EndChar

StartChar: k3
Encoding: 65 3351 66
Width: 1390
GlyphClass: 2
Flags: W
AnchorPoint: "Anchor-0" 820 1080 basechar 0
LayerCount: 2
Fore
SplineSet
652 419 m 2,0,-1
 651 527 l 2,1,2
 651 698 651 698 746 807.5 c 128,-1,3
 841 917 841 917 1014.5 917 c 128,-1,4
 1188 917 1188 917 1290 783.5 c 128,-1,5
 1392 650 1392 650 1392 467 c 0,6,7
 1392 210 1392 210 1224 60 c 0,8,9
 1167 9 1167 9 1091 -24 c 1,10,-1
 1033 51 l 1,11,12
 1261 165 1261 165 1261 427 c 0,13,14
 1261 626 1261 626 1148 710 c 0,15,16
 1107 741 1107 741 1048 741 c 0,17,18
 942 741 942 741 902 640 c 0,19,20
 875 574 875 574 875 447 c 2,21,-1
 878 314 l 2,22,23
 878 170 878 170 779 75 c 128,-1,24
 680 -20 680 -20 533 -20 c 0,25,26
 348 -20 348 -20 240.5 120.5 c 128,-1,27
 133 261 133 261 133 430 c 0,28,29
 133 770 133 770 394 918 c 1,30,-1
 447 827 l 1,31,32
 263 716 263 716 263 495 c 0,33,34
 263 372 263 372 318 273 c 0,35,36
 385 154 385 154 488.5 154 c 128,-1,37
 592 154 592 154 626 240 c 0,38,39
 652 307 652 307 652 419 c 2,0,-1
EndSplineSet
Validated: 1
EndChar

StartChar: k4
Encoding: 66 3352 67
Width: 2166
GlyphClass: 2
Flags: W
AnchorPoint: "Anchor-0" 1080 1080 basechar 0
LayerCount: 2
Fore
SplineSet
703 405 m 1,0,-1
 889 406 l 1,1,-1
 889 459 l 2,2,3
 889 658 889 658 1000.5 789.5 c 128,-1,4
 1112 921 1112 921 1309.5 921 c 128,-1,5
 1507 921 1507 921 1629 786.5 c 128,-1,6
 1751 652 1751 652 1751 449 c 2,7,-1
 1751 300 l 1,8,-1
 1111 300 l 1,9,-1
 1111 109 l 1,10,-1
 1937 109 l 1,11,-1
 1937 897 l 1,12,-1
 2163 897 l 1,13,-1
 2163 0 l 1,14,-1
 889 0 l 1,15,-1
 889 294 l 1,16,-1
 514 292 l 1,17,-1
 514 354 l 1,18,19
 582 401 582 401 582 510.5 c 128,-1,20
 582 620 582 620 482 665 c 0,21,22
 450 679 450 679 412 679 c 0,23,24
 336 679 336 679 292 626.5 c 128,-1,25
 248 574 248 574 248 498 c 0,26,27
 248 386 248 386 321 334 c 1,28,-1
 260 282 l 1,29,30
 135 383 135 383 135 537 c 128,-1,31
 135 691 135 691 224 784 c 128,-1,32
 313 877 313 877 449.5 877 c 128,-1,33
 586 877 586 877 675 793.5 c 128,-1,34
 764 710 764 710 764 586 c 128,-1,35
 764 462 764 462 703 405 c 1,0,-1
1631 406 m 1,36,-1
 1631 484 l 2,37,38
 1631 606 1631 606 1557 688.5 c 128,-1,39
 1483 771 1483 771 1367.5 771 c 128,-1,40
 1252 771 1252 771 1181.5 698.5 c 128,-1,41
 1111 626 1111 626 1111 515 c 2,42,-1
 1111 406 l 1,43,-1
 1631 406 l 1,36,-1
EndSplineSet
Validated: 1
EndChar

StartChar: ng
Encoding: 67 3353 68
Width: 1618
GlyphClass: 2
Flags: W
AnchorPoint: "Anchor-0" 980 1076 basechar 0
LayerCount: 2
Fore
SplineSet
940 793 m 1,0,1
 1012 918 1012 918 1243 918 c 0,2,3
 1380 918 1380 918 1491.5 851 c 128,-1,4
 1603 784 1603 784 1603 654 c 0,5,6
 1603 592 1603 592 1568 544.5 c 128,-1,7
 1533 497 1533 497 1477 475 c 1,8,9
 1543 449 1543 449 1580.5 391 c 128,-1,10
 1618 333 1618 333 1618 263 c 0,11,12
 1618 131 1618 131 1523.5 53 c 128,-1,13
 1429 -25 1429 -25 1313.5 -25 c 128,-1,14
 1198 -25 1198 -25 1131 0 c 1,15,-1
 1116 111 l 1,16,17
 1183 82 1183 82 1226 82 c 0,18,19
 1299 82 1299 82 1341 130.5 c 128,-1,20
 1383 179 1383 179 1383 228 c 0,21,22
 1383 307 1383 307 1337 335.5 c 128,-1,23
 1291 364 1291 364 1188 364 c 2,24,-1
 1149 364 l 1,25,-1
 1149 530 l 1,26,27
 1227 533 1227 533 1250 533 c 0,28,29
 1296 533 1296 533 1330 569 c 128,-1,30
 1364 605 1364 605 1364 644 c 0,31,32
 1364 711 1364 711 1314 748 c 0,33,34
 1243 802 1243 802 1134 774 c 0,35,36
 1062 755 1062 755 1031 698 c 0,37,38
 1015 668 1015 668 1015 628 c 2,39,-1
 1015 -1 l 1,40,-1
 810 -1 l 1,41,-1
 810 578 l 2,42,43
 810 671 810 671 742.5 714 c 128,-1,44
 675 757 675 757 594 757 c 0,45,46
 456 757 456 757 371 683.5 c 128,-1,47
 286 610 286 610 253 492 c 1,48,49
 330 571 330 571 450 571 c 128,-1,50
 570 571 570 571 644 483 c 128,-1,51
 718 395 718 395 718 272 c 128,-1,52
 718 149 718 149 636 63.5 c 128,-1,53
 554 -22 554 -22 431 -22 c 0,54,55
 233 -22 233 -22 162 194 c 0,56,57
 134 281 134 281 134 386 c 0,58,59
 134 608 134 608 274 763 c 128,-1,60
 414 918 414 918 633.5 918 c 128,-1,61
 853 918 853 918 940 793 c 1,0,1
290 171.5 m 128,-1,63
 330 123 330 123 393.5 123 c 128,-1,64
 457 123 457 123 492.5 170.5 c 128,-1,65
 528 218 528 218 528 282 c 128,-1,66
 528 346 528 346 491.5 396.5 c 128,-1,67
 455 447 455 447 390 447 c 128,-1,68
 325 447 325 447 287.5 401 c 128,-1,69
 250 355 250 355 250 287.5 c 128,-1,62
 250 220 250 220 290 171.5 c 128,-1,63
EndSplineSet
Validated: 33
EndChar

StartChar: ch1
Encoding: 68 3354 69
Width: 1415
GlyphClass: 2
Flags: W
AnchorPoint: "Anchor-0" 860 1076 basechar 0
LayerCount: 2
Fore
SplineSet
328 240 m 1,0,1
 300 298 300 298 300 367 c 0,2,3
 300 498 300 498 385.5 574 c 128,-1,4
 471 650 471 650 602 650 c 128,-1,5
 733 650 733 650 831 563.5 c 128,-1,6
 929 477 929 477 929 354 c 128,-1,7
 929 231 929 231 870 153 c 0,8,9
 849 126 849 126 821 108 c 1,10,-1
 1184 108 l 1,11,-1
 1184 895 l 1,12,-1
 1411 895 l 1,13,-1
 1411 0 l 1,14,-1
 92 0 l 1,15,-1
 92 108 l 1,16,-1
 518 108 l 2,17,18
 598 108 598 108 640.5 175 c 128,-1,19
 683 242 683 242 683 333.5 c 128,-1,20
 683 425 683 425 616 463 c 0,21,22
 593 476 593 476 562 476 c 0,23,24
 501 476 501 476 460.5 433.5 c 128,-1,25
 420 391 420 391 420 337.5 c 128,-1,26
 420 284 420 284 447 240 c 1,27,-1
 328 240 l 1,0,1
EndSplineSet
Validated: 1
EndChar

StartChar: ch2
Encoding: 69 3355 70
Width: 1910
GlyphClass: 2
Flags: W
AnchorPoint: "Anchor-0" 980 1080 basechar 0
LayerCount: 2
Fore
SplineSet
1074 108 m 1,0,1
 990 236 990 236 990 440.5 c 128,-1,2
 990 645 990 645 1104 782 c 128,-1,3
 1218 919 1218 919 1425 919 c 128,-1,4
 1632 919 1632 919 1769 776.5 c 128,-1,5
 1906 634 1906 634 1906 426 c 0,6,7
 1906 257 1906 257 1834 130 c 0,8,9
 1747 -20 1747 -20 1597 -20 c 128,-1,10
 1447 -20 1447 -20 1369 96.5 c 128,-1,11
 1291 213 1291 213 1291 371.5 c 128,-1,12
 1291 530 1291 530 1410 652 c 0,13,14
 1448 691 1448 691 1496 720 c 1,15,16
 1441 745 1441 745 1378 745 c 128,-1,17
 1315 745 1315 745 1265 709.5 c 128,-1,18
 1215 674 1215 674 1184 620 c 0,19,20
 1122 513 1122 513 1122 377 c 0,21,22
 1122 176 1122 176 1245 55 c 1,23,-1
 1245 0 l 1,24,-1
 82 0 l 1,25,-1
 82 108 l 1,26,-1
 469 108 l 2,27,28
 548 108 548 108 591.5 175 c 128,-1,29
 635 242 635 242 635 333.5 c 128,-1,30
 635 425 635 425 567 463 c 0,31,32
 544 476 544 476 513 476 c 0,33,34
 451 476 451 476 411 432.5 c 128,-1,35
 371 389 371 389 371 336.5 c 128,-1,36
 371 284 371 284 398 240 c 1,37,-1
 279 240 l 1,38,39
 250 300 250 300 250 368 c 0,40,41
 250 497 250 497 336 573.5 c 128,-1,42
 422 650 422 650 554 650 c 128,-1,43
 686 650 686 650 783.5 563 c 128,-1,44
 881 476 881 476 881 353.5 c 128,-1,45
 881 231 881 231 822 153 c 0,46,47
 801 126 801 126 773 108 c 1,48,-1
 1074 108 l 1,0,1
1561 181 m 0,49,50
 1676 181 1676 181 1676 422 c 0,51,52
 1676 528 1676 528 1603 629 c 1,53,54
 1467 591 1467 591 1430 457 c 0,55,56
 1419 415 1419 415 1419 375.5 c 128,-1,57
 1419 336 1419 336 1427 302.5 c 128,-1,58
 1435 269 1435 269 1452 242 c 0,59,60
 1490 181 1490 181 1561 181 c 0,49,50
EndSplineSet
Validated: 1
EndChar

StartChar: ch3
Encoding: 70 3356 71
Width: 1433
GlyphClass: 2
Flags: W
AnchorPoint: "Anchor-0" 820 1080 basechar 0
LayerCount: 2
Fore
SplineSet
820 797 m 1,0,1
 896 916 896 916 1084 916 c 0,2,3
 1221 916 1221 916 1326 824 c 128,-1,4
 1431 732 1431 732 1431 596 c 0,5,6
 1431 432 1431 432 1303 365 c 0,7,8
 1206 314 1206 314 1029 314 c 2,9,-1
 571 314 l 2,10,11
 453 314 453 314 396 258 c 0,12,13
 374 237 374 237 374 214 c 0,14,15
 374 176 374 176 399.5 154 c 128,-1,16
 425 132 425 132 454 132 c 0,17,18
 574 132 574 132 735 189 c 0,19,20
 803 213 803 213 870.5 239.5 c 128,-1,21
 938 266 938 266 1025.5 290 c 128,-1,22
 1113 314 1113 314 1189.5 314 c 128,-1,23
 1266 314 1266 314 1300.5 301 c 128,-1,24
 1335 288 1335 288 1362 265 c 0,25,26
 1424 214 1424 214 1424 154 c 0,27,28
 1424 53 1424 53 1359 9 c 128,-1,29
 1294 -35 1294 -35 1209 -35 c 128,-1,30
 1124 -35 1124 -35 1063 10 c 128,-1,31
 1002 55 1002 55 1002 133 c 0,32,33
 1002 170 1002 170 1016 195 c 1,34,35
 940 166 940 166 865 128 c 128,-1,36
 790 90 790 90 714 56 c 0,37,38
 532 -23 532 -23 416.5 -23 c 128,-1,39
 301 -23 301 -23 225.5 36 c 128,-1,40
 150 95 150 95 150 185 c 0,41,42
 150 329 150 329 302 362 c 0,43,44
 371 378 371 378 502 378 c 2,45,-1
 974 378 l 2,46,47
 1068 378 1068 378 1125 445.5 c 128,-1,48
 1182 513 1182 513 1182 597.5 c 128,-1,49
 1182 682 1182 682 1152 720 c 0,50,51
 1099 790 1099 790 1039.5 790 c 128,-1,52
 980 790 980 790 947 765 c 0,53,54
 887 719 887 719 887 669 c 2,55,-1
 887 416 l 1,56,-1
 696 416 l 1,57,-1
 696 672 l 2,58,59
 696 749 696 749 616 786 c 0,60,61
 553 815 553 815 462.5 815 c 128,-1,62
 372 815 372 815 317 774 c 1,63,64
 347 779 347 779 377 779 c 0,65,66
 453 779 453 779 513.5 727 c 128,-1,67
 574 675 574 675 574 585.5 c 128,-1,68
 574 496 574 496 509 441.5 c 128,-1,69
 444 387 444 387 349.5 387 c 128,-1,70
 255 387 255 387 194.5 446 c 128,-1,71
 134 505 134 505 134 592 c 0,72,73
 134 746 134 746 258 832 c 128,-1,74
 382 918 382 918 534 918 c 0,75,76
 728 918 728 918 820 797 c 1,0,1
1275 156 m 0,77,78
 1275 194 1275 194 1236.5 227.5 c 128,-1,79
 1198 261 1198 261 1137 239 c 128,-1,80
 1076 217 1076 217 1076 156 c 0,81,82
 1076 119 1076 119 1098 99 c 0,83,84
 1153 52 1153 52 1214 74 c 128,-1,85
 1275 96 1275 96 1275 156 c 0,77,78
414 605 m 128,-1,87
 414 623 414 623 407 640 c 128,-1,88
 400 657 400 657 388 670 c 128,-1,89
 376 683 376 683 359.5 690.5 c 128,-1,90
 343 698 343 698 324 698 c 128,-1,91
 305 698 305 698 289 690.5 c 128,-1,92
 273 683 273 683 261 670 c 128,-1,93
 249 657 249 657 242 640 c 128,-1,94
 235 623 235 623 235 605 c 128,-1,95
 235 587 235 587 242 570 c 128,-1,96
 249 553 249 553 261 540 c 128,-1,97
 273 527 273 527 289 519 c 128,-1,98
 305 511 305 511 324 511 c 128,-1,99
 343 511 343 511 359.5 519 c 128,-1,100
 376 527 376 527 388 540 c 128,-1,101
 400 553 400 553 407 570 c 128,-1,86
 414 587 414 587 414 605 c 128,-1,87
EndSplineSet
Validated: 33
EndChar

StartChar: ch4
Encoding: 71 3357 72
Width: 2546
GlyphClass: 2
Flags: W
AnchorPoint: "Anchor-0" 1460 1080 basechar 0
LayerCount: 2
Fore
SplineSet
2284 921 m 1,0,1
 2543 773 2543 773 2543 452 c 0,2,3
 2543 268 2543 268 2443 125.5 c 128,-1,4
 2343 -17 2343 -17 2153 -17 c 128,-1,5
 1963 -17 1963 -17 1879 97 c 1,6,7
 1800 2 1800 2 1672 -12 c 0,8,9
 1631 -17 1631 -17 1576 -17 c 0,10,11
 1439 -17 1439 -17 1339.5 48.5 c 128,-1,12
 1240 114 1240 114 1240 258 c 2,13,-1
 1240 556 l 2,14,15
 1240 655 1240 655 1172.5 712 c 128,-1,16
 1105 769 1105 769 1003 769 c 0,17,18
 975 769 975 769 951 762 c 1,19,20
 1083 620 1083 620 1083 440 c 128,-1,21
 1083 260 1083 260 1010 130 c 0,22,23
 925 -20 925 -20 775.5 -20 c 128,-1,24
 626 -20 626 -20 550 116 c 0,25,26
 487 229 487 229 487 352 c 0,27,28
 487 595 487 595 640 732 c 1,29,30
 602 745 602 745 547 745 c 128,-1,31
 492 745 492 745 438 710.5 c 128,-1,32
 384 676 384 676 346 622 c 0,33,34
 268 511 268 511 268 377 c 0,35,36
 268 153 268 153 422 25 c 1,37,-1
 333 -24 l 1,38,39
 136 137 136 137 136 434 c 0,40,41
 136 643 136 643 265.5 781 c 128,-1,42
 395 919 395 919 602 919 c 0,43,44
 723 919 723 919 829 865 c 1,45,46
 935 918 935 918 1040 918 c 0,47,48
 1224 918 1224 918 1333 824 c 128,-1,49
 1442 730 1442 730 1442 575 c 2,50,-1
 1442 274 l 2,51,52
 1442 199 1442 199 1489.5 146 c 128,-1,53
 1537 93 1537 93 1599 93 c 0,54,55
 1708 93 1708 93 1753.5 151.5 c 128,-1,56
 1799 210 1799 210 1799 308 c 2,57,-1
 1799 896 l 1,58,-1
 1999 896 l 1,59,-1
 1999 386 l 2,60,61
 1999 276 1999 276 2019 232 c 0,62,63
 2060 143 2060 143 2153 143 c 0,64,65
 2271 143 2271 143 2341 259 c 128,-1,66
 2411 375 2411 375 2411 518.5 c 128,-1,67
 2411 662 2411 662 2290 792 c 0,68,69
 2253 831 2253 831 2209 861 c 1,70,-1
 2284 921 l 1,0,1
616 403 m 0,71,72
 616 181 616 181 737 181 c 0,73,74
 853 181 853 181 853 397 c 0,75,76
 853 581 853 581 746 677 c 1,77,78
 651 611 651 611 624 478 c 0,79,80
 616 438 616 438 616 403 c 0,71,72
EndSplineSet
Validated: 1
EndChar

StartChar: nj
Encoding: 72 3358 73
Width: 2210
GlyphClass: 2
Flags: W
AnchorPoint: "Anchor-0" 1080 1080 basechar 0
LayerCount: 2
Fore
SplineSet
1534 865 m 1,0,1
 1640 918 1640 918 1756 918 c 0,2,3
 1969 918 1969 918 2090 789.5 c 128,-1,4
 2211 661 2211 661 2211 464 c 0,5,6
 2211 312 2211 312 2126.5 178.5 c 128,-1,7
 2042 45 2042 45 1904 -21 c 1,8,-1
 1835 59 l 1,9,10
 1992 186 1992 186 1992 429 c 0,11,12
 1992 557 1992 557 1917.5 666 c 128,-1,13
 1843 775 1843 775 1720 775 c 0,14,15
 1689 775 1689 775 1657 771 c 1,16,17
 1788 630 1788 630 1788 443.5 c 128,-1,18
 1788 257 1788 257 1716 130 c 0,19,20
 1629 -20 1629 -20 1480 -20 c 128,-1,21
 1331 -20 1331 -20 1255 116 c 0,22,23
 1193 227 1193 227 1193 354 c 0,24,25
 1193 592 1193 592 1358 744 c 1,26,27
 1308 775 1308 775 1225.5 775 c 128,-1,28
 1143 775 1143 775 1099.5 732.5 c 128,-1,29
 1056 690 1056 690 1056 617 c 2,30,-1
 1056 0 l 1,31,-1
 855 0 l 1,32,-1
 855 527 l 2,33,34
 855 758 855 758 573 758 c 0,35,36
 455 758 455 758 372 684 c 128,-1,37
 289 610 289 610 255 492 c 1,38,39
 330 571 330 571 450.5 571 c 128,-1,40
 571 571 571 571 646.5 484 c 128,-1,41
 722 397 722 397 722 271.5 c 128,-1,42
 722 146 722 146 646 61.5 c 128,-1,43
 570 -23 570 -23 446 -23 c 0,44,45
 296 -23 296 -23 216 99 c 128,-1,46
 136 221 136 221 136 354 c 0,47,48
 136 606 136 606 267.5 764 c 128,-1,49
 399 922 399 922 621 922 c 0,50,51
 742 922 742 922 800 906 c 0,52,53
 913 873 913 873 972 800 c 1,54,55
 1058 920 1058 920 1280 920 c 0,56,57
 1430 920 1430 920 1534 865 c 1,0,1
1555 330.5 m 128,-1,59
 1559 368 1559 368 1559 421.5 c 128,-1,60
 1559 475 1559 475 1530 549.5 c 128,-1,61
 1501 624 1501 624 1442 677 c 1,62,63
 1321 593 1321 593 1321 398 c 0,64,65
 1321 261 1321 261 1380 204 c 0,66,67
 1404 181 1404 181 1442.5 181 c 128,-1,68
 1481 181 1481 181 1504 204 c 128,-1,69
 1527 227 1527 227 1539 260 c 128,-1,58
 1551 293 1551 293 1555 330.5 c 128,-1,59
292 171.5 m 128,-1,71
 332 123 332 123 396 123 c 128,-1,72
 460 123 460 123 495.5 170.5 c 128,-1,73
 531 218 531 218 531 282 c 128,-1,74
 531 346 531 346 494.5 396.5 c 128,-1,75
 458 447 458 447 392.5 447 c 128,-1,76
 327 447 327 447 289.5 401 c 128,-1,77
 252 355 252 355 252 287.5 c 128,-1,70
 252 220 252 220 292 171.5 c 128,-1,71
EndSplineSet
Validated: 1
EndChar

StartChar: t1
Encoding: 73 3359 74
Width: 957
GlyphClass: 2
Flags: W
AnchorPoint: "Anchor-0" 545 1080 basechar 0
LayerCount: 2
Fore
SplineSet
750 236 m 0,0,1
 750 342 750 342 598 342 c 2,2,-1
 438 342 l 2,3,4
 230 342 230 342 160 486 c 0,5,6
 137 535 137 535 137 612 c 0,7,8
 137 763 137 763 258.5 844 c 128,-1,9
 380 925 380 925 532 925 c 128,-1,10
 684 925 684 925 757 902 c 0,11,12
 889 861 889 861 972 778 c 1,13,-1
 906 692 l 1,14,15
 805 813 805 813 589 813 c 0,16,17
 431 813 431 813 368 722 c 0,18,19
 346 689 346 689 346 653 c 0,20,21
 346 596 346 596 380.5 571.5 c 128,-1,22
 415 547 415 547 460 547 c 2,23,-1
 662 547 l 2,24,25
 868 547 868 547 932 398 c 0,26,27
 953 347 953 347 953 270 c 0,28,29
 953 123 953 123 827 44 c 0,30,31
 724 -22 724 -22 555 -22 c 0,32,33
 284 -22 284 -22 145 131 c 1,34,-1
 203 198 l 1,35,36
 300 88 300 88 528 88 c 0,37,38
 675 88 675 88 730 168 c 0,39,40
 750 198 750 198 750 236 c 0,0,1
EndSplineSet
Validated: 1
EndChar

StartChar: t2
Encoding: 74 3360 75
Width: 1033
GlyphClass: 2
Flags: W
AnchorPoint: "Anchor-0" 600 1080 basechar 0
LayerCount: 2
Fore
SplineSet
907 114.5 m 128,-1,1
 785 -17 785 -17 585 -17 c 128,-1,2
 385 -17 385 -17 261.5 114 c 128,-1,3
 138 245 138 245 138 445.5 c 128,-1,4
 138 646 138 646 261 780.5 c 128,-1,5
 384 915 384 915 584 915 c 128,-1,6
 784 915 784 915 906.5 783 c 128,-1,7
 1029 651 1029 651 1029 448.5 c 128,-1,0
 1029 246 1029 246 907 114.5 c 128,-1,1
728 661.5 m 128,-1,9
 651 748 651 748 522 748 c 128,-1,10
 393 748 393 748 311 662 c 128,-1,11
 229 576 229 576 229 444 c 128,-1,12
 229 312 229 312 310.5 225 c 128,-1,13
 392 138 392 138 522.5 138 c 128,-1,14
 653 138 653 138 729 224.5 c 128,-1,15
 805 311 805 311 805 443 c 128,-1,8
 805 575 805 575 728 661.5 c 128,-1,9
EndSplineSet
Validated: 1
EndChar

StartChar: t3
Encoding: 75 3361 76
Width: 1944
GlyphClass: 2
Flags: W
AnchorPoint: "Anchor-0" 1080 1080 basechar 0
LayerCount: 2
Fore
SplineSet
1682 921 m 1,0,1
 1944 790 1944 790 1944 457 c 0,2,3
 1944 280 1944 280 1846.5 131.5 c 128,-1,4
 1749 -17 1749 -17 1578 -17 c 0,5,6
 1375 -17 1375 -17 1297 106 c 1,7,8
 1221 -17 1221 -17 1002 -17 c 0,9,10
 847 -17 847 -17 755 76.5 c 128,-1,11
 663 170 663 170 663 324 c 2,12,-1
 663 541 l 2,13,14
 663 678 663 678 558 727 c 0,15,16
 523 743 523 743 479.5 743 c 128,-1,17
 436 743 436 743 403.5 726 c 128,-1,18
 371 709 371 709 346 681 c 0,19,20
 302 631 302 631 280.5 549 c 128,-1,21
 259 467 259 467 259 389 c 0,22,23
 259 166 259 166 434 40 c 1,24,-1
 377 -26 l 1,25,26
 135 117 135 117 135 444 c 0,27,28
 135 638 135 638 240 778 c 128,-1,29
 345 918 345 918 533 918 c 0,30,31
 669 918 669 918 772 816.5 c 128,-1,32
 875 715 875 715 875 582 c 2,33,-1
 875 345 l 2,34,35
 875 260 875 260 925.5 190.5 c 128,-1,36
 976 121 976 121 1050 121 c 128,-1,37
 1124 121 1124 121 1163.5 158 c 128,-1,38
 1203 195 1203 195 1203 264 c 2,39,-1
 1203 900 l 1,40,-1
 1404 900 l 1,41,-1
 1404 337 l 2,42,43
 1404 265 1404 265 1452 219 c 128,-1,44
 1500 173 1500 173 1568 173 c 0,45,46
 1688 173 1688 173 1750 276.5 c 128,-1,47
 1812 380 1812 380 1812 502 c 0,48,49
 1812 684 1812 684 1694 797 c 0,50,51
 1655 835 1655 835 1601 861 c 1,52,-1
 1682 921 l 1,0,1
EndSplineSet
Validated: 1
EndChar

StartChar: t4
Encoding: 76 3362 77
Width: 2067
GlyphClass: 2
Flags: W
AnchorPoint: "Anchor-0" 1080 1080 basechar 0
LayerCount: 2
Fore
SplineSet
1938 407 m 1,0,1
 1862 329 1862 329 1742 329 c 128,-1,2
 1622 329 1622 329 1547 416.5 c 128,-1,3
 1472 504 1472 504 1472 628 c 128,-1,4
 1472 752 1472 752 1556.5 838 c 128,-1,5
 1641 924 1641 924 1778.5 924 c 128,-1,6
 1916 924 1916 924 1991.5 805.5 c 128,-1,7
 2067 687 2067 687 2067 528 c 0,8,9
 2067 299 2067 299 1957 148 c 0,10,11
 1833 -21 1833 -21 1612 -21 c 0,12,13
 1489 -21 1489 -21 1430 -5 c 0,14,15
 1313 26 1313 26 1259 107 c 1,16,17
 1200 1 1200 1 1050 -13 c 0,18,19
 1007 -17 1007 -17 946.5 -17 c 128,-1,20
 886 -17 886 -17 824.5 7.5 c 128,-1,21
 763 32 763 32 721 77 c 0,22,23
 634 170 634 170 634 324 c 2,24,-1
 634 541 l 2,25,26
 634 680 634 680 537 727 c 0,27,28
 504 743 504 743 452 743 c 0,29,30
 355 743 355 743 299 633 c 0,31,32
 255 547 255 547 255 459 c 0,33,34
 255 166 255 166 456 46 c 1,35,-1
 397 -21 l 1,36,37
 133 115 133 115 133 483 c 0,38,39
 133 667 133 667 232 792.5 c 128,-1,40
 331 918 331 918 514 918 c 0,41,42
 647 918 647 918 747 818 c 128,-1,43
 847 718 847 718 847 582 c 2,44,-1
 847 345 l 2,45,46
 847 261 847 261 896.5 191 c 128,-1,47
 946 121 946 121 1015.5 121 c 128,-1,48
 1085 121 1085 121 1117 149 c 0,49,50
 1175 198 1175 198 1175 255 c 2,51,-1
 1175 900 l 1,52,-1
 1375 900 l 1,53,-1
 1375 366 l 2,54,55
 1375 272 1375 272 1447 214 c 128,-1,56
 1519 156 1519 156 1595 156 c 0,57,58
 1729 156 1729 156 1817.5 227.5 c 128,-1,59
 1906 299 1906 299 1938 407 c 1,0,1
1932 552 m 128,-1,61
 1941 581 1941 581 1941 612.5 c 128,-1,62
 1941 644 1941 644 1931 674 c 128,-1,63
 1921 704 1921 704 1902 726.5 c 128,-1,64
 1883 749 1883 749 1856 763 c 128,-1,65
 1829 777 1829 777 1796 777 c 128,-1,66
 1763 777 1763 777 1738.5 763.5 c 128,-1,67
 1714 750 1714 750 1697 727.5 c 128,-1,68
 1680 705 1680 705 1671.5 677 c 128,-1,69
 1663 649 1663 649 1663 619 c 128,-1,70
 1663 589 1663 589 1671.5 559 c 128,-1,71
 1680 529 1680 529 1697.5 505.5 c 128,-1,72
 1715 482 1715 482 1740.5 467.5 c 128,-1,73
 1766 453 1766 453 1800 453 c 128,-1,74
 1834 453 1834 453 1860.5 466 c 128,-1,75
 1887 479 1887 479 1905 501 c 128,-1,60
 1923 523 1923 523 1932 552 c 128,-1,61
EndSplineSet
Validated: 1
EndChar

StartChar: nh
Encoding: 77 3363 78
Width: 2207
GlyphClass: 2
Flags: W
AnchorPoint: "Anchor-0" 1200 1080 basechar 0
LayerCount: 2
Fore
SplineSet
1512 800 m 1,0,1
 1580 919 1580 919 1798 919 c 0,2,3
 1971 919 1971 919 2088.5 778.5 c 128,-1,4
 2206 638 2206 638 2206 462 c 0,5,6
 2206 214 2206 214 2034 62 c 0,7,8
 1977 13 1977 13 1904 -20 c 1,9,-1
 1819 50 l 1,10,11
 1993 172 1993 172 1993 426 c 0,12,13
 1993 557 1993 557 1924.5 658 c 128,-1,14
 1856 759 1856 759 1732 759 c 0,15,16
 1584 759 1584 759 1584 636 c 2,17,-1
 1584 0 l 1,18,-1
 1379 0 l 1,19,-1
 1379 636 l 2,20,21
 1379 694 1379 694 1332.5 725.5 c 128,-1,22
 1286 757 1286 757 1242 757 c 0,23,24
 1162 757 1162 757 1113.5 728.5 c 128,-1,25
 1065 700 1065 700 1065 646 c 2,26,-1
 1065 0 l 1,27,-1
 864 0 l 1,28,-1
 864 507 l 2,29,30
 864 697 864 697 702 734 c 0,31,32
 651 745 651 745 590 745 c 0,33,34
 472 745 472 745 380.5 675.5 c 128,-1,35
 289 606 289 606 255 492 c 1,36,37
 334 571 334 571 452 571 c 128,-1,38
 570 571 570 571 646 483.5 c 128,-1,39
 722 396 722 396 722 271.5 c 128,-1,40
 722 147 722 147 645.5 62 c 128,-1,41
 569 -23 569 -23 446 -23 c 0,42,43
 296 -23 296 -23 216 99 c 128,-1,44
 136 221 136 221 136 354 c 0,45,46
 136 600 136 600 288 759.5 c 128,-1,47
 440 919 440 919 660 919 c 128,-1,48
 880 919 880 919 993 802 c 1,49,50
 1061 918 1061 918 1245 918 c 128,-1,51
 1429 918 1429 918 1512 800 c 1,0,1
397 449 m 0,52,53
 297 449 297 449 264 349 c 0,54,55
 255 320 255 320 255 289 c 0,56,57
 255 225 255 225 295.5 175 c 128,-1,58
 336 125 336 125 399 125 c 128,-1,59
 462 125 462 125 498 173 c 128,-1,60
 534 221 534 221 534 284 c 128,-1,61
 534 347 534 347 497 398 c 128,-1,62
 460 449 460 449 397 449 c 0,52,53
EndSplineSet
Validated: 1
EndChar

StartChar: th1
Encoding: 78 3364 79
Width: 1562
GlyphClass: 2
Flags: W
AnchorPoint: "Anchor-0" 836 1080 basechar 0
LayerCount: 2
Fore
SplineSet
340 -25 m 1,0,1
 138 136 138 136 138 436 c 0,2,3
 138 521 138 521 173.5 614 c 128,-1,4
 209 707 209 707 274 776 c 0,5,6
 411 922 411 922 628 922 c 0,7,8
 759 922 759 922 875 863 c 1,9,10
 1004 922 1004 922 1112 922 c 0,11,12
 1316 922 1316 922 1439.5 789 c 128,-1,13
 1563 656 1563 656 1563 457 c 0,14,15
 1563 197 1563 197 1374 50 c 0,16,17
 1313 2 1313 2 1234 -25 c 1,18,-1
 1158 44 l 1,19,20
 1349 162 1349 162 1349 426 c 0,21,22
 1349 568 1349 568 1269 666 c 128,-1,23
 1189 764 1189 764 1047 764 c 0,24,25
 1028 764 1028 764 1001 759 c 1,26,27
 1133 619 1133 619 1133 438.5 c 128,-1,28
 1133 258 1133 258 1046.5 129.5 c 128,-1,29
 960 1 960 1 807.5 1 c 128,-1,30
 655 1 655 1 582 112.5 c 128,-1,31
 509 224 509 224 509 379 c 128,-1,32
 509 534 509 534 604 660 c 0,33,34
 635 701 635 701 675 734 c 1,35,36
 631 748 631 748 570.5 748 c 128,-1,37
 510 748 510 748 451 713.5 c 128,-1,38
 392 679 392 679 352 624 c 0,39,40
 270 510 270 510 270 361 c 0,41,42
 270 151 270 151 414 35 c 1,43,-1
 340 -25 l 1,0,1
643 398 m 0,44,45
 643 204 643 204 768 204 c 128,-1,46
 893 204 893 204 893 393 c 128,-1,47
 893 582 893 582 785 677 c 1,48,49
 681 609 681 609 652 475 c 0,50,51
 643 434 643 434 643 398 c 0,44,45
EndSplineSet
Validated: 1
EndChar

StartChar: th2
Encoding: 79 3365 80
Width: 1454
GlyphClass: 2
Flags: W
AnchorPoint: "Anchor-0" 860 1080 basechar 0
LayerCount: 2
Fore
SplineSet
1454 0 m 1,0,-1
 138 0 l 1,1,-1
 138 897 l 1,2,-1
 366 897 l 1,3,-1
 366 109 l 1,4,-1
 605 109 l 1,5,-1
 605 525 l 2,6,7
 605 704 605 704 718 813 c 128,-1,8
 831 922 831 922 1027 922 c 128,-1,9
 1223 922 1223 922 1338.5 803 c 128,-1,10
 1454 684 1454 684 1454 471 c 2,11,-1
 1454 0 l 1,0,-1
1349 109 m 1,12,-1
 1349 449 l 2,13,14
 1349 657 1349 657 1213 719 c 0,15,16
 1165 741 1165 741 1101 741 c 0,17,18
 978 741 978 741 905.5 674.5 c 128,-1,19
 833 608 833 608 833 489 c 2,20,-1
 833 109 l 1,21,-1
 1349 109 l 1,12,-1
EndSplineSet
Validated: 1
EndChar

StartChar: th3
Encoding: 80 3366 81
Width: 966
GlyphClass: 2
Flags: W
AnchorPoint: "Anchor-0" 545 1080 basechar 0
LayerCount: 2
Fore
SplineSet
193 -19 m 1,0,1
 138 154 138 154 138 416 c 0,2,3
 138 619 138 619 262.5 768 c 128,-1,4
 387 917 387 917 586 917 c 0,5,6
 734 917 734 917 847 845 c 128,-1,7
 960 773 960 773 960 633 c 0,8,9
 960 567 960 567 926.5 513 c 128,-1,10
 893 459 893 459 833 431 c 1,11,12
 894 400 894 400 930 345 c 128,-1,13
 966 290 966 290 966 220 c 0,14,15
 966 92 966 92 849 22 c 0,16,17
 751 -36 751 -36 632.5 -36 c 128,-1,18
 514 -36 514 -36 448 -2 c 1,19,-1
 448 123 l 1,20,21
 503 83 503 83 550 83 c 0,22,23
 630 83 630 83 680 115 c 128,-1,24
 730 147 730 147 730 207 c 0,25,26
 730 318 730 318 563 318 c 2,27,-1
 488 317 l 1,28,-1
 488 490 l 1,29,30
 509 489 509 489 529 489 c 2,31,-1
 569 489 l 2,32,33
 679 489 679 489 714 560 c 0,34,35
 727 585 727 585 727 620 c 0,36,37
 727 690 727 690 681 728.5 c 128,-1,38
 635 767 635 767 563 767 c 0,39,40
 423 767 423 767 334.5 658.5 c 128,-1,41
 246 550 246 550 246 406 c 0,42,43
 246 155 246 155 292 -4 c 1,44,-1
 193 -19 l 1,0,1
EndSplineSet
Validated: 1
EndChar

StartChar: th4
Encoding: 81 3367 82
Width: 1528
GlyphClass: 2
Flags: W
AnchorPoint: "Anchor-0" 860 1080 basechar 0
LayerCount: 2
Fore
SplineSet
958 385 m 2,0,1
 958 157 958 157 1144 157 c 0,2,3
 1269 157 1269 157 1341.5 264.5 c 128,-1,4
 1414 372 1414 372 1414 517.5 c 128,-1,5
 1414 663 1414 663 1288 799 c 0,6,7
 1250 840 1250 840 1206 871 c 1,8,-1
 1267 919 l 1,9,10
 1454 810 1454 810 1510 599 c 0,11,12
 1527 532 1527 532 1527 452 c 0,13,14
 1527 269 1527 269 1429.5 126 c 128,-1,15
 1332 -17 1332 -17 1146 -17 c 0,16,17
 1042 -17 1042 -17 990 4 c 0,18,19
 898 40 898 40 847 118 c 1,20,21
 758 -17 758 -17 563.5 -17 c 128,-1,22
 369 -17 369 -17 251.5 112 c 128,-1,23
 134 241 134 241 134 460.5 c 128,-1,24
 134 680 134 680 298 836 c 0,25,26
 351 887 351 887 420 919 c 1,27,-1
 500 859 l 1,28,29
 369 761 369 761 332 585 c 0,30,31
 320 531 320 531 320 475 c 0,32,33
 320 338 320 338 378 238 c 0,34,35
 448 115 448 115 575 115 c 0,36,37
 674 115 674 115 724.5 172 c 128,-1,38
 775 229 775 229 775 325 c 2,39,-1
 775 900 l 1,40,-1
 958 900 l 1,41,-1
 958 385 l 2,0,1
EndSplineSet
Validated: 1
EndChar

StartChar: n1
Encoding: 82 3368 83
Width: 1525
GlyphClass: 2
Flags: W
AnchorPoint: "Anchor-0" 820 1080 basechar 0
LayerCount: 2
Fore
SplineSet
850 794 m 1,0,1
 901 888 901 888 1030 912 c 0,2,3
 1067 919 1067 919 1103 919 c 0,4,5
 1296 919 1296 919 1411.5 783.5 c 128,-1,6
 1527 648 1527 648 1527 452 c 0,7,8
 1527 212 1527 212 1372 64 c 0,9,10
 1320 15 1320 15 1251 -20 c 1,11,-1
 1166 56 l 1,12,13
 1324 178 1324 178 1324 439 c 0,14,15
 1324 567 1324 567 1252 673 c 128,-1,16
 1180 779 1180 779 1059 779 c 0,17,18
 932 779 932 779 932 630 c 2,19,-1
 932 -7 l 1,20,-1
 731 -7 l 1,21,-1
 731 521 l 2,22,23
 731 623 731 623 679.5 665.5 c 128,-1,24
 628 708 628 708 550 708 c 0,25,26
 417 708 417 708 343 608 c 128,-1,27
 269 508 269 508 269 393 c 0,28,29
 269 149 269 149 458 41 c 1,30,-1
 393 -20 l 1,31,32
 137 119 137 119 137 436 c 0,33,34
 137 628 137 628 251.5 773.5 c 128,-1,35
 366 919 366 919 563 919 c 128,-1,36
 760 919 760 919 850 794 c 1,0,1
EndSplineSet
Validated: 1
EndChar

StartChar: n2
Encoding: 83 3369 84
Width: 1603
GlyphClass: 2
Flags: W
AnchorPoint: "Anchor-0" 940 1080 basechar 0
LayerCount: 2
Fore
SplineSet
883 801 m 1,0,1
 973 926 973 926 1175 926 c 128,-1,2
 1377 926 1377 926 1491.5 780.5 c 128,-1,3
 1606 635 1606 635 1606 443 c 0,4,5
 1606 120 1606 120 1350 -20 c 1,6,-1
 1285 47 l 1,7,8
 1335 75 1335 75 1370 114 c 0,9,10
 1474 226 1474 226 1474 400 c 0,11,12
 1474 516 1474 516 1400 615.5 c 128,-1,13
 1326 715 1326 715 1194 715 c 0,14,15
 1116 715 1116 715 1064 672.5 c 128,-1,16
 1012 630 1012 630 1012 528 c 2,17,-1
 1012 0 l 1,18,-1
 811 0 l 1,19,-1
 811 637 l 2,20,21
 811 715 811 715 760 754 c 0,22,23
 731 776 731 776 647 776 c 128,-1,24
 563 776 563 776 478 686 c 1,25,26
 540 669 540 669 588 636 c 0,27,28
 734 534 734 534 734 333 c 0,29,30
 734 190 734 190 665 87 c 128,-1,31
 596 -16 596 -16 448.5 -16 c 128,-1,32
 301 -16 301 -16 213 136 c 0,33,34
 140 263 140 263 140 432 c 0,35,36
 140 638 140 638 276.5 782 c 128,-1,37
 413 926 413 926 615 926 c 128,-1,38
 817 926 817 926 883 801 c 1,0,1
485 187 m 0,39,40
 606 187 606 187 606 325 c 0,41,42
 606 549 606 549 409 583 c 1,43,44
 369 497 369 497 369 403 c 0,45,46
 369 187 369 187 485 187 c 0,39,40
EndSplineSet
Validated: 1
EndChar

StartChar: p1
Encoding: 84 3370 85
Width: 1564
GlyphClass: 2
Flags: W
AnchorPoint: "Anchor-0" 860 1080 basechar 0
LayerCount: 2
Fore
SplineSet
789 99 m 1,0,-1
 1336 99 l 1,1,-1
 1336 895 l 1,2,-1
 1564 895 l 1,3,-1
 1564 -10 l 1,4,-1
 577 -10 l 1,5,-1
 577 59 l 1,6,7
 621 88 621 88 645 135.5 c 128,-1,8
 669 183 669 183 669 232 c 0,9,10
 669 327 669 327 609 388.5 c 128,-1,11
 549 450 549 450 457 450 c 128,-1,12
 365 450 365 450 309 388 c 128,-1,13
 253 326 253 326 253 232 c 0,14,15
 253 105 253 105 349 36 c 1,16,-1
 279 -21 l 1,17,18
 134 90 134 90 134 266.5 c 128,-1,19
 134 443 134 443 237.5 550 c 128,-1,20
 341 657 341 657 500 657 c 128,-1,21
 659 657 659 657 763 561.5 c 128,-1,22
 867 466 867 466 867 331 c 128,-1,23
 867 196 867 196 789 99 c 1,0,-1
EndSplineSet
Validated: 1
EndChar

StartChar: p2
Encoding: 85 3371 86
Width: 1931
GlyphClass: 2
Flags: W
AnchorPoint: "Anchor-0" 860 1080 basechar 0
LayerCount: 2
Fore
SplineSet
869 300 m 0,0,1
 869 207 869 207 792 108 c 1,2,-1
 1077 108 l 1,3,-1
 1077 525 l 2,4,5
 1077 704 1077 704 1191.5 813 c 128,-1,6
 1306 922 1306 922 1484 922 c 0,7,8
 1812 922 1812 922 1902 662 c 0,9,10
 1931 579 1931 579 1931 471 c 2,11,-1
 1931 0 l 1,12,-1
 578 0 l 1,13,-1
 579 69 l 1,14,15
 671 131 671 131 671 230 c 128,-1,16
 671 329 671 329 610.5 389.5 c 128,-1,17
 550 450 550 450 458.5 450 c 128,-1,18
 367 450 367 450 311 388 c 128,-1,19
 255 326 255 326 255 232 c 0,20,21
 255 104 255 104 350 36 c 1,22,-1
 280 -21 l 1,23,24
 135 90 135 90 135 267.5 c 128,-1,25
 135 445 135 445 239 551 c 128,-1,26
 343 657 343 657 501.5 657 c 128,-1,27
 660 657 660 657 764.5 562 c 128,-1,28
 869 467 869 467 869 300 c 0,0,1
1832 108 m 1,29,-1
 1832 449 l 2,30,31
 1832 652 1832 652 1688 718 c 0,32,33
 1639 741 1639 741 1577 741 c 0,34,35
 1457 741 1457 741 1383 673 c 128,-1,36
 1309 605 1309 605 1309 489 c 2,37,-1
 1309 108 l 1,38,-1
 1832 108 l 1,29,-1
EndSplineSet
Validated: 1
EndChar

StartChar: p3
Encoding: 86 3372 87
Width: 2036
GlyphClass: 2
Flags: W
AnchorPoint: "Anchor-0" 920 1080 basechar 0
LayerCount: 2
Fore
SplineSet
931 789 m 1,0,1
 999 921 999 921 1183.5 921 c 128,-1,2
 1368 921 1368 921 1483.5 794 c 128,-1,3
 1599 667 1599 667 1599 487 c 128,-1,4
 1599 307 1599 307 1510 176 c 0,5,6
 1479 131 1479 131 1437 99 c 1,7,-1
 1805 99 l 1,8,-1
 1805 884 l 1,9,-1
 2034 884 l 1,10,-1
 2034 -8 l 1,11,-1
 1200 -8 l 1,12,-1
 1199 70 l 1,13,14
 1382 182 1382 182 1382 464 c 0,15,16
 1382 582 1382 582 1332 674 c 0,17,18
 1272 785 1272 785 1163 785 c 0,19,20
 1091 785 1091 785 1053 743.5 c 128,-1,21
 1015 702 1015 702 1015 632 c 2,22,-1
 1015 0 l 1,23,-1
 805 0 l 1,24,-1
 805 578 l 2,25,26
 805 667 805 667 733 714.5 c 128,-1,27
 661 762 661 762 583 762 c 0,28,29
 451 762 451 762 370 683 c 128,-1,30
 289 604 289 604 256 484 c 1,31,32
 324 561 324 561 436.5 561 c 128,-1,33
 549 561 549 561 625.5 478.5 c 128,-1,34
 702 396 702 396 702 271.5 c 128,-1,35
 702 147 702 147 625.5 62 c 128,-1,36
 549 -23 549 -23 426 -23 c 0,37,38
 276 -23 276 -23 199 110 c 0,39,40
 136 218 136 218 136 379 c 0,41,42
 136 595 136 595 263 758.5 c 128,-1,43
 390 922 390 922 601 922 c 0,44,45
 846 922 846 922 931 789 c 1,0,1
374 437 m 0,46,47
 252 437 252 437 252 287 c 0,48,49
 252 179 252 179 318 138 c 0,50,51
 342 123 342 123 376 123 c 0,52,53
 439 123 439 123 475 171 c 128,-1,54
 511 219 511 219 511 265 c 0,55,56
 511 346 511 346 474 391.5 c 128,-1,57
 437 437 437 437 374 437 c 0,46,47
EndSplineSet
Validated: 1
EndChar

StartChar: p4
Encoding: 87 3373 88
Width: 995
GlyphClass: 2
Flags: W
AnchorPoint: "Anchor-0" 545 1080 basechar 0
LayerCount: 2
Fore
SplineSet
181 -22 m 1,0,1
 134 220 134 220 134 362 c 0,2,3
 134 626 134 626 255.5 777.5 c 128,-1,4
 377 929 377 929 602 929 c 0,5,6
 782 929 782 929 889 843 c 128,-1,7
 996 757 996 757 996 637 c 0,8,9
 996 546 996 546 933 490.5 c 128,-1,10
 870 435 870 435 781 435 c 0,11,12
 749 435 749 435 718.5 445.5 c 128,-1,13
 688 456 688 456 660 456 c 128,-1,14
 632 456 632 456 610.5 443 c 128,-1,15
 589 430 589 430 589 402 c 128,-1,16
 589 374 589 374 609.5 356.5 c 128,-1,17
 630 339 630 339 657 339 c 2,18,-1
 771 353 l 1,19,20
 916 353 916 353 964 259 c 0,21,22
 980 226 980 226 980 178 c 0,23,24
 980 -23 980 -23 664 -23 c 0,25,26
 496 -23 496 -23 378 17 c 1,27,-1
 354 151 l 1,28,29
 496 87 496 87 600 87 c 128,-1,30
 704 87 704 87 748 126 c 0,31,32
 766 142 766 142 766 169 c 0,33,34
 766 235 766 235 699 235 c 0,35,36
 670 235 670 235 641.5 226.5 c 128,-1,37
 613 218 613 218 578 218 c 0,38,39
 503 218 503 218 445 278 c 128,-1,40
 387 338 387 338 387 417.5 c 128,-1,41
 387 497 387 497 442 546.5 c 128,-1,42
 497 596 497 596 574 596 c 1,43,-1
 689 580 l 1,44,45
 731 580 731 580 743.5 597.5 c 128,-1,46
 756 615 756 615 756 649 c 0,47,48
 756 706 756 706 696 731 c 128,-1,49
 636 756 636 756 562.5 756 c 128,-1,50
 489 756 489 756 428 721 c 128,-1,51
 367 686 367 686 328 629 c 0,52,53
 251 519 251 519 251 375.5 c 128,-1,54
 251 232 251 232 291 -3 c 1,55,-1
 181 -22 l 1,0,1
EndSplineSet
Validated: 1
EndChar

StartChar: m1
Encoding: 88 3374 89
Width: 1053
GlyphClass: 2
Flags: W
AnchorPoint: "Anchor-0" 545 1080 basechar 0
LayerCount: 2
Fore
SplineSet
1053 0 m 1,0,-1
 134 0 l 1,1,-1
 134 504 l 2,2,3
 134 698 134 698 263 809 c 128,-1,4
 392 920 392 920 585 920 c 128,-1,5
 778 920 778 920 915.5 814 c 128,-1,6
 1053 708 1053 708 1053 524 c 2,7,-1
 1053 0 l 1,0,-1
380 729 m 1,8,9
 410 734 410 734 450 734 c 128,-1,10
 490 734 490 734 537.5 708.5 c 128,-1,11
 585 683 585 683 618 641 c 0,12,13
 683 556 683 556 683 417.5 c 128,-1,14
 683 279 683 279 580 170 c 0,15,16
 547 135 547 135 504 110 c 1,17,-1
 844 110 l 1,18,-1
 844 485 l 2,19,20
 844 612 844 612 760 690 c 128,-1,21
 676 768 676 768 565 768 c 128,-1,22
 454 768 454 768 380 729 c 1,8,9
480 513.5 m 128,-1,24
 476 549 476 549 465 582 c 128,-1,25
 454 615 454 615 434.5 639 c 128,-1,26
 415 663 415 663 383 663 c 0,27,28
 323 663 323 663 287.5 615 c 128,-1,29
 252 567 252 567 252 503 c 2,30,-1
 252 110 l 1,31,-1
 284 110 l 2,32,33
 417 110 417 110 466 312 c 0,34,35
 484 382 484 382 484 430 c 128,-1,23
 484 478 484 478 480 513.5 c 128,-1,24
EndSplineSet
Validated: 1
EndChar

StartChar: y1
Encoding: 89 3375 90
Width: 1614
GlyphClass: 2
Flags: W
AnchorPoint: "Anchor-0" 720 1080 basechar 0
LayerCount: 2
Fore
SplineSet
1411 920 m 1,0,1
 1611 754 1611 754 1611 468 c 0,2,3
 1611 379 1611 379 1573 283.5 c 128,-1,4
 1535 188 1535 188 1466 120 c 0,5,6
 1323 -21 1323 -21 1091 -21 c 0,7,8
 1000 -21 1000 -21 904 11 c 1,9,10
 720 -52 720 -52 496 13.5 c 128,-1,11
 272 79 272 79 180 276 c 0,12,13
 134 376 134 376 134 483 c 0,14,15
 134 680 134 680 225.5 799 c 128,-1,16
 317 918 317 918 482 918 c 0,17,18
 605 918 605 918 676 829 c 0,19,20
 699 800 699 800 712 764 c 1,21,22
 760 837 760 837 838.5 878.5 c 128,-1,23
 917 920 917 920 1000 920 c 0,24,25
 1159 920 1159 920 1251.5 812.5 c 128,-1,26
 1344 705 1344 705 1344 550 c 0,27,28
 1344 333 1344 333 1212 183 c 0,29,30
 1168 133 1168 133 1108 103 c 1,31,32
 1133 98 1133 98 1154 98 c 0,33,34
 1294 98 1294 98 1391.5 223 c 128,-1,35
 1489 348 1489 348 1489 490 c 0,36,37
 1489 591 1489 591 1447 684 c 128,-1,38
 1405 777 1405 777 1332 847 c 1,39,-1
 1411 920 l 1,0,1
1100 408 m 0,40,41
 1112 459 1112 459 1112 505 c 0,42,43
 1112 609 1112 609 1067 692.5 c 128,-1,44
 1022 776 1022 776 931 776 c 128,-1,45
 840 776 840 776 791 682 c 0,46,47
 752 606 752 606 752 531 c 0,48,49
 752 247 752 247 931 159 c 1,50,51
 1063 243 1063 243 1100 408 c 0,40,41
737 101 m 1,52,53
 558 239 558 239 558 511 c 0,54,55
 558 664 558 664 489 730 c 0,56,57
 462 755 462 755 420 755 c 0,58,59
 343 755 343 755 301 682 c 128,-1,60
 259 609 259 609 259 519 c 0,61,62
 259 333 259 333 381.5 216 c 128,-1,63
 504 99 504 99 697 99 c 0,64,65
 717 99 717 99 737 101 c 1,52,53
EndSplineSet
Validated: 33
EndChar

StartChar: r3
Encoding: 90 3376 91
Width: 1070
GlyphClass: 2
Flags: W
AnchorPoint: "Anchor-0" 545 1080 basechar 0
LayerCount: 2
Fore
SplineSet
310 -27 m 1,0,1
 138 114 138 114 138 422 c 0,2,3
 138 504 138 504 170.5 599 c 128,-1,4
 203 694 203 694 264 766 c 0,5,6
 397 923 397 923 610.5 923 c 128,-1,7
 824 923 824 923 948.5 777 c 128,-1,8
 1073 631 1073 631 1073 417 c 0,9,10
 1073 253 1073 253 999 126 c 0,11,12
 912 -25 912 -25 766.5 -25 c 128,-1,13
 621 -25 621 -25 546 76.5 c 128,-1,14
 471 178 471 178 471 312.5 c 128,-1,15
 471 447 471 447 537.5 560 c 128,-1,16
 604 673 604 673 717 713 c 1,17,18
 658 747 658 747 580 747 c 0,19,20
 432 747 432 747 348.5 629 c 128,-1,21
 265 511 265 511 265 334.5 c 128,-1,22
 265 158 265 158 380 31 c 1,23,-1
 310 -27 l 1,0,1
812 618 m 1,24,25
 715 598 715 598 654 524 c 128,-1,26
 593 450 593 450 593 342.5 c 128,-1,27
 593 235 593 235 657 188 c 0,28,29
 680 171 680 171 718 171 c 128,-1,30
 756 171 756 171 785 198.5 c 128,-1,31
 814 226 814 226 837.5 282.5 c 128,-1,32
 861 339 861 339 861 436.5 c 128,-1,33
 861 534 861 534 812 618 c 1,24,25
EndSplineSet
Validated: 1
EndChar

StartChar: rh
Encoding: 91 3377 92
Width: 1023
GlyphClass: 2
Flags: W
AnchorPoint: "Anchor-0" 545 1080 basechar 0
LayerCount: 2
Fore
SplineSet
355 -19 m 1,0,1
 131 134 131 134 131 438 c 0,2,3
 131 521 131 521 163.5 611 c 128,-1,4
 196 701 196 701 256 768 c 0,5,6
 385 915 385 915 584 915 c 128,-1,7
 783 915 783 915 902.5 781.5 c 128,-1,8
 1022 648 1022 648 1022 438 c 128,-1,9
 1022 228 1022 228 870 69 c 0,10,11
 822 18 822 18 760 -20 c 1,12,-1
 687 65 l 1,13,14
 823 195 823 195 823 369 c 0,15,16
 823 506 823 506 754 607.5 c 128,-1,17
 685 709 685 709 551.5 709 c 128,-1,18
 418 709 418 709 337 607.5 c 128,-1,19
 256 506 256 506 256 366 c 0,20,21
 256 177 256 177 418 44 c 1,22,-1
 355 -19 l 1,0,1
EndSplineSet
Validated: 1
EndChar

StartChar: l3
Encoding: 92 3378 93
Width: 1415
GlyphClass: 2
Flags: W
AnchorPoint: "Anchor-0" 820 1080 basechar 0
LayerCount: 2
Fore
SplineSet
1416 0 m 1,0,-1
 133 0 l 1,1,-1
 133 459 l 2,2,3
 133 788 133 788 362 887 c 0,4,5
 441 921 441 921 551 921 c 0,6,7
 768 921 768 921 885 794.5 c 128,-1,8
 1002 668 1002 668 1002 449 c 2,9,-1
 1002 300 l 1,10,-1
 363 300 l 1,11,-1
 363 109 l 1,12,-1
 1191 109 l 1,13,-1
 1191 896 l 1,14,-1
 1416 896 l 1,15,-1
 1416 0 l 1,0,-1
882 397 m 1,16,-1
 882 484 l 2,17,18
 882 606 882 606 803 688.5 c 128,-1,19
 724 771 724 771 608.5 771 c 128,-1,20
 493 771 493 771 428 698.5 c 128,-1,21
 363 626 363 626 363 515 c 2,22,-1
 363 397 l 1,23,-1
 882 397 l 1,16,-1
EndSplineSet
Validated: 1
EndChar

StartChar: lh
Encoding: 93 3379 94
Width: 1152
GlyphClass: 2
Flags: W
AnchorPoint: "Anchor-0" 640 1080 basechar 0
LayerCount: 2
Fore
SplineSet
824 467 m 2,0,1
 910 467 910 467 910 598 c 0,2,3
 910 635 910 635 882 671 c 0,4,5
 805 768 805 768 623 768 c 2,6,-1
 569 768 l 2,7,8
 417 768 417 768 327 684 c 0,9,10
 295 654 295 654 274 612 c 1,11,12
 350 671 350 671 423 671 c 0,13,14
 547 671 547 671 614 583 c 128,-1,15
 681 495 681 495 681 375.5 c 128,-1,16
 681 256 681 256 612.5 172.5 c 128,-1,17
 544 89 544 89 417.5 89 c 128,-1,18
 291 89 291 89 213.5 194.5 c 128,-1,19
 136 300 136 300 136 424 c 0,20,21
 136 655 136 655 280.5 784.5 c 128,-1,22
 425 914 425 914 644 914 c 2,23,-1
 698 914 l 2,24,25
 863 914 863 914 996 834 c 0,26,27
 1150 741 1150 741 1150 583 c 0,28,29
 1150 491 1150 491 1079 422 c 0,30,31
 1057 400 1057 400 1032 386 c 1,32,33
 1083 365 1083 365 1117 311 c 128,-1,34
 1151 257 1151 257 1151 197 c 0,35,36
 1151 85 1151 85 1088 22 c 128,-1,37
 1025 -41 1025 -41 912 -41 c 2,38,-1
 401 -41 l 2,39,40
 383 -41 383 -41 365 -51.5 c 128,-1,41
 347 -62 347 -62 347 -78 c 0,42,43
 347 -121 347 -121 401 -121 c 2,44,-1
 1134 -121 l 1,45,-1
 1134 -297 l 1,46,-1
 387 -297 l 2,47,48
 230 -297 230 -297 174 -206 c 0,49,50
 154 -173 154 -173 154 -122 c 0,51,52
 154 -27 154 -27 219.5 16.5 c 128,-1,53
 285 60 285 60 387 60 c 2,54,-1
 843 60 l 2,55,56
 884 60 884 60 912 96.5 c 128,-1,57
 940 133 940 133 940 177 c 0,58,59
 940 287 940 287 825 283 c 0,60,61
 792 282 792 282 775 282 c 1,62,-1
 775 467 l 1,63,-1
 824 467 l 2,0,1
299.5 290.5 m 128,-1,65
 335 238 335 238 391.5 238 c 128,-1,66
 448 238 448 238 480 288 c 128,-1,67
 512 338 512 338 512 398 c 128,-1,68
 512 458 512 458 477 510.5 c 128,-1,69
 442 563 442 563 385 563 c 128,-1,70
 328 563 328 563 296 514 c 128,-1,71
 264 465 264 465 264 404 c 128,-1,64
 264 343 264 343 299.5 290.5 c 128,-1,65
EndSplineSet
Validated: 33
EndChar

StartChar: zh
Encoding: 94 3380 95
Width: 1066
GlyphClass: 2
Flags: W
AnchorPoint: "Anchor-0" 580 1080 basechar 0
LayerCount: 2
Fore
SplineSet
592 363 m 1,0,1
 484 500 484 500 484 619.5 c 128,-1,2
 484 739 484 739 564.5 827 c 128,-1,3
 645 915 645 915 773.5 915 c 128,-1,4
 902 915 902 915 983.5 828 c 128,-1,5
 1065 741 1065 741 1065 598.5 c 128,-1,6
 1065 456 1065 456 920 364 c 0,7,8
 877 336 877 336 828 318 c 1,9,10
 863 254 863 254 863 195 c 0,11,12
 863 92 863 92 775.5 37 c 128,-1,13
 688 -18 688 -18 591 -18 c 0,14,15
 381 -18 381 -18 288 123 c 1,16,-1
 362 193 l 1,17,18
 415 108 415 108 537 108 c 0,19,20
 584 108 584 108 617.5 140 c 128,-1,21
 651 172 651 172 651 211 c 128,-1,22
 651 250 651 250 641 276 c 1,23,24
 607 272 607 272 563 272 c 128,-1,25
 519 272 519 272 466 281 c 128,-1,26
 413 290 413 290 364 308 c 0,27,28
 259 348 259 348 196 426.5 c 128,-1,29
 133 505 133 505 133 619 c 0,30,31
 133 764 133 764 257 868 c 0,32,33
 294 899 294 899 338 920 c 1,34,-1
 417 868 l 1,35,36
 309 773 309 773 309 638 c 0,37,38
 309 445 309 445 455 382 c 0,39,40
 503 362 503 362 566 362 c 2,41,-1
 579 362 l 1,42,-1
 592 363 l 1,0,1
768 407 m 1,43,44
 916 473 916 473 916 581 c 0,45,46
 916 652 916 652 891 691 c 0,47,48
 845 765 845 765 786.5 765 c 128,-1,49
 728 765 728 765 702 724.5 c 128,-1,50
 676 684 676 684 676 639 c 0,51,52
 676 567 676 567 698 518 c 128,-1,53
 720 469 720 469 768 407 c 1,43,44
EndSplineSet
Validated: 1
EndChar

StartChar: v1
Encoding: 95 3381 96
Width: 1428
GlyphClass: 2
Flags: W
AnchorPoint: "Anchor-0" 820 1080 basechar 0
LayerCount: 2
Fore
SplineSet
331 -27 m 1,0,1
 136 137 136 137 136 444 c 0,2,3
 136 527 136 527 167.5 617 c 128,-1,4
 199 707 199 707 258 774 c 0,5,6
 387 919 387 919 589 919 c 128,-1,7
 791 919 791 919 915.5 788.5 c 128,-1,8
 1040 658 1040 658 1040 448.5 c 128,-1,9
 1040 239 1040 239 894 99 c 1,10,-1
 1195 99 l 1,11,-1
 1196 895 l 1,12,-1
 1427 895 l 1,13,-1
 1427 -8 l 1,14,-1
 662 -8 l 1,15,-1
 661 70 l 1,16,17
 819 171 819 171 819 387 c 0,18,19
 819 513 819 513 750.5 612 c 128,-1,20
 682 711 682 711 549 711 c 128,-1,21
 416 711 416 711 338 604.5 c 128,-1,22
 260 498 260 498 260 356 c 0,23,24
 260 267 260 267 297.5 185.5 c 128,-1,25
 335 104 335 104 404 47 c 1,26,-1
 331 -27 l 1,0,1
EndSplineSet
Validated: 1
EndChar

StartChar: z1
Encoding: 96 3382 97
Width: 1556
GlyphClass: 2
Flags: W
AnchorPoint: "Anchor-0" 820 1080 basechar 0
LayerCount: 2
Fore
SplineSet
431 830 m 5,0,1
 263 714 263 714 263 503 c 4,2,3
 263 377 263 377 318 276 c 4,4,5
 384 154 384 154 500.5 154 c 132,-1,6
 617 154 617 154 628 300 c 4,7,8
 631 338 631 338 631 374 c 6,9,-1
 631 537 l 6,10,11
 631 712 631 712 752 818 c 132,-1,12
 873 924 873 924 1049 924 c 4,13,14
 1274 924 1274 924 1413.5 778.5 c 132,-1,15
 1553 633 1553 633 1553 421 c 132,-1,16
 1553 209 1553 209 1452 86 c 4,17,18
 1365 -20 1365 -20 1211 -20 c 4,19,20
 1155 -20 1155 -20 1100.5 15 c 132,-1,21
 1046 50 1046 50 1011 105 c 4,22,23
 944 210 944 210 944 361 c 4,24,25
 944 568 944 568 1064 694 c 4,26,27
 1105 737 1105 737 1163 764 c 5,28,29
 1105 793 1105 793 1040 793 c 4,30,31
 928 793 928 793 877.5 700.5 c 132,-1,32
 827 608 827 608 827 496 c 6,33,-1
 827 305 l 6,34,35
 827 77 827 77 664 4 c 4,36,37
 608 -20 608 -20 521.5 -20 c 132,-1,38
 435 -20 435 -20 360.5 21.5 c 132,-1,39
 286 63 286 63 235 130 c 4,40,41
 132 267 132 267 132 458 c 4,42,43
 132 767 132 767 376 922 c 5,44,-1
 431 830 l 5,0,1
1345 319.5 m 132,-1,46
 1352 364 1352 364 1352 416 c 132,-1,47
 1352 468 1352 468 1333.5 537.5 c 132,-1,48
 1315 607 1315 607 1274 665 c 5,49,50
 1193 632 1193 632 1135 540.5 c 132,-1,51
 1077 449 1077 449 1077 361 c 4,52,53
 1077 226 1077 226 1142 164 c 4,54,55
 1166 141 1166 141 1206 141 c 132,-1,56
 1246 141 1246 141 1274.5 168.5 c 132,-1,57
 1303 196 1303 196 1320.5 235.5 c 132,-1,45
 1338 275 1338 275 1345 319.5 c 132,-1,46
EndSplineSet
Validated: 1
EndChar

StartChar: sh
Encoding: 97 3383 98
Width: 1784
GlyphClass: 2
Flags: W
AnchorPoint: "Anchor-0" 1080 1080 basechar 0
LayerCount: 2
Fore
SplineSet
709 106 m 1,0,-1
 1076 109 l 1,1,-1
 1076 367 l 1,2,3
 956 380 956 380 875 453.5 c 128,-1,4
 794 527 794 527 794 639 c 128,-1,5
 794 751 794 751 868 834.5 c 128,-1,6
 942 918 942 918 1049 918 c 0,7,8
 1242 918 1242 918 1270 729 c 0,9,10
 1282 648 1282 648 1277 472 c 1,11,12
 1430 517 1430 517 1544.5 626.5 c 128,-1,13
 1659 736 1659 736 1680 884 c 1,14,-1
 1782 884 l 1,15,-1
 1782 -1 l 1,16,17
 1464 0 1464 0 1151 0 c 2,18,-1
 520 0 l 1,19,-1
 520 59 l 1,20,21
 601 119 601 119 601 209.5 c 128,-1,22
 601 300 601 300 549.5 357.5 c 128,-1,23
 498 415 498 415 416 415 c 128,-1,24
 334 415 334 415 286.5 357 c 128,-1,25
 239 299 239 299 239 216 c 0,26,27
 239 102 239 102 323 38 c 1,28,-1
 261 -14 l 1,29,30
 134 87 134 87 134 246.5 c 128,-1,31
 134 406 134 406 223.5 505 c 128,-1,32
 313 604 313 604 454 604 c 128,-1,33
 595 604 595 604 685 516 c 128,-1,34
 775 428 775 428 775 305 c 128,-1,35
 775 182 775 182 709 106 c 1,0,-1
1583 515 m 1,36,37
 1460 409 1460 409 1277 374 c 1,38,-1
 1277 109 l 1,39,-1
 1583 109 l 1,40,-1
 1583 515 l 1,36,37
1076 668 m 2,41,42
 1076 715 1076 715 1044 736 c 0,43,44
 1034 743 1034 743 1018 743 c 0,45,46
 987 743 987 743 970.5 716 c 128,-1,47
 954 689 954 689 954 656 c 0,48,49
 954 592 954 592 987.5 538 c 128,-1,50
 1021 484 1021 484 1076 467 c 1,51,-1
 1076 668 l 2,41,42
EndSplineSet
Validated: 33
EndChar

StartChar: s1
Encoding: 98 3384 99
Width: 1974
GlyphClass: 2
Flags: W
AnchorPoint: "Anchor-0" 860 1080 basechar 0
LayerCount: 2
Fore
SplineSet
1719 922 m 1,0,1
 1973 778 1973 778 1973 452 c 0,2,3
 1973 264 1973 264 1869.5 124.5 c 128,-1,4
 1766 -15 1766 -15 1582 -15 c 0,5,6
 1434 -15 1434 -15 1336.5 82.5 c 128,-1,7
 1239 180 1239 180 1239 326 c 2,8,-1
 1239 624 l 2,9,10
 1239 746 1239 746 1124 788 c 0,11,12
 1090 800 1090 800 1056 800 c 0,13,14
 987 800 987 800 939.5 766 c 128,-1,15
 892 732 892 732 892 674 c 2,16,-1
 892 0 l 1,17,-1
 686 0 l 1,18,-1
 686 563 l 2,19,20
 686 636 686 636 628.5 677.5 c 128,-1,21
 571 719 571 719 503 719 c 0,22,23
 383 719 383 719 324.5 620 c 128,-1,24
 266 521 266 521 266 400 c 0,25,26
 266 228 266 228 374 106 c 0,27,28
 409 65 409 65 456 36 c 1,29,-1
 382 -24 l 1,30,31
 199 80 199 80 150 304 c 0,32,33
 135 372 135 372 135 452 c 0,34,35
 135 635 135 635 245 776.5 c 128,-1,36
 355 918 355 918 541 918 c 0,37,38
 681 918 681 918 754 864 c 0,39,40
 784 843 784 843 810 809 c 1,41,42
 879 918 879 918 1088 918 c 0,43,44
 1222 918 1222 918 1330 832.5 c 128,-1,45
 1438 747 1438 747 1438 616 c 2,46,-1
 1438 359 l 2,47,48
 1438 277 1438 277 1490.5 218.5 c 128,-1,49
 1543 160 1543 160 1613 160 c 0,50,51
 1733 160 1733 160 1790 255.5 c 128,-1,52
 1847 351 1847 351 1847 467 c 0,53,54
 1847 738 1847 738 1649 848 c 1,55,-1
 1719 922 l 1,0,1
EndSplineSet
Validated: 1
EndChar

StartChar: h1
Encoding: 99 3385 100
Width: 1930
GlyphClass: 2
Flags: W
AnchorPoint: "Anchor-0" 980 1080 basechar 0
LayerCount: 2
Fore
SplineSet
1102 104 m 1,0,1
 987 233 987 233 987 436 c 128,-1,2
 987 639 987 639 1124 776 c 128,-1,3
 1261 913 1261 913 1470 913 c 128,-1,4
 1679 913 1679 913 1804.5 782 c 128,-1,5
 1930 651 1930 651 1930 428.5 c 128,-1,6
 1930 206 1930 206 1770 60 c 0,7,8
 1717 11 1717 11 1647 -23 c 1,9,-1
 1578 62 l 1,10,11
 1736 160 1736 160 1736 386 c 0,12,13
 1736 523 1736 523 1651.5 616 c 128,-1,14
 1567 709 1567 709 1429 709 c 128,-1,15
 1291 709 1291 709 1209.5 611 c 128,-1,16
 1128 513 1128 513 1128 390 c 0,17,18
 1128 159 1128 159 1323 74 c 1,19,-1
 1323 0 l 1,20,-1
 542 0 l 1,21,-1
 537 63 l 1,22,23
 622 123 622 123 622 214 c 128,-1,24
 622 305 622 305 567 362 c 128,-1,25
 512 419 512 419 428 419 c 128,-1,26
 344 419 344 419 293.5 359 c 128,-1,27
 243 299 243 299 243 214 c 0,28,29
 243 98 243 98 331 32 c 1,30,-1
 267 -20 l 1,31,32
 133 85 133 85 133 243 c 128,-1,33
 133 401 133 401 227.5 501 c 128,-1,34
 322 601 322 601 465.5 601 c 128,-1,35
 609 601 609 601 702.5 516 c 128,-1,36
 796 431 796 431 796 298.5 c 128,-1,37
 796 166 796 166 737 104 c 1,38,-1
 1102 104 l 1,0,1
EndSplineSet
Validated: 1
EndChar

StartChar: rh_half
Encoding: 100 3386 101
Width: 1519
GlyphClass: 2
Flags: W
AnchorPoint: "Anchor-0" 860 1080 basechar 0
LayerCount: 2
Fore
SplineSet
1519 153 m 1,0,-1
 1519 -1 l 1,1,-1
 946 -1 l 1,2,-1
 946 -505 l 1,3,-1
 744 -505 l 1,4,-1
 744 -1 l 1,5,-1
 110 -1 l 1,6,-1
 735 951 l 1,7,-1
 965 951 l 1,8,-1
 420 153 l 1,9,-1
 1519 153 l 1,0,-1
EndSplineSet
Validated: 1
EndChar

StartChar: avagraha
Encoding: 101 3389 102
Width: 1114
GlyphClass: 2
Flags: W
LayerCount: 2
Fore
SplineSet
281 -336 m 0,0,1
 281 -370 281 -370 253 -407 c 1,2,3
 324 -407 324 -407 353 -238 c 0,4,5
 363 -184 363 -184 378 -80.5 c 128,-1,6
 393 23 393 23 405.5 95.5 c 128,-1,7
 418 168 418 168 433 294.5 c 128,-1,8
 448 421 448 421 470 547 c 1,9,-1
 320 547 l 1,10,-1
 320 721 l 1,11,-1
 503 721 l 1,12,-1
 530 845 l 2,13,14
 549 928 549 928 599 1053 c 0,15,16
 669 1228 669 1228 815 1293 c 0,17,18
 865 1315 865 1315 933 1315 c 128,-1,19
 1001 1315 1001 1315 1057.5 1267 c 128,-1,20
 1114 1219 1114 1219 1114 1141.5 c 128,-1,21
 1114 1064 1114 1064 1086 1027 c 0,22,23
 1036 959 1036 959 970 959 c 128,-1,24
 904 959 904 959 868.5 1009.5 c 128,-1,25
 833 1060 833 1060 833 1108 c 128,-1,26
 833 1156 833 1156 855 1191 c 1,27,28
 790 1177 790 1177 761 1016 c 0,29,30
 754 974 754 974 735.5 893 c 128,-1,31
 717 812 717 812 703 721 c 1,32,-1
 895 721 l 1,33,-1
 895 547 l 1,34,-1
 679 547 l 1,35,36
 674 513 674 513 667.5 467.5 c 128,-1,37
 661 422 661 422 643.5 302 c 128,-1,38
 626 182 626 182 606 85 c 128,-1,39
 586 -12 586 -12 569 -94.5 c 128,-1,40
 552 -177 552 -177 521 -250 c 0,41,42
 461 -389 461 -389 388 -458 c 128,-1,43
 315 -527 315 -527 214.5 -527 c 128,-1,44
 114 -527 114 -527 57 -480 c 128,-1,45
 0 -433 0 -433 0 -360 c 128,-1,46
 0 -287 0 -287 30 -250 c 0,47,48
 85 -183 85 -183 145.5 -183 c 128,-1,49
 206 -183 206 -183 243.5 -222 c 128,-1,50
 281 -261 281 -261 281 -336 c 0,0,1
EndSplineSet
Validated: 1
EndChar

StartChar: a2
Encoding: 102 3390 103
Width: 771
GlyphClass: 2
Flags: W
LayerCount: 2
Fore
SplineSet
117 571 m 1,0,1
 115 591 115 591 115 632 c 128,-1,2
 115 673 115 673 138 729 c 128,-1,3
 161 785 161 785 202 826 c 0,4,5
 288 915 288 915 419 915 c 0,6,7
 596 915 596 915 691 761 c 0,8,9
 770 633 770 633 770 445.5 c 128,-1,10
 770 258 770 258 692 128 c 0,11,12
 600 -23 600 -23 421 -23 c 0,13,14
 289 -23 289 -23 202 64 c 128,-1,15
 115 151 115 151 115 283 c 0,16,17
 115 300 115 300 117 320 c 1,18,-1
 211 320 l 1,19,20
 220 252 220 252 249 216 c 0,21,22
 302 151 302 151 361 151 c 0,23,24
 463 151 463 151 510 256 c 0,25,26
 547 336 547 336 547 412 c 0,27,28
 547 557 547 557 509 644 c 0,29,30
 460 757 460 757 362 757 c 0,31,32
 293 757 293 757 253.5 700 c 128,-1,33
 214 643 214 643 212 571 c 1,34,-1
 117 571 l 1,0,1
EndSplineSet
Validated: 1
Ligature2: "vowels" avagraha ZWJ a2
EndChar

StartChar: i1
Encoding: 103 3391 104
Width: 281
GlyphClass: 2
Flags: W
LayerCount: 2
Fore
SplineSet
-28 1097 m 0,0,1
 -101 1097 -101 1097 -131 1028 c 0,2,3
 -140 1008 -140 1008 -140 985.5 c 128,-1,4
 -140 963 -140 963 -127 932 c 1,5,-1
 -227 932 l 1,6,7
 -239 974 -239 974 -239 1019 c 0,8,9
 -239 1115 -239 1115 -163 1176.5 c 128,-1,10
 -87 1238 -87 1238 19 1238 c 128,-1,11
 125 1238 125 1238 202.5 1177.5 c 128,-1,12
 280 1117 280 1117 280 1009 c 2,13,-1
 280 0 l 1,14,-1
 81 0 l 1,15,-1
 81 972 l 2,16,17
 81 1056 81 1056 18 1087 c 0,18,19
 -3 1097 -3 1097 -28 1097 c 0,0,1
EndSplineSet
Validated: 1
Ligature2: "vowels" avagraha ZWJ i1
EndChar

StartChar: i2
Encoding: 104 3392 105
Width: 283
GlyphClass: 2
Flags: W
LayerCount: 2
Fore
SplineSet
11 1149 m 1,0,1
 56 1110 56 1110 56 1066 c 0,2,3
 56 990 56 990 12 949.5 c 128,-1,4
 -32 909 -32 909 -80 909 c 0,5,6
 -164 909 -164 909 -211.5 950.5 c 128,-1,7
 -259 992 -259 992 -259 1050 c 0,8,9
 -259 1150 -259 1150 -179 1196 c 128,-1,10
 -99 1242 -99 1242 -23 1242 c 0,11,12
 116 1242 116 1242 199 1177 c 128,-1,13
 282 1112 282 1112 282 995 c 2,14,-1
 282 2 l 1,15,-1
 82 2 l 1,16,-1
 82 970 l 2,17,18
 82 1135 82 1135 11 1149 c 1,0,1
-24 1019.5 m 128,-1,20
 -14 1036 -14 1036 -14 1064 c 128,-1,21
 -14 1092 -14 1092 -31 1103 c 128,-1,22
 -48 1114 -48 1114 -65.5 1114 c 128,-1,23
 -83 1114 -83 1114 -98 1086 c 1,24,-1
 -98 1063 l 2,25,26
 -99 1043 -99 1043 -88 1023 c 128,-1,27
 -77 1003 -77 1003 -55.5 1003 c 128,-1,19
 -34 1003 -34 1003 -24 1019.5 c 128,-1,20
EndSplineSet
Validated: 1
Ligature2: "vowels" avagraha ZWJ i2
EndChar

StartChar: u1
Encoding: 105 3393 106
Width: 554
GlyphClass: 2
Flags: W
LayerCount: 2
Fore
SplineSet
472 478 m 0,0,1
 472 311 472 311 386 45 c 1,2,3
 501 -7 501 -7 531 -146 c 0,4,5
 540 -188 540 -188 540 -234 c 0,6,7
 540 -337 540 -337 477.5 -420 c 128,-1,8
 415 -503 415 -503 309 -503 c 128,-1,9
 203 -503 203 -503 141.5 -414.5 c 128,-1,10
 80 -326 80 -326 80 -215 c 0,11,12
 80 0 80 0 249 54 c 1,13,14
 329 258 329 258 329 387.5 c 128,-1,15
 329 517 329 517 297.5 573.5 c 128,-1,16
 266 630 266 630 228.5 661 c 128,-1,17
 191 692 191 692 134 712 c 1,18,-1
 150 928 l 1,19,20
 472 848 472 848 472 478 c 0,0,1
354 -140.5 m 128,-1,22
 332 -107 332 -107 301.5 -107 c 128,-1,23
 271 -107 271 -107 256 -117 c 128,-1,24
 241 -127 241 -127 231.5 -142.5 c 128,-1,25
 222 -158 222 -158 217.5 -177 c 128,-1,26
 213 -196 213 -196 213 -215 c 128,-1,27
 213 -234 213 -234 217.5 -253 c 128,-1,28
 222 -272 222 -272 232 -287.5 c 128,-1,29
 242 -303 242 -303 257 -312.5 c 128,-1,30
 272 -322 272 -322 293 -322 c 128,-1,31
 314 -322 314 -322 329.5 -312.5 c 128,-1,32
 345 -303 345 -303 356 -288 c 0,33,34
 376 -257 376 -257 376 -215.5 c 128,-1,21
 376 -174 376 -174 354 -140.5 c 128,-1,22
EndSplineSet
Validated: 1
Ligature2: "vowels" avagraha ZWJ u1
EndChar

StartChar: u2
Encoding: 106 3394 107
Width: 520
GlyphClass: 2
Flags: W
LayerCount: 2
Fore
SplineSet
365 46 m 1,0,1
 506 -14 506 -14 506 -215 c 0,2,3
 506 -312 506 -312 445 -392.5 c 128,-1,4
 384 -473 384 -473 287.5 -473 c 128,-1,5
 191 -473 191 -473 131.5 -388.5 c 128,-1,6
 72 -304 72 -304 72 -201 c 0,7,8
 72 -60 72 -60 158 14 c 0,9,10
 188 39 188 39 232 53 c 1,11,12
 305 241 305 241 305 360.5 c 128,-1,13
 305 480 305 480 275.5 533.5 c 128,-1,14
 246 587 246 587 211 616.5 c 128,-1,15
 176 646 176 646 124 665 c 1,16,-1
 140 873 l 1,17,18
 444 791 444 791 444 448 c 0,19,20
 444 291 444 291 365 46 c 1,0,1
338 -67.5 m 128,-1,22
 314 -50 314 -50 295 -50 c 0,23,24
 263 -50 263 -50 236 -69 c 128,-1,25
 209 -88 209 -88 209 -106.5 c 128,-1,26
 209 -125 209 -125 216 -136.5 c 128,-1,27
 223 -148 223 -148 234.5 -155.5 c 128,-1,28
 246 -163 246 -163 259.5 -167 c 128,-1,29
 273 -171 273 -171 286 -171 c 128,-1,30
 299 -171 299 -171 312.5 -167 c 128,-1,31
 326 -163 326 -163 337 -156 c 0,32,33
 362 -138 362 -138 362 -111.5 c 128,-1,21
 362 -85 362 -85 338 -67.5 c 128,-1,22
384 -143 m 1,34,-1
 385 -151 l 1,35,36
 385 -220 385 -220 328 -249 c 0,37,38
 310 -258 310 -258 288 -258 c 0,39,40
 246 -258 246 -258 219 -225.5 c 128,-1,41
 192 -193 192 -193 192 -151 c 0,42,43
 192 -148 192 -148 192.5 -144.5 c 128,-1,44
 193 -141 193 -141 193 -138 c 1,45,46
 184 -167 184 -167 184 -193.5 c 128,-1,47
 184 -220 184 -220 190.5 -245.5 c 128,-1,48
 197 -271 197 -271 209.5 -293 c 128,-1,49
 222 -315 222 -315 241.5 -329.5 c 128,-1,50
 261 -344 261 -344 288 -344 c 0,51,52
 338 -344 338 -344 365 -296 c 128,-1,53
 392 -248 392 -248 392 -209 c 128,-1,54
 392 -170 392 -170 384 -143 c 1,34,-1
EndSplineSet
Validated: 1
Ligature2: "vowels" avagraha ZWJ u2
EndChar

StartChar: r1
Encoding: 107 3395 108
Width: 766
GlyphClass: 2
Flags: W
LayerCount: 2
Fore
SplineSet
536 892 m 1,0,1
 519 795 519 795 519 641.5 c 128,-1,2
 519 488 519 488 532 428.5 c 128,-1,3
 545 369 545 369 559.5 333.5 c 128,-1,4
 574 298 574 298 592 263 c 128,-1,5
 610 228 610 228 630 194 c 128,-1,6
 650 160 650 160 680 108 c 0,7,8
 770 -48 770 -48 770 -177.5 c 128,-1,9
 770 -307 770 -307 670.5 -405 c 128,-1,10
 571 -503 571 -503 438 -503 c 128,-1,11
 305 -503 305 -503 223.5 -433 c 128,-1,12
 142 -363 142 -363 142 -241.5 c 128,-1,13
 142 -120 142 -120 208 -38 c 128,-1,14
 274 44 274 44 380 44 c 128,-1,15
 486 44 486 44 552.5 -34.5 c 128,-1,16
 619 -113 619 -113 625 -210 c 1,17,18
 631 -185 631 -185 631 -150.5 c 128,-1,19
 631 -116 631 -116 615 -81 c 128,-1,20
 599 -46 599 -46 574.5 -15 c 128,-1,21
 550 16 550 16 521 44 c 128,-1,22
 492 72 492 72 452 118 c 0,23,24
 288 301 288 301 288 727 c 0,25,26
 288 803 288 803 312 892 c 1,27,-1
 536 892 l 1,0,1
409 -137 m 0,28,29
 314 -137 314 -137 314 -244 c 0,30,31
 314 -286 314 -286 336.5 -318 c 128,-1,32
 359 -350 359 -350 390.5 -350 c 128,-1,33
 422 -350 422 -350 438.5 -341 c 128,-1,34
 455 -332 455 -332 466 -317 c 128,-1,35
 477 -302 477 -302 482 -283 c 128,-1,36
 487 -264 487 -264 487 -244 c 0,37,38
 487 -201 487 -201 463.5 -169 c 128,-1,39
 440 -137 440 -137 409 -137 c 0,28,29
EndSplineSet
Validated: 1
Ligature2: "vowels" avagraha ZWJ r1
EndChar

StartChar: e1
Encoding: 109 3398 110
Width: 1068
GlyphClass: 2
Flags: W
LayerCount: 2
Fore
SplineSet
255 493 m 1,0,1
 331 571 331 571 450.5 571 c 128,-1,2
 570 571 570 571 644 483 c 128,-1,3
 718 395 718 395 718 271 c 128,-1,4
 718 147 718 147 642.5 62 c 128,-1,5
 567 -23 567 -23 444 -23 c 0,6,7
 294 -23 294 -23 215 99.5 c 128,-1,8
 136 222 136 222 136 354 c 0,9,10
 136 605 136 605 266 763.5 c 128,-1,11
 396 922 396 922 612 922 c 128,-1,12
 828 922 828 922 958.5 781 c 128,-1,13
 1089 640 1089 640 1089 427 c 0,14,15
 1089 129 1089 129 857 -23 c 1,16,-1
 781 43 l 1,17,18
 897 153 897 153 897 322 c 128,-1,19
 897 491 897 491 805.5 610.5 c 128,-1,20
 714 730 714 730 559 730 c 0,21,22
 450 730 450 730 368 664.5 c 128,-1,23
 286 599 286 599 255 493 c 1,0,1
292 171.5 m 128,-1,25
 332 123 332 123 395 123 c 128,-1,26
 458 123 458 123 493 170.5 c 128,-1,27
 528 218 528 218 528 283 c 128,-1,28
 528 348 528 348 491 397.5 c 128,-1,29
 454 447 454 447 390.5 447 c 128,-1,30
 327 447 327 447 289.5 401 c 128,-1,31
 252 355 252 355 252 287.5 c 128,-1,24
 252 220 252 220 292 171.5 c 128,-1,25
EndSplineSet
Validated: 1
Ligature2: "vowels" avagraha ZWJ e1
EndChar

StartChar: e2
Encoding: 110 3399 111
Width: 907
GlyphClass: 2
Flags: W
LayerCount: 2
Fore
SplineSet
572 81 m 1,0,1
 495 134 495 134 495 226 c 128,-1,2
 495 318 495 318 553.5 378.5 c 128,-1,3
 612 439 612 439 696 439 c 2,4,-1
 716 439 l 2,5,6
 802 439 802 439 866.5 378 c 128,-1,7
 931 317 931 317 931 240 c 0,8,9
 931 105 931 105 840.5 42.5 c 128,-1,10
 750 -20 750 -20 623 -20 c 2,11,-1
 557 -20 l 2,12,13
 370 -20 370 -20 252 114 c 128,-1,14
 134 248 134 248 134 437 c 2,15,-1
 134 477 l 2,16,17
 134 654 134 654 261 785 c 128,-1,18
 388 916 388 916 564 916 c 2,19,-1
 630 916 l 2,20,21
 758 916 758 916 848 853 c 128,-1,22
 938 790 938 790 938 665 c 0,23,24
 938 578 938 578 873.5 517 c 128,-1,25
 809 456 809 456 723 456 c 2,26,-1
 703 456 l 2,27,28
 617 456 617 456 565 511.5 c 128,-1,29
 513 567 513 567 513 657.5 c 128,-1,30
 513 748 513 748 573 814 c 1,31,32
 455 805 455 805 398 678 c 0,33,34
 355 583 355 583 355 443 c 0,35,36
 355 213 355 213 462 120 c 0,37,38
 505 84 505 84 572 81 c 1,0,1
732 613.5 m 128,-1,40
 752 639 752 639 752 664 c 0,41,42
 752 717 752 717 735.5 752.5 c 128,-1,43
 719 788 719 788 689 788 c 0,44,45
 640 788 640 788 618 753 c 128,-1,46
 596 718 596 718 596 678.5 c 128,-1,47
 596 639 596 639 617.5 613.5 c 128,-1,48
 639 588 639 588 675.5 588 c 128,-1,39
 712 588 712 588 732 613.5 c 128,-1,40
730 277.5 m 128,-1,50
 705 307 705 307 677.5 307 c 128,-1,51
 650 307 650 307 635 298.5 c 128,-1,52
 620 290 620 290 609.5 276 c 128,-1,53
 599 262 599 262 594 244.5 c 128,-1,54
 589 227 589 227 589 209 c 128,-1,55
 589 191 589 191 596.5 174 c 128,-1,56
 604 157 604 157 617 144.5 c 128,-1,57
 630 132 630 132 647 124.5 c 128,-1,58
 664 117 664 117 682 117 c 128,-1,59
 700 117 700 117 713.5 126 c 128,-1,60
 727 135 727 135 736 148 c 0,61,62
 755 175 755 175 755 211.5 c 128,-1,49
 755 248 755 248 730 277.5 c 128,-1,50
EndSplineSet
Validated: 1
Ligature2: "vowels" avagraha ZWJ e2
EndChar

StartChar: ai1
Encoding: 111 3400 112
Width: 2120
GlyphClass: 2
Flags: W
LayerCount: 2
Fore
SplineSet
1299 493 m 1,0,1
 1377 571 1377 571 1496 571 c 128,-1,2
 1615 571 1615 571 1690 483.5 c 128,-1,3
 1765 396 1765 396 1765 271 c 128,-1,4
 1765 146 1765 146 1689 61.5 c 128,-1,5
 1613 -23 1613 -23 1490 -23 c 0,6,7
 1340 -23 1340 -23 1260 99 c 128,-1,8
 1180 221 1180 221 1180 354 c 0,9,10
 1180 604 1180 604 1311.5 763 c 128,-1,11
 1443 922 1443 922 1659 922 c 128,-1,12
 1875 922 1875 922 2007 780.5 c 128,-1,13
 2139 639 2139 639 2139 427 c 0,14,15
 2139 130 2139 130 1906 -23 c 1,16,-1
 1829 43 l 1,17,18
 1946 154 1946 154 1946 322.5 c 128,-1,19
 1946 491 1946 491 1853 610.5 c 128,-1,20
 1760 730 1760 730 1605 730 c 0,21,22
 1497 730 1497 730 1413.5 665 c 128,-1,23
 1330 600 1330 600 1299 493 c 1,0,1
255 493 m 1,24,25
 333 571 333 571 452.5 571 c 128,-1,26
 572 571 572 571 647 483.5 c 128,-1,27
 722 396 722 396 722 271.5 c 128,-1,28
 722 147 722 147 645.5 62 c 128,-1,29
 569 -23 569 -23 446 -23 c 0,30,31
 296 -23 296 -23 216 99 c 128,-1,32
 136 221 136 221 136 354 c 0,33,34
 136 604 136 604 267.5 763 c 128,-1,35
 399 922 399 922 616 922 c 128,-1,36
 833 922 833 922 964 780.5 c 128,-1,37
 1095 639 1095 639 1095 427 c 0,38,39
 1095 130 1095 130 862 -23 c 1,40,-1
 785 43 l 1,41,42
 902 154 902 154 902 323 c 128,-1,43
 902 492 902 492 809.5 611 c 128,-1,44
 717 730 717 730 562 730 c 0,45,46
 453 730 453 730 369.5 665 c 128,-1,47
 286 600 286 600 255 493 c 1,24,25
1336 171.5 m 128,-1,49
 1376 123 1376 123 1439.5 123 c 128,-1,50
 1503 123 1503 123 1538.5 170.5 c 128,-1,51
 1574 218 1574 218 1574 282 c 128,-1,52
 1574 346 1574 346 1537.5 396.5 c 128,-1,53
 1501 447 1501 447 1436 447 c 128,-1,54
 1371 447 1371 447 1333.5 401 c 128,-1,55
 1296 355 1296 355 1296 287.5 c 128,-1,48
 1296 220 1296 220 1336 171.5 c 128,-1,49
531 281 m 128,-1,57
 531 311 531 311 522 341 c 128,-1,58
 513 371 513 371 495.5 394.5 c 128,-1,59
 478 418 478 418 452.5 432.5 c 128,-1,60
 427 447 427 447 393 447 c 128,-1,61
 359 447 359 447 332.5 434 c 128,-1,62
 306 421 306 421 288 399 c 128,-1,63
 270 377 270 377 261 348 c 128,-1,64
 252 319 252 319 252 287 c 128,-1,65
 252 255 252 255 262 225.5 c 128,-1,66
 272 196 272 196 291 173.5 c 128,-1,67
 310 151 310 151 337 137 c 128,-1,68
 364 123 364 123 397 123 c 128,-1,69
 430 123 430 123 455 136.5 c 128,-1,70
 480 150 480 150 497 172.5 c 128,-1,71
 514 195 514 195 522.5 223 c 128,-1,56
 531 251 531 251 531 281 c 128,-1,57
EndSplineSet
Validated: 1
Ligature2: "vowels" avagraha ZWJ ai1
EndChar

StartChar: o1
Encoding: 112 3402 113
Width: 2300
GlyphClass: 2
Flags: W
LayerCount: 2
Fore
SplineSet
2300 193 m 2,0,1
 2300 66 2300 66 2210.5 -21.5 c 128,-1,2
 2121 -109 2121 -109 1994 -109 c 2,3,-1
 458 -109 l 2,4,5
 333 -109 333 -109 243.5 -21 c 128,-1,6
 154 67 154 67 154 193 c 2,7,-1
 154 873 l 2,8,9
 154 997 154 997 242 1086.5 c 128,-1,10
 330 1176 330 1176 458 1176 c 2,11,-1
 1994 1176 l 2,12,13
 2121 1176 2121 1176 2210.5 1088 c 128,-1,14
 2300 1000 2300 1000 2300 873 c 2,15,-1
 2300 193 l 2,0,1
2201 284 m 2,16,-1
 2201 786 l 2,17,18
 2201 906 2201 906 2116 992.5 c 128,-1,19
 2031 1079 2031 1079 1908 1079 c 2,20,-1
 544 1079 l 2,21,22
 421 1079 421 1079 337 993.5 c 128,-1,23
 253 908 253 908 253 786 c 2,24,-1
 253 284 l 2,25,26
 253 163 253 163 338 79.5 c 128,-1,27
 423 -4 423 -4 544 -4 c 2,28,-1
 1908 -4 l 2,29,30
 2029 -4 2029 -4 2115 80.5 c 128,-1,31
 2201 165 2201 165 2201 284 c 2,16,-1
1791 893 m 0,32,33
 2083 893 2083 893 2083 524 c 0,34,35
 2083 134 2083 134 1805 134 c 0,36,37
 1669 134 1669 134 1609 198.5 c 128,-1,38
 1549 263 1549 263 1550 397 c 1,39,-1
 1623 397 l 1,40,41
 1634 318 1634 318 1654 293 c 0,42,43
 1689 247 1689 247 1755 247 c 0,44,45
 1865 247 1865 247 1902 342 c 0,46,47
 1926 401 1926 401 1926 526 c 0,48,49
 1926 803 1926 803 1783 803 c 0,50,51
 1660 803 1660 803 1634 680 c 0,52,53
 1627 644 1627 644 1623 603 c 1,54,-1
 1550 603 l 1,55,-1
 1550 613 l 2,56,57
 1550 756 1550 756 1602.5 824.5 c 128,-1,58
 1655 893 1655 893 1791 893 c 0,32,33
1487 441 m 1,59,-1
 1300 441 l 1,60,-1
 1300 536 l 1,61,-1
 1487 536 l 1,62,-1
 1487 441 l 1,59,-1
427 475 m 1,63,64
 508 588 508 588 613 588 c 128,-1,65
 718 588 718 588 787 515.5 c 128,-1,66
 856 443 856 443 856 350 c 0,67,68
 856 195 856 195 721 148 c 0,69,70
 679 134 679 134 620 134 c 0,71,72
 499 134 499 134 427 222.5 c 128,-1,73
 355 311 355 311 355 423 c 0,74,75
 355 628 355 628 481 760.5 c 128,-1,76
 607 893 607 893 786 893 c 128,-1,77
 965 893 965 893 1103.5 786 c 128,-1,78
 1242 679 1242 679 1242 510 c 0,79,80
 1242 301 1242 301 1000 121 c 1,81,-1
 893 164 l 1,82,83
 1075 290 1075 290 1075 484 c 0,84,85
 1075 613 1075 613 983.5 702.5 c 128,-1,86
 892 792 892 792 760.5 792 c 128,-1,87
 629 792 629 792 537.5 701.5 c 128,-1,88
 446 611 446 611 427 475 c 1,63,64
710 314 m 0,89,90
 721 336 721 336 721 362 c 0,91,92
 721 419 721 419 686 458 c 0,93,94
 628 521 628 521 542 488 c 0,95,96
 491 469 491 469 469 423 c 0,97,98
 458 400 458 400 458 372 c 0,99,100
 458 318 458 318 498 279 c 0,101,102
 563 217 563 217 640 248 c 0,103,104
 687 268 687 268 710 314 c 0,89,90
EndSplineSet
Validated: 33
Ligature2: "vowels" avagraha ZWJ o1
EndChar

StartChar: o2
Encoding: 113 3403 114
Width: 2116
GlyphClass: 2
Flags: W
LayerCount: 2
Fore
SplineSet
2118 193 m 2,0,1
 2118 67 2118 67 2028.5 -21 c 128,-1,2
 1939 -109 1939 -109 1814 -109 c 2,3,-1
 458 -109 l 2,4,5
 333 -109 333 -109 243.5 -21 c 128,-1,6
 154 67 154 67 154 193 c 2,7,-1
 154 873 l 2,8,9
 154 997 154 997 242 1086.5 c 128,-1,10
 330 1176 330 1176 458 1176 c 2,11,-1
 1814 1176 l 2,12,13
 1942 1176 1942 1176 2030 1086.5 c 128,-1,14
 2118 997 2118 997 2118 873 c 2,15,-1
 2118 193 l 2,0,1
2035 261 m 2,16,-1
 2035 786 l 2,17,18
 2035 908 2035 908 1949.5 993.5 c 128,-1,19
 1864 1079 1864 1079 1740 1079 c 2,20,-1
 552 1079 l 2,21,22
 430 1079 430 1079 344.5 993.5 c 128,-1,23
 259 908 259 908 259 786 c 2,24,-1
 259 261 l 2,25,26
 259 141 259 141 345 56.5 c 128,-1,27
 431 -28 431 -28 552 -28 c 2,28,-1
 1740 -28 l 2,29,30
 1862 -28 1862 -28 1948.5 56.5 c 128,-1,31
 2035 141 2035 141 2035 261 c 2,16,-1
1589 893 m 0,32,33
 1879 893 1879 893 1879 511.5 c 128,-1,34
 1879 130 1879 130 1603 130 c 0,35,36
 1465 130 1465 130 1406.5 196 c 128,-1,37
 1348 262 1348 262 1349 397 c 1,38,-1
 1419 397 l 1,39,40
 1438 274 1438 274 1496 254 c 0,41,42
 1516 247 1516 247 1566 247 c 0,43,44
 1661 247 1661 247 1698 342 c 0,45,46
 1722 404 1722 404 1722 524 c 0,47,48
 1722 799 1722 799 1577 799 c 0,49,50
 1490 799 1490 799 1460 752 c 128,-1,51
 1430 705 1430 705 1420 601 c 1,52,-1
 1349 601 l 1,53,-1
 1349 613 l 2,54,55
 1349 754 1349 754 1401 823.5 c 128,-1,56
 1453 893 1453 893 1589 893 c 0,32,33
1285 441 m 1,57,-1
 1096 441 l 1,58,-1
 1096 534 l 1,59,-1
 1285 534 l 1,60,-1
 1285 441 l 1,57,-1
766 211 m 1,61,62
 717 250 717 250 717 327.5 c 128,-1,63
 717 405 717 405 770 442 c 128,-1,64
 823 479 823 479 871 479 c 0,65,66
 951 479 951 479 993 439 c 128,-1,67
 1035 399 1035 399 1035 340 c 0,68,69
 1035 234 1035 234 926 180 c 0,70,71
 842 138 842 138 739 138 c 0,72,73
 551 138 551 138 456 241 c 128,-1,74
 361 344 361 344 361 518.5 c 128,-1,75
 361 693 361 693 458.5 794 c 128,-1,76
 556 895 556 895 727 895 c 0,77,78
 842 895 842 895 907.5 862.5 c 128,-1,79
 973 830 973 830 1004 792 c 128,-1,80
 1035 754 1035 754 1035 696 c 0,81,82
 1035 544 1035 544 890 544 c 0,83,84
 774 544 774 544 732 624 c 0,85,86
 717 651 717 651 717 689 c 0,87,88
 717 775 717 775 767 820 c 1,89,90
 750 827 750 827 717 827 c 0,91,92
 510 827 510 827 510 515 c 128,-1,93
 510 203 510 203 717 203 c 0,94,95
 740 203 740 203 766 211 c 1,61,62
890 611 m 0,96,97
 963 611 963 611 963 699.5 c 128,-1,98
 963 788 963 788 877 803 c 1,99,100
 842 782 842 782 830 728 c 0,101,102
 826 713 826 713 826 700 c 0,103,104
 826 611 826 611 890 611 c 0,96,97
890 413 m 0,105,106
 826 413 826 413 826 335.5 c 128,-1,107
 826 258 826 258 876 227 c 1,108,109
 963 251 963 251 963 342 c 0,110,111
 963 372 963 372 941 392.5 c 128,-1,112
 919 413 919 413 890 413 c 0,105,106
EndSplineSet
Validated: 33
Ligature2: "vowels" avagraha ZWJ o2
EndChar

StartChar: au1
Encoding: 114 3404 115
Width: 1223
GlyphClass: 2
Flags: W
LayerCount: 2
Fore
SplineSet
515 599 m 2,0,1
 515 741 515 741 392 741 c 0,2,3
 333 741 333 741 302.5 716.5 c 128,-1,4
 272 692 272 692 246.5 640.5 c 128,-1,5
 221 589 221 589 221 508 c 128,-1,6
 221 427 221 427 246 365 c 1,7,-1
 139 365 l 1,8,9
 121 435 121 435 121 506 c 0,10,11
 121 666 121 666 188 769 c 0,12,13
 268 890 268 890 420 890 c 128,-1,14
 572 890 572 890 626 768 c 1,15,16
 683 886 683 886 859.5 886 c 128,-1,17
 1036 886 1036 886 1127.5 753.5 c 128,-1,18
 1219 621 1219 621 1219 430 c 128,-1,19
 1219 239 1219 239 1094 114 c 128,-1,20
 969 -11 969 -11 767 -11 c 0,21,22
 622 -11 622 -11 519 66 c 128,-1,23
 416 143 416 143 412 283 c 1,24,-1
 503 283 l 1,25,26
 513 205 513 205 568.5 157.5 c 128,-1,27
 624 110 624 110 701 110 c 0,28,29
 844 110 844 110 918.5 210.5 c 128,-1,30
 993 311 993 311 993 459.5 c 128,-1,31
 993 608 993 608 918 698 c 0,32,33
 874 751 874 751 819 751 c 0,34,35
 705 751 705 751 705 653 c 2,36,-1
 705 358 l 1,37,-1
 515 358 l 1,38,-1
 515 599 l 2,0,1
EndSplineSet
Validated: 1
Ligature2: "vowels" avagraha ZWJ au1
EndChar

StartChar: xx
Encoding: 115 3405 116
Width: 36
GlyphClass: 4
Flags: W
LayerCount: 2
Fore
SplineSet
395 1222 m 1,0,1
 400 1194 400 1194 400 1156 c 128,-1,2
 400 1118 400 1118 379.5 1067.5 c 128,-1,3
 359 1017 359 1017 322 982 c 0,4,5
 246 907 246 907 127 907 c 128,-1,6
 8 907 8 907 -80.5 972 c 128,-1,7
 -169 1037 -169 1037 -169 1146 c 0,8,9
 -169 1178 -169 1178 -155 1222 c 1,10,-1
 43 1222 l 1,11,12
 28 1196 28 1196 28 1172 c 0,13,14
 28 1120 28 1120 65.5 1086 c 128,-1,15
 103 1052 103 1052 160 1052 c 128,-1,16
 217 1052 217 1052 252.5 1089.5 c 128,-1,17
 288 1127 288 1127 288 1186 c 0,18,19
 288 1202 288 1202 279 1222 c 1,20,-1
 395 1222 l 1,0,1
EndSplineSet
Validated: 1
Ligature2: "vowels" avagraha ZWJ xx
EndChar

StartChar: dotreph
Encoding: 116 3406 117
Width: 0
GlyphClass: 4
Flags: W
AnchorPoint: "Anchor-0" -806 1080 mark 0
LayerCount: 2
Fore
SplineSet
-935 1235 m 2,0,1
 -935 1264 -935 1264 -891 1296.5 c 128,-1,2
 -847 1329 -847 1329 -802 1329 c 128,-1,3
 -757 1329 -757 1329 -694 1272 c 0,4,5
 -678 1257 -678 1257 -678 1235 c 2,6,-1
 -678 1181 l 2,7,8
 -678 1155 -678 1155 -700 1117 c 0,9,10
 -744 1038 -744 1038 -798.5 1038 c 128,-1,11
 -853 1038 -853 1038 -882.5 1074.5 c 128,-1,12
 -912 1111 -912 1111 -923.5 1141.5 c 128,-1,13
 -935 1172 -935 1172 -935 1181 c 2,14,-1
 -935 1235 l 2,0,1
EndSplineSet
Validated: 1
Ligature2: "consonants" avagraha ZWJ r3 xx
EndChar

StartChar: au2
Encoding: 117 3415 118
Width: 1223
GlyphClass: 2
Flags: W
LayerCount: 2
Fore
SplineSet
515 599 m 2,0,1
 515 741 515 741 392 741 c 0,2,3
 333 741 333 741 302.5 716.5 c 128,-1,4
 272 692 272 692 246.5 640.5 c 128,-1,5
 221 589 221 589 221 508 c 128,-1,6
 221 427 221 427 246 365 c 1,7,-1
 139 365 l 1,8,9
 121 435 121 435 121 506 c 0,10,11
 121 666 121 666 188 769 c 0,12,13
 268 890 268 890 419 890 c 0,14,15
 488 890 488 890 547 856.5 c 128,-1,16
 606 823 606 823 636 758 c 1,17,18
 683 852 683 852 794 878 c 0,19,20
 828 886 828 886 863 886 c 0,21,22
 1036 886 1036 886 1127.5 753.5 c 128,-1,23
 1219 621 1219 621 1219 431 c 0,24,25
 1219 239 1219 239 1094 114 c 128,-1,26
 969 -11 969 -11 767 -11 c 0,27,28
 622 -11 622 -11 519 66 c 128,-1,29
 416 143 416 143 412 283 c 1,30,-1
 503 283 l 1,31,32
 513 205 513 205 568.5 157.5 c 128,-1,33
 624 110 624 110 701 110 c 0,34,35
 844 110 844 110 918.5 210.5 c 128,-1,36
 993 311 993 311 993 459.5 c 128,-1,37
 993 608 993 608 918 698 c 0,38,39
 874 751 874 751 819 751 c 0,40,41
 705 751 705 751 705 653 c 2,42,-1
 705 358 l 1,43,-1
 515 358 l 1,44,-1
 515 599 l 2,0,1
EndSplineSet
Validated: 1
Ligature2: "vowels" avagraha ZWJ au2
EndChar

StartChar: ml_rr
Encoding: 118 3424 119
Width: 1352
GlyphClass: 2
Flags: W
LayerCount: 2
Fore
SplineSet
1238 525 m 1,0,1
 1165 422 1165 422 1053.5 422 c 128,-1,2
 942 422 942 422 863.5 491 c 128,-1,3
 785 560 785 560 785 671.5 c 128,-1,4
 785 783 785 783 866 852 c 128,-1,5
 947 921 947 921 1072 921 c 128,-1,6
 1197 921 1197 921 1274.5 816.5 c 128,-1,7
 1352 712 1352 712 1352 574 c 0,8,9
 1352 390 1352 390 1242 290 c 0,10,11
 1203 255 1203 255 1148 235 c 1,12,13
 1223 212 1223 212 1264 153.5 c 128,-1,14
 1305 95 1305 95 1305 17.5 c 128,-1,15
 1305 -60 1305 -60 1275.5 -112.5 c 128,-1,16
 1246 -165 1246 -165 1197 -200 c 0,17,18
 1061 -297 1061 -297 755 -297 c 0,19,20
 580 -297 580 -297 500 -280 c 0,21,22
 345 -246 345 -246 264.5 -176.5 c 128,-1,23
 184 -107 184 -107 184 16 c 0,24,25
 184 94 184 94 225 152.5 c 128,-1,26
 266 211 266 211 341 235 c 1,27,28
 139 300 139 300 139 574 c 0,29,30
 139 712 139 712 216 816.5 c 128,-1,31
 293 921 293 921 418 921 c 128,-1,32
 543 921 543 921 624 852 c 128,-1,33
 705 783 705 783 705 671.5 c 128,-1,34
 705 560 705 560 626.5 491 c 128,-1,35
 548 422 548 422 437 422 c 128,-1,36
 326 422 326 422 253 524 c 1,37,38
 276 334 276 334 524 315 c 0,39,40
 590 310 590 310 650 310 c 2,41,-1
 813 310 l 2,42,43
 985 310 985 310 1053.5 331.5 c 128,-1,44
 1122 353 1122 353 1156 377 c 0,45,46
 1231 430 1231 430 1238 525 c 1,0,1
1188 670 m 128,-1,48
 1188 693 1188 693 1181.5 717 c 128,-1,49
 1175 741 1175 741 1162 761 c 128,-1,50
 1149 781 1149 781 1129.5 794 c 128,-1,51
 1110 807 1110 807 1084 807 c 0,52,53
 1037 807 1037 807 1012 766 c 128,-1,54
 987 725 987 725 987 688 c 0,55,56
 987 623 987 623 1013.5 583 c 128,-1,57
 1040 543 1040 543 1076.5 543 c 128,-1,58
 1113 543 1113 543 1132 554.5 c 128,-1,59
 1151 566 1151 566 1163.5 584 c 128,-1,60
 1176 602 1176 602 1182 624.5 c 128,-1,47
 1188 647 1188 647 1188 670 c 128,-1,48
391 543 m 0,61,62
 475 543 475 543 497 628 c 0,63,64
 503 651 503 651 503 674 c 0,65,66
 503 725 503 725 478 766 c 128,-1,67
 453 807 453 807 416.5 807 c 128,-1,68
 380 807 380 807 360.5 794 c 128,-1,69
 341 781 341 781 328 761 c 128,-1,70
 315 741 315 741 308.5 717 c 128,-1,71
 302 693 302 693 302 670 c 0,72,73
 302 619 302 619 328.5 581 c 128,-1,74
 355 543 355 543 391 543 c 0,61,62
1148 41 m 0,75,76
 1148 157 1148 157 966 196 c 0,77,78
 899 211 899 211 840 211 c 2,79,-1
 629 211 l 2,80,81
 529 211 529 211 466.5 182.5 c 128,-1,82
 404 154 404 154 373.5 121.5 c 128,-1,83
 343 89 343 89 343 49.5 c 128,-1,84
 343 10 343 10 360 -14 c 128,-1,85
 377 -38 377 -38 404 -56 c 0,86,87
 454 -89 454 -89 528.5 -105 c 128,-1,88
 603 -121 603 -121 659 -121 c 2,89,-1
 810 -121 l 2,90,91
 981 -121 981 -121 1082 -59 c 0,92,93
 1148 -19 1148 -19 1148 41 c 0,75,76
724 137 m 1,94,95
 765 178 765 178 866 178 c 0,96,97
 1006 178 1006 178 1068 102 c 0,98,99
 1090 74 1090 74 1090 30 c 0,100,101
 1090 -49 1090 -49 982 -87 c 0,102,103
 903 -115 903 -115 806 -115 c 0,104,105
 647 -115 647 -115 596 -50 c 0,106,107
 584 -34 584 -34 583 -13 c 1,108,-1
 643 -13 l 1,109,110
 656 -68 656 -68 767 -68 c 128,-1,111
 878 -68 878 -68 926 -14 c 0,112,113
 945 6 945 6 945 32 c 0,114,115
 945 78 945 78 910.5 102.5 c 128,-1,116
 876 127 876 127 823 127 c 128,-1,117
 770 127 770 127 770 100 c 2,118,-1
 770 2 l 1,119,-1
 647 2 l 1,120,-1
 648 64 l 2,121,122
 648 103 648 103 631 112.5 c 128,-1,123
 614 122 614 122 598.5 123 c 128,-1,124
 583 124 583 124 565 124 c 0,125,126
 525 124 525 124 496.5 105.5 c 128,-1,127
 468 87 468 87 468 57.5 c 128,-1,128
 468 28 468 28 488 4 c 1,129,-1
 414 4 l 1,130,131
 401 30 401 30 401 60 c 0,132,133
 401 120 401 120 459 149.5 c 128,-1,134
 517 179 517 179 601 179 c 128,-1,135
 685 179 685 179 724 137 c 1,94,95
EndSplineSet
Validated: 1
EndChar

StartChar: ml_ll
Encoding: 119 3425 120
Width: 1991
GlyphClass: 2
Flags: W
LayerCount: 2
Fore
SplineSet
255 491 m 1,0,1
 330 570 330 570 450.5 570 c 128,-1,2
 571 570 571 570 646 482.5 c 128,-1,3
 721 395 721 395 721 270 c 128,-1,4
 721 145 721 145 646 59.5 c 128,-1,5
 571 -26 571 -26 433.5 -26 c 128,-1,6
 296 -26 296 -26 216 96.5 c 128,-1,7
 136 219 136 219 136 352 c 0,8,9
 136 602 136 602 266 762 c 128,-1,10
 396 922 396 922 628.5 922 c 128,-1,11
 861 922 861 922 954 804 c 1,12,13
 1024 919 1024 919 1200.5 919 c 128,-1,14
 1377 919 1377 919 1510 806 c 0,15,16
 1553 769 1553 769 1586 722 c 1,17,18
 1763 687 1763 687 1876 544.5 c 128,-1,19
 1989 402 1989 402 1989 206.5 c 128,-1,20
 1989 11 1989 11 1843.5 -143.5 c 128,-1,21
 1698 -298 1698 -298 1490 -298 c 0,22,23
 1322 -298 1322 -298 1188 -195 c 1,24,-1
 1232 -77 l 1,25,26
 1330 -161 1330 -161 1450 -161 c 0,27,28
 1599 -161 1599 -161 1685.5 -32.5 c 128,-1,29
 1772 96 1772 96 1772 251 c 0,30,31
 1772 473 1772 473 1662 557 c 1,32,33
 1678 493 1678 493 1678 435 c 128,-1,34
 1678 377 1678 377 1670.5 325 c 128,-1,35
 1663 273 1663 273 1646 223 c 0,36,37
 1610 112 1610 112 1538.5 44.5 c 128,-1,38
 1467 -23 1467 -23 1376 -23 c 0,39,40
 1221 -23 1221 -23 1152 84 c 128,-1,41
 1083 191 1083 191 1083 335 c 0,42,43
 1083 520 1083 520 1212 634 c 0,44,45
 1255 672 1255 672 1309 695 c 1,46,47
 1242 744 1242 744 1173.5 744 c 128,-1,48
 1105 744 1105 744 1071 714.5 c 128,-1,49
 1037 685 1037 685 1037 633 c 2,50,-1
 1037 -3 l 1,51,-1
 832 -3 l 1,52,-1
 832 537 l 2,53,54
 832 642 832 642 758 694.5 c 128,-1,55
 684 747 684 747 572 747 c 0,56,57
 392 747 392 747 300 594 c 0,58,59
 271 547 271 547 255 491 c 1,0,1
1211 318 m 0,60,61
 1211 179 1211 179 1333 179 c 0,62,63
 1401 179 1401 179 1429 258 c 0,64,65
 1448 312 1448 312 1448 404 c 128,-1,66
 1448 496 1448 496 1402 584 c 1,67,68
 1265 537 1265 537 1224 406 c 0,69,70
 1211 364 1211 364 1211 318 c 0,60,61
521 339 m 128,-1,72
 512 369 512 369 495 393 c 128,-1,73
 478 417 478 417 452.5 431.5 c 128,-1,74
 427 446 427 446 393 446 c 128,-1,75
 359 446 359 446 332.5 433 c 128,-1,76
 306 420 306 420 288 397.5 c 128,-1,77
 270 375 270 375 261 346 c 128,-1,78
 252 317 252 317 252 285 c 0,79,80
 252 218 252 218 292 169.5 c 128,-1,81
 332 121 332 121 395.5 121 c 128,-1,82
 459 121 459 121 494.5 168.5 c 128,-1,83
 530 216 530 216 530 262.5 c 128,-1,71
 530 309 530 309 521 339 c 128,-1,72
EndSplineSet
Validated: 1
EndChar

StartChar: ml_0
Encoding: 120 3430 121
Width: 965
GlyphClass: 2
Flags: W
LayerCount: 2
Fore
SplineSet
792 594 m 1,0,1
 890 484 890 484 890 382 c 0,2,3
 890 202 890 202 780 92 c 128,-1,4
 670 -18 670 -18 507 -18 c 128,-1,5
 344 -18 344 -18 238.5 96 c 128,-1,6
 133 210 133 210 133 380.5 c 128,-1,7
 133 551 133 551 246.5 659 c 128,-1,8
 360 767 360 767 529 767 c 2,9,-1
 1002 767 l 1,10,-1
 1002 609 l 1,11,-1
 564 609 l 2,12,13
 399 609 399 609 345 468 c 0,14,15
 328 424 328 424 328 372 c 0,16,17
 328 265 328 265 392.5 192 c 128,-1,18
 457 119 457 119 535.5 119 c 128,-1,19
 614 119 614 119 654 139 c 128,-1,20
 694 159 694 159 721 192 c 0,21,22
 776 259 776 259 776 361 c 0,23,24
 776 513 776 513 637 594 c 1,25,-1
 792 594 l 1,0,1
EndSplineSet
Validated: 1
EndChar

StartChar: ml_1
Encoding: 121 3431 122
Width: 1223
GlyphClass: 2
Flags: W
LayerCount: 2
Fore
SplineSet
1226 -2 m 1,0,-1
 305 -2 l 2,1,2
 251 -2 251 -2 228 -64 c 0,3,4
 221 -81 221 -81 221 -108.5 c 128,-1,5
 221 -136 221 -136 243.5 -168 c 128,-1,6
 266 -200 266 -200 305 -200 c 2,7,-1
 579 -200 l 1,8,-1
 579 -322 l 1,9,-1
 261 -322 l 2,10,11
 168 -322 168 -322 121 -274 c 0,12,13
 38 -189 38 -189 38 -121 c 0,14,15
 38 -8 38 -8 104.5 52.5 c 128,-1,16
 171 113 171 113 261 113 c 2,17,-1
 372 113 l 1,18,-1
 372 494 l 2,19,20
 372 834 372 834 622 934 c 0,21,22
 706 968 706 968 808 968 c 0,23,24
 1001 968 1001 968 1113.5 851.5 c 128,-1,25
 1226 735 1226 735 1226 551 c 2,26,-1
 1226 -2 l 1,0,-1
995 513 m 2,27,28
 995 698 995 698 838 759 c 0,29,30
 790 778 790 778 726 778 c 0,31,32
 601 778 601 778 536.5 692 c 128,-1,33
 472 606 472 606 472 471 c 2,34,-1
 472 113 l 1,35,-1
 995 113 l 1,36,-1
 995 513 l 2,27,28
EndSplineSet
Validated: 1
EndChar

StartChar: ml_2
Encoding: 122 3432 123
Width: 1317
GlyphClass: 2
Flags: W
LayerCount: 2
Fore
SplineSet
940 104 m 1,0,-1
 1341 104 l 1,1,-1
 1341 1 l 1,2,-1
 684 1 l 1,3,-1
 683 74 l 1,4,5
 857 181 857 181 857 398 c 0,6,7
 857 539 857 539 802 615 c 0,8,9
 701 754 701 754 562.5 754 c 128,-1,10
 424 754 424 754 347 640 c 128,-1,11
 270 526 270 526 270 377 c 0,12,13
 270 136 270 136 420 1 c 1,14,-1
 273 1 l 1,15,16
 132 167 132 167 132 404 c 128,-1,17
 132 641 132 641 264 803 c 128,-1,18
 396 965 396 965 613.5 965 c 128,-1,19
 831 965 831 965 965.5 827 c 128,-1,20
 1100 689 1100 689 1100 468 c 128,-1,21
 1100 247 1100 247 940 104 c 1,0,-1
EndSplineSet
Validated: 1
EndChar

StartChar: ml_3
Encoding: 123 3433 124
Width: 1734
GlyphClass: 2
Flags: W
LayerCount: 2
Fore
SplineSet
1490 400 m 0,0,1
 1490 263 1490 263 1413 125 c 1,2,-1
 1759 125 l 1,3,-1
 1759 0 l 1,4,-1
 1147 0 l 1,5,6
 1290 146 1290 146 1290 403 c 128,-1,7
 1290 660 1290 660 1156 760 c 0,8,9
 1107 797 1107 797 1034 797 c 0,10,11
 909 797 909 797 909 628 c 2,12,-1
 909 0 l 1,13,-1
 713 0 l 1,14,-1
 713 516 l 2,15,16
 713 738 713 738 516 738 c 0,17,18
 386 738 386 738 318 626 c 0,19,20
 261 531 261 531 261 393 c 0,21,22
 261 149 261 149 402 0 c 1,23,-1
 261 0 l 1,24,25
 137 164 137 164 137 428 c 0,26,27
 137 735 137 735 306 881 c 0,28,29
 403 965 403 965 564.5 965 c 128,-1,30
 726 965 726 965 809 834 c 1,31,32
 871 965 871 965 1069.5 965 c 128,-1,33
 1268 965 1268 965 1379 807.5 c 128,-1,34
 1490 650 1490 650 1490 400 c 0,0,1
EndSplineSet
Validated: 1
EndChar

StartChar: ml_4
Encoding: 124 3434 125
Width: 1094
GlyphClass: 2
Flags: W
LayerCount: 2
Fore
SplineSet
277 0 m 1,0,1
 134 163 134 163 134 398 c 0,2,3
 134 709 134 709 358 860 c 0,4,5
 429 909 429 909 518 929 c 1,6,-1
 518 1151 l 1,7,-1
 659 1151 l 1,8,-1
 659 940 l 1,9,10
 862 930 862 930 977 787 c 128,-1,11
 1092 644 1092 644 1092 411.5 c 128,-1,12
 1092 179 1092 179 962 53 c 0,13,14
 887 -20 887 -20 808 -20 c 128,-1,15
 729 -20 729 -20 691 -3.5 c 128,-1,16
 653 13 653 13 611.5 53 c 128,-1,17
 570 93 570 93 544 178 c 128,-1,18
 518 263 518 263 518 351 c 2,19,-1
 518 752 l 1,20,21
 349 702 349 702 298 494 c 0,22,23
 283 434 283 434 283 371 c 0,24,25
 283 134 283 134 444 0 c 1,26,-1
 277 0 l 1,0,1
659 343 m 2,27,28
 659 170 659 170 755.5 170 c 128,-1,29
 852 170 852 170 878 344 c 0,30,31
 885 386 885 386 885 431 c 0,32,33
 885 542 885 542 826.5 639.5 c 128,-1,34
 768 737 768 737 659 758 c 1,35,-1
 659 343 l 2,27,28
EndSplineSet
Validated: 1
EndChar

StartChar: ml_5
Encoding: 125 3435 126
Width: 1266
GlyphClass: 2
Flags: W
LayerCount: 2
Fore
SplineSet
950 357 m 1,0,1
 1050 312 1050 312 1058 183 c 0,2,3
 1061 146 1061 146 1061 85 c 128,-1,4
 1061 24 1061 24 1025 -42.5 c 128,-1,5
 989 -109 989 -109 930 -154 c 0,6,7
 807 -248 807 -248 679.5 -248 c 128,-1,8
 552 -248 552 -248 480 -223 c 0,9,10
 273 -152 273 -152 186 76 c 0,11,12
 131 220 131 220 131 350 c 0,13,14
 131 829 131 829 407 1042 c 0,15,16
 548 1150 548 1150 762.5 1150 c 128,-1,17
 977 1150 977 1150 1117.5 1007.5 c 128,-1,18
 1258 865 1258 865 1258 642 c 2,19,-1
 1258 41 l 1,20,-1
 1134 41 l 1,21,-1
 1134 579 l 2,22,23
 1134 751 1134 751 1029.5 861.5 c 128,-1,24
 925 972 925 972 750 972 c 0,25,26
 442 972 442 972 337 650 c 0,27,28
 295 521 295 521 295 415 c 0,29,30
 295 243 295 243 326.5 135 c 128,-1,31
 358 27 358 27 431.5 -45.5 c 128,-1,32
 505 -118 505 -118 612 -118 c 128,-1,33
 719 -118 719 -118 768 -74 c 0,34,35
 853 1 853 1 853 100.5 c 128,-1,36
 853 200 853 200 794 240 c 0,37,38
 773 255 773 255 743 255 c 2,39,-1
 679 255 l 1,40,-1
 679 408 l 1,41,-1
 748 408 l 2,42,43
 801 408 801 408 823 445 c 0,44,45
 857 502 857 502 857 568 c 128,-1,46
 857 634 857 634 813.5 676 c 128,-1,47
 770 718 770 718 708 718 c 0,48,49
 597 718 597 718 542 618 c 0,50,51
 498 539 498 539 498 420 c 2,52,-1
 498 41 l 1,53,-1
 386 41 l 1,54,-1
 386 428 l 2,55,56
 386 708 386 708 578 813 c 0,57,58
 643 849 643 849 718 849 c 0,59,60
 859 849 859 849 959.5 769 c 128,-1,61
 1060 689 1060 689 1060 539 c 128,-1,62
 1060 389 1060 389 950 357 c 1,0,1
EndSplineSet
Validated: 1
EndChar

StartChar: ml_6
Encoding: 126 3436 127
Width: 1857
GlyphClass: 2
Flags: W
LayerCount: 2
Fore
SplineSet
1260 830 m 1,0,1
 1330 961 1330 961 1491 961 c 0,2,3
 1855 961 1855 961 1855 445 c 2,4,-1
 1855 284 l 2,5,6
 1855 -316 1855 -316 1321 -316 c 2,7,-1
 1129 -316 l 1,8,-1
 1128 -196 l 1,9,-1
 1293 -196 l 2,10,11
 1684 -196 1684 -196 1684 294 c 2,12,-1
 1684 429 l 2,13,14
 1684 804 1684 804 1451 804 c 0,15,16
 1335 804 1335 804 1335 649 c 2,17,-1
 1335 5 l 1,18,-1
 1152 5 l 1,19,-1
 1152 627 l 2,20,21
 1152 766 1152 766 1061 811 c 0,22,23
 1029 827 1029 827 988 827 c 0,24,25
 915 827 915 827 875.5 779 c 128,-1,26
 836 731 836 731 836 659 c 2,27,-1
 836 5 l 1,28,-1
 653 5 l 1,29,-1
 653 546 l 2,30,31
 653 751 653 751 479 751 c 0,32,33
 257 751 257 751 257 400 c 0,34,35
 257 139 257 139 387 5 c 1,36,-1
 245 5 l 1,37,38
 133 173 133 173 133 430 c 0,39,40
 133 836 133 836 376 938 c 0,41,42
 431 961 431 961 502 961 c 0,43,44
 674 961 674 961 761 830 c 1,45,46
 827 964 827 964 1005.5 964 c 128,-1,47
 1184 964 1184 964 1260 830 c 1,0,1
EndSplineSet
Validated: 1
EndChar

StartChar: ml_7
Encoding: 127 3437 128
Width: 1308
GlyphClass: 2
Flags: W
LayerCount: 2
Fore
SplineSet
261 442 m 1,0,1
 323 564 323 564 462.5 564 c 128,-1,2
 602 564 602 564 680 477.5 c 128,-1,3
 758 391 758 391 758 296 c 128,-1,4
 758 201 758 201 737.5 148.5 c 128,-1,5
 717 96 717 96 680 58 c 0,6,7
 600 -21 600 -21 490 -21 c 0,8,9
 300 -21 300 -21 215 95 c 128,-1,10
 130 211 130 211 130 365 c 0,11,12
 130 644 130 644 297 805.5 c 128,-1,13
 464 967 464 967 726.5 967 c 128,-1,14
 989 967 989 967 1150 786 c 128,-1,15
 1311 605 1311 605 1311 337 c 128,-1,16
 1311 69 1311 69 1166 -123.5 c 128,-1,17
 1021 -316 1021 -316 771 -316 c 2,18,-1
 578 -316 l 1,19,-1
 578 -196 l 1,20,-1
 743 -196 l 2,21,22
 988 -196 988 -196 1096 73 c 0,23,24
 1142 186 1142 186 1142 300 c 0,25,26
 1142 521 1142 521 1016.5 650 c 128,-1,27
 891 779 891 779 676 779 c 0,28,29
 430 779 430 779 312 582 c 0,30,31
 275 520 275 520 261 442 c 1,0,1
272 290 m 0,32,33
 272 92 272 92 416 92 c 0,34,35
 522 92 522 92 553 199 c 0,36,37
 562 230 562 230 562 282 c 128,-1,38
 562 334 562 334 526 387 c 128,-1,39
 490 440 490 440 441 440 c 0,40,41
 360 440 360 440 316 397.5 c 128,-1,42
 272 355 272 355 272 290 c 0,32,33
EndSplineSet
Validated: 1
EndChar

StartChar: ml_8
Encoding: 128 3438 129
Width: 1351
GlyphClass: 2
Flags: W
LayerCount: 2
Fore
SplineSet
1174 104 m 1,0,1
 1179 147 1179 147 1179 210 c 2,2,-1
 1179 933 l 1,3,-1
 1350 933 l 1,4,-1
 1350 200 l 2,5,6
 1350 -208 1350 -208 1056 -288 c 0,7,8
 955 -316 955 -316 816 -316 c 2,9,-1
 624 -316 l 1,10,-1
 624 -196 l 1,11,12
 661 -196 661 -196 700 -197 c 0,13,14
 957 -204 957 -204 1040.5 -144 c 128,-1,15
 1124 -84 1124 -84 1153 1 c 1,16,-1
 632 1 l 1,17,-1
 631 73 l 1,18,19
 789 183 789 183 789 402.5 c 128,-1,20
 789 622 789 622 644 720 c 0,21,22
 594 753 594 753 524 753 c 0,23,24
 393 753 393 753 318 626 c 0,25,26
 257 520 257 520 257 377 c 0,27,28
 257 130 257 130 393 1 c 1,29,-1
 260 1 l 1,30,31
 132 165 132 165 132 396.5 c 128,-1,32
 132 628 132 628 246.5 796 c 128,-1,33
 361 964 361 964 567 964 c 128,-1,34
 773 964 773 964 891.5 822 c 128,-1,35
 1010 680 1010 680 1010 465 c 128,-1,36
 1010 250 1010 250 864 104 c 1,37,-1
 1174 104 l 1,0,1
EndSplineSet
Validated: 33
EndChar

StartChar: ml_9
Encoding: 129 3439 130
Width: 1581
GlyphClass: 2
Flags: W
LayerCount: 2
Fore
SplineSet
798 790 m 1,0,1
 878 886 878 886 979 915 c 1,2,-1
 979 1146 l 1,3,-1
 1122 1146 l 1,4,-1
 1122 928 l 1,5,6
 1335 918 1335 918 1454 776.5 c 128,-1,7
 1573 635 1573 635 1573 405.5 c 128,-1,8
 1573 176 1573 176 1438 52 c 0,9,10
 1359 -20 1359 -20 1266 -20 c 128,-1,11
 1173 -20 1173 -20 1121.5 14.5 c 128,-1,12
 1070 49 1070 49 1038 103 c 0,13,14
 979 205 979 205 979 346 c 2,15,-1
 979 745 l 1,16,17
 870 714 870 714 870 626 c 2,18,-1
 870 -1 l 1,19,-1
 694 -1 l 1,20,-1
 694 580 l 2,21,22
 694 699 694 699 572 742 c 0,23,24
 536 755 536 755 495 755 c 0,25,26
 418 755 418 755 366 695 c 0,27,28
 283 600 283 600 283 412 c 0,29,30
 283 146 283 146 425 0 c 1,31,-1
 274 0 l 1,32,33
 143 173 143 173 143 428 c 0,34,35
 143 757 143 757 362 883 c 0,36,37
 439 927 439 927 546 927 c 0,38,39
 712 927 712 927 798 790 c 1,0,1
1121 338 m 2,40,41
 1121 164 1121 164 1224.5 164 c 128,-1,42
 1328 164 1328 164 1354 338 c 0,43,44
 1361 381 1361 381 1361 424 c 0,45,46
 1361 535 1361 535 1299.5 633 c 128,-1,47
 1238 731 1238 731 1122 752 c 1,48,-1
 1121 338 l 2,40,41
EndSplineSet
Validated: 1
EndChar

StartChar: nhcil
Encoding: 130 3450 131
Width: 2261
GlyphClass: 3
Flags: W
LayerCount: 2
Fore
SplineSet
2064 824 m 1,0,1
 2209 716 2209 716 2249 542 c 0,2,3
 2262 486 2262 486 2262 432.5 c 128,-1,4
 2262 379 2262 379 2255.5 327 c 128,-1,5
 2249 275 2249 275 2234 225 c 0,6,7
 2202 115 2202 115 2133 47.5 c 128,-1,8
 2064 -20 2064 -20 1969.5 -20 c 128,-1,9
 1875 -20 1875 -20 1822 14 c 0,10,11
 1676 110 1676 110 1676 358 c 0,12,13
 1676 522 1676 522 1772 671 c 0,14,15
 1803 718 1803 718 1840 754 c 1,16,17
 1780 781 1780 781 1728 781 c 0,18,19
 1644 781 1644 781 1602 742.5 c 128,-1,20
 1560 704 1560 704 1560 638 c 2,21,-1
 1560 0 l 1,22,-1
 1355 0 l 1,23,-1
 1355 628 l 2,24,25
 1355 696 1355 696 1302.5 738 c 128,-1,26
 1250 780 1250 780 1187 780 c 128,-1,27
 1124 780 1124 780 1087.5 742 c 128,-1,28
 1051 704 1051 704 1051 648 c 2,29,-1
 1051 0 l 1,30,-1
 851 0 l 1,31,-1
 851 508 l 2,32,33
 851 698 851 698 708 736 c 0,34,35
 660 748 660 748 598 748 c 0,36,37
 478 748 478 748 387.5 678 c 128,-1,38
 297 608 297 608 262 494 c 1,39,40
 340 572 340 572 458.5 572 c 128,-1,41
 577 572 577 572 653 484.5 c 128,-1,42
 729 397 729 397 729 273 c 128,-1,43
 729 149 729 149 652.5 63 c 128,-1,44
 576 -23 576 -23 453 -23 c 0,45,46
 303 -23 303 -23 223 99.5 c 128,-1,47
 143 222 143 222 143 358 c 0,48,49
 143 611 143 611 290 766.5 c 128,-1,50
 437 922 437 922 655 922 c 128,-1,51
 873 922 873 922 980 804 c 1,52,53
 1033 890 1033 890 1150 914 c 0,54,55
 1185 921 1185 921 1220 921 c 0,56,57
 1406 921 1406 921 1489 802 c 1,58,59
 1550 888 1550 888 1685 914 c 0,60,61
 1724 922 1724 922 1759 922 c 0,62,63
 1863 922 1863 922 1959 881 c 1,64,65
 1995 912 1995 912 1995 950 c 0,66,67
 1995 1014 1995 1014 1940 1046 c 128,-1,68
 1885 1078 1885 1078 1823 1078 c 128,-1,69
 1761 1078 1761 1078 1716.5 1044.5 c 128,-1,70
 1672 1011 1672 1011 1652 955 c 1,71,-1
 1583 987 l 1,72,73
 1593 1096 1593 1096 1672.5 1169.5 c 128,-1,74
 1752 1243 1752 1243 1860.5 1243 c 128,-1,75
 1969 1243 1969 1243 2053.5 1176 c 128,-1,76
 2138 1109 2138 1109 2138 1003.5 c 128,-1,77
 2138 898 2138 898 2064 824 c 1,0,1
2038 312 m 0,78,79
 2042 349 2042 349 2042 405.5 c 128,-1,80
 2042 462 2042 462 2016.5 543.5 c 128,-1,81
 1991 625 1991 625 1934 687 c 1,82,83
 1846 607 1846 607 1814 446 c 0,84,85
 1805 400 1805 400 1805 366 c 0,86,87
 1805 293 1805 293 1835 227.5 c 128,-1,88
 1865 162 1865 162 1926 162 c 0,89,90
 2022 162 2022 162 2038 312 c 0,78,79
303 175.5 m 128,-1,92
 344 126 344 126 406.5 126 c 128,-1,93
 469 126 469 126 505 174 c 128,-1,94
 541 222 541 222 541 286 c 128,-1,95
 541 350 541 350 503.5 400.5 c 128,-1,96
 466 451 466 451 402.5 451 c 128,-1,97
 339 451 339 451 300.5 404 c 128,-1,98
 262 357 262 357 262 291 c 128,-1,91
 262 225 262 225 303 175.5 c 128,-1,92
EndSplineSet
Validated: 1
Ligature2: "'haln' Halant Forms in Malay+AQEA-lam lookup 23 subtable" nh xx ZWJ
Ligature2: "'half' Half Forms in Malay+AQEA-lam lookup 14 subtable" nh xx ZWJ
Ligature2: "'akhn' Akhand lookup 1 subtable" nh xx ZWJ
EndChar

StartChar: n1cil
Encoding: 131 3451 132
Width: 1634
GlyphClass: 3
Flags: W
LayerCount: 2
Fore
SplineSet
1437 823 m 1,0,1
 1531 752 1531 752 1581.5 648.5 c 128,-1,2
 1632 545 1632 545 1632 450 c 0,3,4
 1632 253 1632 253 1566 131 c 0,5,6
 1485 -20 1485 -20 1334 -20 c 128,-1,7
 1183 -20 1183 -20 1108 104 c 0,8,9
 1048 206 1048 206 1048 365.5 c 128,-1,10
 1048 525 1048 525 1147 676 c 0,11,12
 1178 724 1178 724 1216 760 c 1,13,14
 1164 781 1164 781 1091.5 781 c 128,-1,15
 1019 781 1019 781 975.5 732 c 128,-1,16
 932 683 932 683 932 602 c 2,17,-1
 932 -7 l 1,18,-1
 731 -7 l 1,19,-1
 731 523 l 2,20,21
 731 625 731 625 679.5 668 c 128,-1,22
 628 711 628 711 549 711 c 0,23,24
 418 711 418 711 343.5 611 c 128,-1,25
 269 511 269 511 269 394 c 0,26,27
 269 219 269 219 372 108 c 0,28,29
 408 70 408 70 458 42 c 1,30,-1
 403 -20 l 1,31,32
 271 52 271 52 204 170 c 128,-1,33
 137 288 137 288 137 437 c 0,34,35
 137 629 137 629 251.5 775.5 c 128,-1,36
 366 922 366 922 566 922 c 128,-1,37
 766 922 766 922 850 806 c 1,38,39
 915 923 915 923 1130 923 c 0,40,41
 1236 923 1236 923 1332 881 c 1,42,43
 1365 911 1365 911 1365 950 c 0,44,45
 1365 1014 1365 1014 1312.5 1046 c 128,-1,46
 1260 1078 1260 1078 1198.5 1078 c 128,-1,47
 1137 1078 1137 1078 1092 1044 c 128,-1,48
 1047 1010 1047 1010 1027 955 c 1,49,-1
 958 987 l 1,50,51
 968 1096 968 1096 1047.5 1169.5 c 128,-1,52
 1127 1243 1127 1243 1235 1243 c 128,-1,53
 1343 1243 1343 1243 1427.5 1176 c 128,-1,54
 1512 1109 1512 1109 1512 1002.5 c 128,-1,55
 1512 896 1512 896 1437 823 c 1,0,1
1311 693 m 1,56,57
 1216 613 1216 613 1185 448 c 0,58,59
 1176 400 1176 400 1176 366 c 0,60,61
 1176 292 1176 292 1206.5 227 c 128,-1,62
 1237 162 1237 162 1297 162 c 0,63,64
 1413 162 1413 162 1413 371 c 128,-1,65
 1413 580 1413 580 1311 693 c 1,56,57
EndSplineSet
Validated: 1
Ligature2: "'haln' Halant Forms in Malay+AQEA-lam lookup 23 subtable" n1 xx ZWJ
Ligature2: "'half' Half Forms in Malay+AQEA-lam lookup 14 subtable" n1 xx ZWJ
Ligature2: "'akhn' Akhand lookup 1 subtable" n1 xx ZWJ
EndChar

StartChar: r3cil
Encoding: 132 3452 133
Width: 1070
GlyphClass: 3
Flags: W
LayerCount: 2
Fore
SplineSet
318 -25 m 1,0,1
 135 138 135 138 135 396 c 0,2,3
 135 628 135 628 253 774.5 c 128,-1,4
 371 921 371 921 584 921 c 0,5,6
 694 921 694 921 788 878 c 1,7,8
 816 906 816 906 816 942 c 0,9,10
 816 1004 816 1004 760.5 1038.5 c 128,-1,11
 705 1073 705 1073 644 1073 c 0,12,13
 525 1073 525 1073 474 961 c 1,14,-1
 407 997 l 1,15,16
 423 1099 423 1099 502 1167.5 c 128,-1,17
 581 1236 581 1236 686.5 1236 c 128,-1,18
 792 1236 792 1236 879 1167.5 c 128,-1,19
 966 1099 966 1099 966 995 c 128,-1,20
 966 891 966 891 892 817 c 1,21,22
 1068 674 1068 674 1068 433 c 0,23,24
 1068 264 1068 264 993 132 c 0,25,26
 905 -22 905 -22 743 -22 c 0,27,28
 612 -22 612 -22 542.5 87.5 c 128,-1,29
 473 197 473 197 473 346.5 c 128,-1,30
 473 496 473 496 576 650 c 0,31,32
 607 698 607 698 645 734 c 1,33,34
 608 748 608 748 546 748 c 128,-1,35
 484 748 484 748 429 710.5 c 128,-1,36
 374 673 374 673 338 616 c 0,37,38
 264 500 264 500 264 356 c 0,39,40
 264 154 264 154 397 21 c 1,41,-1
 318 -25 l 1,0,1
742 672 m 1,42,43
 648 593 648 593 614 446 c 0,44,45
 604 402 604 402 604 369 c 0,46,47
 604 293 604 293 631.5 228.5 c 128,-1,48
 659 164 659 164 723 164 c 128,-1,49
 787 164 787 164 821 258 c 0,50,51
 845 324 845 324 845 402 c 0,52,53
 845 571 845 571 742 672 c 1,42,43
EndSplineSet
Validated: 1
Ligature2: "'haln' Halant Forms in Malay+AQEA-lam lookup 23 subtable" r3 xx ZWJ
Ligature2: "'half' Half Forms in Malay+AQEA-lam lookup 14 subtable" r3 xx ZWJ
Ligature2: "'akhn' Akhand lookup 1 subtable" r3 xx ZWJ
EndChar

StartChar: l3cil
Encoding: 133 3453 134
Width: 1702
GlyphClass: 3
Flags: W
LayerCount: 2
Fore
SplineSet
1270 1078 m 0,0,1
 1129 1078 1129 1078 1083 955 c 1,2,-1
 1014 987 l 1,3,4
 1024 1094 1024 1094 1104.5 1168.5 c 128,-1,5
 1185 1243 1185 1243 1292.5 1243 c 128,-1,6
 1400 1243 1400 1243 1484 1175 c 128,-1,7
 1568 1107 1568 1107 1568 1000 c 128,-1,8
 1568 893 1568 893 1491 816 c 1,9,10
 1595 739 1595 739 1651 628.5 c 128,-1,11
 1707 518 1707 518 1707 378.5 c 128,-1,12
 1707 239 1707 239 1637 120 c 0,13,14
 1554 -20 1554 -20 1413 -20 c 128,-1,15
 1272 -20 1272 -20 1198 110 c 0,16,17
 1136 218 1136 218 1136 378.5 c 128,-1,18
 1136 539 1136 539 1218 676 c 0,19,20
 1245 723 1245 723 1283 756 c 1,21,22
 1194 797 1194 797 1104.5 797 c 128,-1,23
 1015 797 1015 797 959 784 c 1,24,25
 1091 640 1091 640 1091 428 c 0,26,27
 1091 259 1091 259 1018 132 c 0,28,29
 930 -20 930 -20 772 -20 c 0,30,31
 593 -20 593 -20 523 202 c 0,32,33
 496 287 496 287 496 382.5 c 128,-1,34
 496 478 496 478 535 572.5 c 128,-1,35
 574 667 574 667 649 735 c 1,36,37
 610 747 610 747 554.5 747 c 128,-1,38
 499 747 499 747 445 712 c 128,-1,39
 391 677 391 677 354 622 c 0,40,41
 278 511 278 511 278 374 c 0,42,43
 278 163 278 163 394 36 c 1,44,-1
 311 -22 l 1,45,46
 178 109 178 109 154 306 c 0,47,48
 146 368 146 368 146 452.5 c 128,-1,49
 146 537 146 537 178.5 626.5 c 128,-1,50
 211 716 211 716 272 782 c 0,51,52
 401 922 401 922 610 922 c 0,53,54
 731 922 731 922 837 868 c 1,55,56
 971 933 971 933 1115 933 c 128,-1,57
 1259 933 1259 933 1387 875 c 1,58,59
 1423 905 1423 905 1423 946 c 0,60,61
 1423 1014 1423 1014 1370 1046 c 128,-1,62
 1317 1078 1317 1078 1270 1078 c 0,0,1
1490 376 m 0,63,64
 1492 401 1492 401 1492 449.5 c 128,-1,65
 1492 498 1492 498 1464.5 569 c 128,-1,66
 1437 640 1437 640 1378 694 c 1,67,68
 1295 617 1295 617 1272 455 c 0,69,70
 1265 410 1265 410 1265 378 c 0,71,72
 1265 297 1265 297 1285 242 c 0,73,74
 1314 165 1314 165 1373 165 c 0,75,76
 1469 165 1469 165 1490 376 c 0,63,64
857.5 331.5 m 128,-1,78
 861 369 861 369 861 422 c 128,-1,79
 861 475 861 475 837 550 c 128,-1,80
 813 625 813 625 755 679 c 1,81,82
 625 584 625 584 625 400 c 0,83,84
 625 259 625 259 683 204 c 0,85,86
 707 182 707 182 745.5 182 c 128,-1,87
 784 182 784 182 807 205 c 128,-1,88
 830 228 830 228 842 261 c 128,-1,77
 854 294 854 294 857.5 331.5 c 128,-1,78
EndSplineSet
Validated: 1
Ligature2: "'haln' Halant Forms in Malay+AQEA-lam lookup 23 subtable" l3 xx ZWJ
Ligature2: "'half' Half Forms in Malay+AQEA-lam lookup 14 subtable" l3 xx ZWJ
Ligature2: "'akhn' Akhand lookup 1 subtable" l3 xx ZWJ
EndChar

StartChar: lhcil
Encoding: 134 3454 135
Width: 1530
GlyphClass: 3
Flags: W
LayerCount: 2
Fore
SplineSet
1348 816 m 1,0,1
 1527 664 1527 664 1527 398 c 0,2,3
 1527 208 1527 208 1435 92.5 c 128,-1,4
 1343 -23 1343 -23 1210 -23 c 128,-1,5
 1077 -23 1077 -23 1004 102 c 0,6,7
 943 205 943 205 943 362 c 128,-1,8
 943 519 943 519 1042 672 c 0,9,10
 1073 720 1073 720 1112 756 c 1,11,12
 1081 767 1081 767 1038 767 c 128,-1,13
 995 767 995 767 958 740 c 128,-1,14
 921 713 921 713 888 654 c 128,-1,15
 855 595 855 595 855 487 c 2,16,-1
 857 315 l 2,17,18
 857 171 857 171 767 75.5 c 128,-1,19
 677 -20 677 -20 531 -20 c 0,20,21
 347 -20 347 -20 244 121 c 128,-1,22
 141 262 141 262 141 452 c 0,23,24
 141 680 141 680 288 834 c 0,25,26
 337 884 337 884 402 921 c 1,27,-1
 455 830 l 1,28,29
 271 718 271 718 271 501 c 128,-1,30
 271 284 271 284 391 189 c 0,31,32
 434 155 434 155 482 155 c 0,33,34
 561 155 561 155 597 196 c 0,35,36
 651 258 651 258 651 420 c 2,37,-1
 649 529 l 2,38,39
 649 697 649 697 755.5 811 c 128,-1,40
 862 925 862 925 1028 925 c 0,41,42
 1144 925 1144 925 1242 879 c 1,43,44
 1276 907 1276 907 1276 946 c 0,45,46
 1276 1013 1276 1013 1224 1046 c 128,-1,47
 1172 1079 1172 1079 1111.5 1079 c 128,-1,48
 1051 1079 1051 1079 1005.5 1046.5 c 128,-1,49
 960 1014 960 1014 939 959 c 1,50,-1
 870 993 l 1,51,52
 882 1101 882 1101 962.5 1172.5 c 128,-1,53
 1043 1244 1043 1244 1150 1244 c 128,-1,54
 1257 1244 1257 1244 1340.5 1174.5 c 128,-1,55
 1424 1105 1424 1105 1424 995.5 c 128,-1,56
 1424 886 1424 886 1348 816 c 1,0,1
1208 687 m 1,57,58
 1109 608 1109 608 1080 446 c 0,59,60
 1071 400 1071 400 1071 366 c 0,61,62
 1071 289 1071 289 1100.5 225.5 c 128,-1,63
 1130 162 1130 162 1191 162 c 128,-1,64
 1252 162 1252 162 1284 241 c 0,65,66
 1308 298 1308 298 1308 356 c 0,67,68
 1308 567 1308 567 1208 687 c 1,57,58
EndSplineSet
Validated: 1
Ligature2: "'haln' Halant Forms in Malay+AQEA-lam lookup 23 subtable" lh xx ZWJ
Ligature2: "'half' Half Forms in Malay+AQEA-lam lookup 14 subtable" lh xx ZWJ
Ligature2: "'akhn' Akhand lookup 1 subtable" lh xx ZWJ
EndChar

StartChar: k1cil
Encoding: 135 3455 136
Width: 1777
GlyphClass: 3
Flags: W
LayerCount: 2
Fore
SplineSet
621 104 m 1,0,1
 551 -19 551 -19 424 -19 c 128,-1,2
 297 -19 297 -19 219.5 73.5 c 128,-1,3
 142 166 142 166 142 291.5 c 128,-1,4
 142 417 142 417 234 487 c 128,-1,5
 326 557 326 557 457 557 c 2,6,-1
 556 557 l 1,7,8
 558 699 558 699 636.5 810 c 128,-1,9
 715 921 715 921 855.5 921 c 128,-1,10
 996 921 996 921 1091 812 c 128,-1,11
 1186 703 1186 703 1188 557 c 1,12,-1
 1268 557 l 1,13,14
 1291 608 1291 608 1343 667 c 128,-1,15
 1395 726 1395 726 1426 763 c 0,16,17
 1518 870 1518 870 1518 956 c 0,18,19
 1518 1014 1518 1014 1466.5 1046 c 128,-1,20
 1415 1078 1415 1078 1354.5 1078 c 128,-1,21
 1294 1078 1294 1078 1249.5 1044 c 128,-1,22
 1205 1010 1205 1010 1185 955 c 1,23,-1
 1116 987 l 1,24,25
 1124 1095 1124 1095 1203.5 1169 c 128,-1,26
 1283 1243 1283 1243 1390 1243 c 0,27,28
 1584 1243 1584 1243 1656 1112 c 0,29,30
 1680 1067 1680 1067 1680 1001 c 0,31,32
 1680 896 1680 896 1570 766 c 0,33,34
 1547 740 1547 740 1488 675 c 128,-1,35
 1429 610 1429 610 1398 557 c 1,36,-1
 1498 557 l 2,37,38
 1615 557 1615 557 1696 483.5 c 128,-1,39
 1777 410 1777 410 1777 286.5 c 128,-1,40
 1777 163 1777 163 1699 72.5 c 128,-1,41
 1621 -18 1621 -18 1492.5 -18 c 128,-1,42
 1364 -18 1364 -18 1294 76 c 128,-1,43
 1224 170 1224 170 1224 306 c 0,44,45
 1224 384 1224 384 1243 466 c 1,46,-1
 1199 466 l 1,47,48
 1195 283 1195 283 1122 148 c 0,49,50
 1031 -19 1031 -19 866 -19 c 128,-1,51
 701 -19 701 -19 621 104 c 1,0,1
1413 466 m 2,52,-1
 1356 466 l 1,53,54
 1344 406 1344 406 1344 361 c 0,55,56
 1344 268 1344 268 1358 232 c 0,57,58
 1380 174 1380 174 1434.5 174 c 128,-1,59
 1489 174 1489 174 1524.5 215 c 128,-1,60
 1560 256 1560 256 1560 313.5 c 128,-1,61
 1560 371 1560 371 1520 418.5 c 128,-1,62
 1480 466 1480 466 1413 466 c 2,52,-1
971 557 m 1,63,64
 971 691 971 691 894 743 c 0,65,66
 866 762 866 762 824 762 c 0,67,68
 744 762 744 762 696.5 702 c 128,-1,69
 649 642 649 642 647 557 c 1,70,-1
 971 557 l 1,63,64
973 456 m 2,71,-1
 973 466 l 1,72,-1
 642 466 l 1,73,74
 641 458 641 458 641 450 c 2,75,-1
 641 418 l 2,76,77
 641 328 641 328 680 240 c 0,78,79
 730 126 730 126 821 126 c 0,80,81
 964 126 964 126 972 394 c 0,82,83
 973 429 973 429 973 456 c 2,71,-1
555 293 m 2,84,-1
 555 466 l 1,85,-1
 525 466 l 2,86,87
 457 466 457 466 412.5 418 c 128,-1,88
 368 370 368 370 368 291 c 128,-1,89
 368 212 368 212 414 171 c 0,90,91
 431 156 431 156 457 156 c 0,92,93
 505 156 505 156 530 199 c 128,-1,94
 555 242 555 242 555 293 c 2,84,-1
EndSplineSet
Validated: 1
Ligature2: "'haln' Halant Forms in Malay+AQEA-lam lookup 23 subtable" k1 xx ZWJ
Ligature2: "'half' Half Forms in Malay+AQEA-lam lookup 14 subtable" k1 xx ZWJ
Ligature2: "'akhn' Akhand lookup 1 subtable" k1 xx ZWJ
EndChar

StartChar: ZWNJ
Encoding: 136 8204 137
Width: 244
GlyphClass: 2
Flags: W
LayerCount: 2
Fore
SplineSet
243 44 m 1,0,-1
 83 44 l 1,1,-1
 83 1032 l 1,2,-1
 243 1032 l 1,3,-1
 243 44 l 1,0,-1
EndSplineSet
Validated: 1
EndChar

StartChar: ZWJ
Encoding: 137 8205 138
Width: 466
GlyphClass: 2
Flags: W
LayerCount: 2
Fore
SplineSet
509 833 m 1,0,-1
 401 833 l 1,1,-1
 345 918 l 1,2,-1
 347 44 l 1,3,-1
 185 44 l 1,4,-1
 185 910 l 1,5,-1
 135 833 l 1,6,-1
 29 833 l 1,7,-1
 215 1105 l 1,8,-1
 43 1354 l 1,9,-1
 153 1354 l 1,10,11
 234 1228 234 1228 266 1175 c 1,12,-1
 389 1354 l 1,13,-1
 497 1354 l 1,14,-1
 319 1109 l 1,15,-1
 509 833 l 1,0,-1
272 1031 m 1,16,-1
 268 1038 l 1,17,-1
 264 1031 l 1,18,-1
 272 1031 l 1,16,-1
343 925 m 1,19,-1
 343 1029 l 1,20,-1
 276 1029 l 1,21,-1
 343 925 l 1,19,-1
260 1029 m 1,22,-1
 187 1030 l 1,23,-1
 187 917 l 1,24,-1
 260 1029 l 1,22,-1
EndSplineSet
Validated: 1
EndChar

StartChar: endash
Encoding: 138 8211 139
Width: 956
GlyphClass: 2
Flags: W
LayerCount: 2
Fore
SplineSet
955 445 m 1,0,-1
 955 264 l 1,1,-1
 154 264 l 1,2,-1
 154 445 l 1,3,-1
 955 445 l 1,0,-1
EndSplineSet
Validated: 1
EndChar

StartChar: emdash
Encoding: 139 8212 140
Width: 1362
GlyphClass: 2
Flags: W
LayerCount: 2
Fore
SplineSet
1365 445 m 1,0,-1
 1365 264 l 1,1,-1
 154 264 l 1,2,-1
 154 445 l 1,3,-1
 1365 445 l 1,0,-1
EndSplineSet
Validated: 1
EndChar

StartChar: quoteleft
Encoding: 140 8216 141
Width: 449
GlyphClass: 2
Flags: W
LayerCount: 2
Fore
SplineSet
197 721.5 m 128,-1,1
 156 781 156 781 156 871.5 c 128,-1,2
 156 962 156 962 216 1069.5 c 128,-1,3
 276 1177 276 1177 359 1230 c 1,4,-1
 453 1142 l 1,5,6
 334 1040 334 1040 334 976 c 1,7,8
 398 976 398 976 437 928.5 c 128,-1,9
 476 881 476 881 476 815 c 128,-1,10
 476 749 476 749 430.5 705.5 c 128,-1,11
 385 662 385 662 311.5 662 c 128,-1,0
 238 662 238 662 197 721.5 c 128,-1,1
EndSplineSet
Validated: 1
EndChar

StartChar: quoteright
Encoding: 141 8217 142
Width: 449
GlyphClass: 2
Flags: W
LayerCount: 2
Fore
SplineSet
405 1170.5 m 128,-1,1
 446 1111 446 1111 446 1020.5 c 128,-1,2
 446 930 446 930 386 822.5 c 128,-1,3
 326 715 326 715 243 662 c 1,4,-1
 149 750 l 1,5,6
 268 852 268 852 268 916 c 1,7,8
 204 916 204 916 165 963.5 c 128,-1,9
 126 1011 126 1011 126 1077 c 128,-1,10
 126 1143 126 1143 171.5 1186.5 c 128,-1,11
 217 1230 217 1230 290.5 1230 c 128,-1,0
 364 1230 364 1230 405 1170.5 c 128,-1,1
EndSplineSet
Validated: 1
EndChar

StartChar: quotesinglbase
Encoding: 142 8218 143
Width: 467
GlyphClass: 2
Flags: W
LayerCount: 2
Fore
SplineSet
424 486 m 128,-1,1
 464 433 464 433 464 339.5 c 128,-1,2
 464 246 464 246 407 138 c 128,-1,3
 350 30 350 30 263 -27 c 1,4,-1
 169 60 l 1,5,6
 210 95 210 95 249 142 c 128,-1,7
 288 189 288 189 288 224 c 1,8,9
 224 225 224 225 185 272.5 c 128,-1,10
 146 320 146 320 146 385.5 c 128,-1,11
 146 451 146 451 192 495 c 128,-1,12
 238 539 238 539 311 539 c 128,-1,0
 384 539 384 539 424 486 c 128,-1,1
EndSplineSet
Validated: 1
EndChar

StartChar: quotedblleft
Encoding: 143 8220 144
Width: 864
GlyphClass: 2
Flags: W
LayerCount: 2
Fore
SplineSet
617 721.5 m 128,-1,1
 576 781 576 781 576 871.5 c 128,-1,2
 576 962 576 962 636 1069.5 c 128,-1,3
 696 1177 696 1177 779 1230 c 1,4,-1
 873 1142 l 1,5,6
 754 1040 754 1040 754 976 c 1,7,8
 818 976 818 976 857 928.5 c 128,-1,9
 896 881 896 881 896 815 c 128,-1,10
 896 749 896 749 850.5 705.5 c 128,-1,11
 805 662 805 662 731.5 662 c 128,-1,0
 658 662 658 662 617 721.5 c 128,-1,1
196.5 721.5 m 128,-1,13
 156 781 156 781 156 871.5 c 128,-1,14
 156 962 156 962 216 1069.5 c 128,-1,15
 276 1177 276 1177 359 1230 c 1,16,-1
 453 1142 l 1,17,18
 334 1040 334 1040 334 976 c 1,19,20
 398 976 398 976 437 928.5 c 128,-1,21
 476 881 476 881 476 815 c 128,-1,22
 476 749 476 749 430.5 705.5 c 128,-1,23
 385 662 385 662 311 662 c 128,-1,12
 237 662 237 662 196.5 721.5 c 128,-1,13
EndSplineSet
Validated: 1
EndChar

StartChar: quotedblright
Encoding: 144 8221 145
Width: 864
GlyphClass: 2
Flags: W
LayerCount: 2
Fore
SplineSet
405 1170.5 m 128,-1,1
 446 1111 446 1111 446 1020.5 c 128,-1,2
 446 930 446 930 386 822.5 c 128,-1,3
 326 715 326 715 243 662 c 1,4,-1
 149 750 l 1,5,6
 268 852 268 852 268 916 c 1,7,8
 204 916 204 916 165 963.5 c 128,-1,9
 126 1011 126 1011 126 1077 c 128,-1,10
 126 1143 126 1143 171.5 1186.5 c 128,-1,11
 217 1230 217 1230 290.5 1230 c 128,-1,0
 364 1230 364 1230 405 1170.5 c 128,-1,1
825 1170.5 m 128,-1,13
 866 1111 866 1111 866 1020.5 c 128,-1,14
 866 930 866 930 806 822.5 c 128,-1,15
 746 715 746 715 663 662 c 1,16,-1
 569 750 l 1,17,18
 688 852 688 852 688 916 c 1,19,20
 624 916 624 916 585 963.5 c 128,-1,21
 546 1011 546 1011 546 1077 c 128,-1,22
 546 1143 546 1143 591.5 1186.5 c 128,-1,23
 637 1230 637 1230 710.5 1230 c 128,-1,12
 784 1230 784 1230 825 1170.5 c 128,-1,13
EndSplineSet
Validated: 1
EndChar

StartChar: quotedblbase
Encoding: 145 8222 146
Width: 734
GlyphClass: 2
Flags: W
LayerCount: 2
Fore
SplineSet
334.5 428.5 m 128,-1,1
 370 376 370 376 370 295.5 c 128,-1,2
 370 215 370 215 319 117.5 c 128,-1,3
 268 20 268 20 193 -26 c 1,4,-1
 139 20 l 1,5,6
 181 55 181 55 214 101.5 c 128,-1,7
 247 148 247 148 247 184.5 c 128,-1,8
 247 221 247 221 218 221 c 0,9,10
 165 221 165 221 132.5 260.5 c 128,-1,11
 100 300 100 300 100 355.5 c 128,-1,12
 100 411 100 411 137.5 446 c 128,-1,13
 175 481 175 481 237 481 c 128,-1,0
 299 481 299 481 334.5 428.5 c 128,-1,1
704 428.5 m 128,-1,15
 739 376 739 376 739 295.5 c 128,-1,16
 739 215 739 215 688 117.5 c 128,-1,17
 637 20 637 20 563 -26 c 1,18,-1
 507 20 l 1,19,20
 549 54 549 54 582 100.5 c 128,-1,21
 615 147 615 147 615 184 c 128,-1,22
 615 221 615 221 588 221 c 0,23,24
 535 221 535 221 502 260.5 c 128,-1,25
 469 300 469 300 469 355.5 c 128,-1,26
 469 411 469 411 506.5 446 c 128,-1,27
 544 481 544 481 606.5 481 c 128,-1,14
 669 481 669 481 704 428.5 c 128,-1,15
EndSplineSet
Validated: 1
EndChar

StartChar: bullet
Encoding: 146 8226 147
Width: 504
GlyphClass: 2
Flags: W
LayerCount: 2
Fore
SplineSet
514 589 m 128,-1,1
 514 506 514 506 451.5 445 c 128,-1,2
 389 384 389 384 305 384 c 128,-1,3
 221 384 221 384 158.5 445 c 128,-1,4
 96 506 96 506 96 589 c 128,-1,5
 96 672 96 672 158.5 731.5 c 128,-1,6
 221 791 221 791 305 791 c 128,-1,7
 389 791 389 791 451.5 731.5 c 128,-1,0
 514 672 514 672 514 589 c 128,-1,1
EndSplineSet
Validated: 1
EndChar

StartChar: ellipsis
Encoding: 147 8230 148
Width: 1359
GlyphClass: 2
Flags: W
LayerCount: 2
Fore
SplineSet
1307 292.5 m 128,-1,1
 1354 246 1354 246 1354 182.5 c 128,-1,2
 1354 119 1354 119 1309 70.5 c 128,-1,3
 1264 22 1264 22 1196.5 22 c 128,-1,4
 1129 22 1129 22 1082.5 69 c 128,-1,5
 1036 116 1036 116 1036 184 c 128,-1,6
 1036 252 1036 252 1083.5 295.5 c 128,-1,7
 1131 339 1131 339 1195.5 339 c 128,-1,0
 1260 339 1260 339 1307 292.5 c 128,-1,1
867 292.5 m 128,-1,9
 914 246 914 246 914 182.5 c 128,-1,10
 914 119 914 119 869 70.5 c 128,-1,11
 824 22 824 22 756.5 22 c 128,-1,12
 689 22 689 22 642.5 69 c 128,-1,13
 596 116 596 116 596 184 c 128,-1,14
 596 252 596 252 643.5 295.5 c 128,-1,15
 691 339 691 339 755.5 339 c 128,-1,8
 820 339 820 339 867 292.5 c 128,-1,9
417 292.5 m 128,-1,17
 464 246 464 246 464 182.5 c 128,-1,18
 464 119 464 119 419 70.5 c 128,-1,19
 374 22 374 22 306.5 22 c 128,-1,20
 239 22 239 22 192.5 69 c 128,-1,21
 146 116 146 116 146 184 c 128,-1,22
 146 252 146 252 193.5 295.5 c 128,-1,23
 241 339 241 339 305.5 339 c 128,-1,16
 370 339 370 339 417 292.5 c 128,-1,17
EndSplineSet
Validated: 1
EndChar

StartChar: guilsinglleft
Encoding: 148 8249 149
Width: 503
GlyphClass: 2
Flags: W
LayerCount: 2
Fore
SplineSet
510 155 m 1,0,-1
 510 -20 l 1,1,2
 354 235 354 235 144 454 c 1,3,4
 349 664 349 664 510 928 c 1,5,-1
 510 754 l 1,6,-1
 378 454 l 1,7,-1
 510 155 l 1,0,-1
EndSplineSet
Validated: 1
EndChar

StartChar: guilsinglright
Encoding: 149 8250 150
Width: 521
GlyphClass: 2
Flags: W
LayerCount: 2
Fore
SplineSet
520 454 m 1,0,1
 310 235 310 235 154 -20 c 1,2,-1
 154 155 l 1,3,-1
 286 454 l 1,4,-1
 154 754 l 1,5,-1
 154 928 l 1,6,7
 312 668 312 668 520 454 c 1,0,1
EndSplineSet
Validated: 1
EndChar

StartChar: uni2074
Encoding: 150 8308 151
Width: 663
GlyphClass: 2
Flags: W
LayerCount: 2
Fore
SplineSet
315 847 m 1,0,-1
 432 847 l 1,1,-1
 432 1006 l 1,2,-1
 315 847 l 1,0,-1
666 847 m 1,3,-1
 666 717 l 1,4,-1
 592 717 l 1,5,6
 596 641 596 641 598 602 c 1,7,-1
 432 602 l 1,8,-1
 432 717 l 1,9,-1
 147 717 l 1,10,-1
 147 824 l 1,11,12
 165 844 165 844 222 906 c 0,13,14
 323 1015 323 1015 378.5 1097 c 128,-1,15
 434 1179 434 1179 455 1207 c 1,16,-1
 598 1207 l 1,17,18
 587 999 587 999 588 920 c 2,19,-1
 588 847 l 1,20,-1
 666 847 l 1,3,-1
EndSplineSet
Validated: 33
EndChar

StartChar: Euro
Encoding: 151 8364 152
Width: 1247
GlyphClass: 2
Flags: W
LayerCount: 2
Fore
SplineSet
1155 298 m 1,0,-1
 1265 190 l 1,1,2
 1117 -26 1117 -26 851 -26 c 0,3,4
 663 -26 663 -26 535 78.5 c 128,-1,5
 407 183 407 183 352 355 c 1,6,-1
 158 355 l 1,7,-1
 158 501 l 1,8,-1
 321 501 l 1,9,10
 316 551 316 551 316 595 c 128,-1,11
 316 639 316 639 320 675 c 1,12,-1
 158 675 l 1,13,-1
 158 821 l 1,14,-1
 348 821 l 1,15,16
 422 1071 422 1071 618 1178 c 0,17,18
 723 1235 723 1235 852 1235 c 0,19,20
 1105 1235 1105 1235 1251 1014 c 1,21,-1
 1160 945 l 1,22,23
 1066 1081 1066 1081 912 1081 c 0,24,25
 798 1081 798 1081 719.5 1009 c 128,-1,26
 641 937 641 937 599 821 c 1,27,-1
 911 821 l 1,28,-1
 911 675 l 1,29,-1
 565 675 l 1,30,31
 559 628 559 628 559 588.5 c 128,-1,32
 559 549 559 549 564 501 c 1,33,-1
 911 501 l 1,34,-1
 911 355 l 1,35,-1
 599 355 l 1,36,37
 638 251 638 251 712.5 187 c 128,-1,38
 787 123 787 123 885 123 c 0,39,40
 1073 123 1073 123 1155 298 c 1,0,-1
EndSplineSet
Validated: 1
EndChar

StartChar: Rupee
Encoding: 152 8377 153
Width: 1053
GlyphClass: 2
Flags: W
LayerCount: 2
Fore
SplineSet
631 802 m 1,0,1
 615 795 615 795 527 795 c 2,2,-1
 501 795 l 2,3,4
 331 795 331 795 157 803 c 1,5,-1
 239 961 l 1,6,-1
 605 961 l 1,7,8
 555 1046 555 1046 412 1052 c 0,9,10
 374 1053 374 1053 339 1053 c 2,11,-1
 157 1053 l 1,12,-1
 239 1210 l 1,13,-1
 1051 1210 l 1,14,-1
 982 1053 l 1,15,-1
 779 1053 l 1,16,17
 801 1012 801 1012 814 961 c 1,18,-1
 1051 961 l 1,19,-1
 983 802 l 1,20,-1
 817 802 l 1,21,22
 782 601 782 601 588 520 c 0,23,24
 529 495 529 495 463 486 c 1,25,-1
 910 -156 l 1,26,-1
 664 -156 l 1,27,-1
 215 464 l 1,28,-1
 215 610 l 1,29,30
 244 610 244 610 274 609.5 c 128,-1,31
 304 609 304 609 342 610 c 0,32,33
 446 613 446 613 507 640 c 0,34,35
 592 678 592 678 623 769 c 0,36,37
 626 778 626 778 628.5 785 c 128,-1,38
 631 792 631 792 631 802 c 1,0,1
EndSplineSet
Validated: 33
EndChar

StartChar: uni25CC
Encoding: 153 9676 154
Width: 946
GlyphClass: 2
Flags: W
LayerCount: 2
Fore
SplineSet
839 606 m 1,0,1
 795 676 795 676 779 684 c 1,2,-1
 777 684 l 1,3,4
 753 702 753 702 726 717 c 1,5,-1
 789 803 l 1,6,7
 803 794 803 794 814 787 c 128,-1,8
 825 780 825 780 851 762 c 0,9,10
 892 733 892 733 930 669 c 1,11,-1
 839 606 l 1,0,1
874 369 m 1,12,13
 882 422 882 422 882 447 c 128,-1,14
 882 472 882 472 874 525 c 1,15,-1
 980 541 l 1,16,17
 992 494 992 494 992 447.5 c 128,-1,18
 992 401 992 401 980 353 c 1,19,-1
 874 369 l 1,12,13
439 864 m 1,20,21
 501 876 501 876 540 876 c 128,-1,22
 579 876 579 876 639 864 c 1,23,-1
 623 762 l 1,24,25
 570 770 570 770 543 770 c 128,-1,26
 516 770 516 770 457 762 c 1,27,-1
 439 864 l 1,20,21
931 227 m 1,28,29
 922 215 922 215 914 203 c 0,30,31
 884 158 884 158 860 136 c 1,32,-1
 858 136 l 1,33,34
 843 122 843 122 825 112 c 2,35,-1
 789 91 l 1,36,-1
 726 177 l 1,37,38
 792 217 792 217 808.5 240.5 c 128,-1,39
 825 264 825 264 839 288 c 1,40,-1
 931 227 l 1,28,29
356 717 m 1,41,42
 303 686 303 686 285 668 c 128,-1,43
 267 650 267 650 243 606 c 1,44,-1
 151 669 l 1,45,46
 192 729 192 729 211.5 746 c 128,-1,47
 231 763 231 763 293 802 c 1,48,-1
 356 717 l 1,41,42
457 134 m 1,49,50
 501 124 501 124 537 124 c 128,-1,51
 573 124 573 124 623 134 c 1,52,-1
 639 30 l 1,53,54
 541 6 541 6 439 30 c 1,55,-1
 457 134 l 1,49,50
100 353 m 1,56,57
 90 399 90 399 90 446 c 128,-1,58
 90 493 90 493 100 541 c 1,59,-1
 210 525 l 1,60,61
 200 496 200 496 200 446 c 128,-1,62
 200 396 200 396 210 369 c 1,63,-1
 100 353 l 1,56,57
293 91 m 1,64,65
 214 144 214 144 198 162 c 1,66,-1
 196 162 l 1,67,-1
 151 227 l 1,68,-1
 243 288 l 1,69,70
 277 237 277 237 291 224 c 128,-1,71
 305 211 305 211 356 177 c 1,72,-1
 293 91 l 1,64,65
EndSplineSet
Validated: 33
EndChar

StartChar: r4
Encoding: 155 -1 155
Width: 484
GlyphClass: 3
Flags: W
LayerCount: 2
Fore
SplineSet
366 902 m 1,0,1
 254 479 254 479 254 185 c 0,2,3
 254 68 254 68 302.5 4 c 128,-1,4
 351 -60 351 -60 464 -60 c 0,5,6
 532 -60 532 -60 638 -16 c 1,7,-1
 612 -232 l 1,8,9
 530 -265 530 -265 447 -265 c 0,10,11
 284 -265 284 -265 211 -138 c 0,12,13
 156 -42 156 -42 156 150 c 0,14,15
 156 524 156 524 264 902 c 1,16,-1
 366 902 l 1,0,1
EndSplineSet
Validated: 1
Ligature2: "consonants" avagraha ZWJ r3
Ligature2: "'pstf' Post Base Forms in Malay+AQEA-lam lookup 15 subtable" r3 xx
Ligature2: "'pref' Pre Base Forms in Malay+AQEA-lam2 lookup 0 subtable" xx r3
EndChar

StartChar: y2
Encoding: 156 -1 156
Width: 678
GlyphClass: 3
Flags: W
LayerCount: 2
Fore
SplineSet
226 -222 m 0,0,1
 166 -222 166 -222 166 -307 c 0,2,3
 166 -353 166 -353 205.5 -382 c 128,-1,4
 245 -411 245 -411 295 -411 c 0,5,6
 403 -411 403 -411 455 -372 c 128,-1,7
 507 -333 507 -333 507 -213 c 128,-1,8
 507 -93 507 -93 379.5 99.5 c 128,-1,9
 252 292 252 292 252 471 c 2,10,-1
 252 892 l 1,11,-1
 465 892 l 1,12,-1
 465 422 l 2,13,14
 465 273 465 273 586 90 c 0,15,16
 661 -23 661 -23 684.5 -93.5 c 128,-1,17
 708 -164 708 -164 708 -240.5 c 128,-1,18
 708 -317 708 -317 672 -376 c 0,19,20
 574 -534 574 -534 293 -534 c 0,21,22
 166 -534 166 -534 68 -485 c 0,23,24
 -51 -425 -51 -425 -51 -307 c 0,25,26
 -51 -231 -51 -231 -1.5 -176 c 128,-1,27
 48 -121 48 -121 123 -121 c 2,28,-1
 184 -121 l 2,29,30
 223 -121 223 -121 220 -50 c 0,31,32
 220 -34 220 -34 220 -23 c 1,33,-1
 330 -23 l 1,34,-1
 330 -76 l 2,35,36
 330 -164 330 -164 272 -208 c 0,37,38
 252 -222 252 -222 226 -222 c 0,0,1
EndSplineSet
Validated: 33
Ligature2: "consonants" avagraha ZWJ y1
Ligature2: "'pstf' Post Base Forms in Malay+AQEA-lam2 lookup 16 subtable" xx y1
Ligature2: "'pstf' Post Base Forms in Malay+AQEA-lam lookup 15 subtable" y1 xx
EndChar

StartChar: y2u1
Encoding: 157 -1 157
Width: 678
GlyphClass: 3
Flags: W
LayerCount: 2
Fore
SplineSet
703 -206.5 m 128,-1,1
 703 -276 703 -276 652 -333 c 1,2,3
 751 -369 751 -369 786 -474 c 0,4,5
 796 -507 796 -507 796 -548 c 0,6,7
 796 -636 796 -636 729.5 -701 c 128,-1,8
 663 -766 663 -766 570.5 -766 c 128,-1,9
 478 -766 478 -766 412.5 -700.5 c 128,-1,10
 347 -635 347 -635 347 -542 c 0,11,12
 347 -487 347 -487 370 -442 c 1,13,14
 332 -445 332 -445 291 -445 c 0,15,16
 174 -445 174 -445 81 -408 c 0,17,18
 -45 -358 -45 -358 -45 -256 c 0,19,20
 -45 -187 -45 -187 7 -143.5 c 128,-1,21
 59 -100 59 -100 128 -100 c 2,22,-1
 188 -100 l 2,23,24
 223 -100 223 -100 220 -43 c 0,25,26
 220 -29 220 -29 220 -19 c 1,27,-1
 333 -19 l 1,28,-1
 333 -66 l 2,29,30
 333 -111 333 -111 303.5 -150 c 128,-1,31
 274 -189 274 -189 229 -189 c 0,32,33
 173 -189 173 -189 173 -256 c 0,34,35
 173 -294 173 -294 213 -316.5 c 128,-1,36
 253 -339 253 -339 294 -339 c 0,37,38
 394 -339 394 -339 440 -314 c 0,39,40
 502 -281 502 -281 502 -191.5 c 128,-1,41
 502 -102 502 -102 437 -6 c 0,42,43
 409 36 409 36 377 78 c 0,44,45
 252 240 252 240 252 385 c 2,46,-1
 252 895 l 1,47,-1
 465 895 l 1,48,-1
 465 345 l 2,49,50
 465 222 465 222 584 72 c 0,51,52
 657 -20 657 -20 680 -78.5 c 128,-1,0
 703 -137 703 -137 703 -206.5 c 128,-1,1
544 -608 m 0,53,54
 611 -608 611 -608 638 -544 c 0,55,56
 646 -525 646 -525 646 -505 c 0,57,58
 646 -465 646 -465 619.5 -435 c 128,-1,59
 593 -405 593 -405 554 -401 c 1,60,61
 522 -415 522 -415 476 -426 c 1,62,63
 441 -457 441 -457 441 -491 c 128,-1,64
 441 -525 441 -525 449 -544 c 128,-1,65
 457 -563 457 -563 471 -578 c 0,66,67
 500 -608 500 -608 544 -608 c 0,53,54
EndSplineSet
Validated: 33
Ligature2: "'psts' Post Base Substitutions lookup 22 subtable" y2 u1
EndChar

StartChar: y2u2
Encoding: 158 -1 158
Width: 678
GlyphClass: 3
Flags: W
LayerCount: 2
Fore
SplineSet
703 -195.5 m 128,-1,1
 703 -254 703 -254 674 -304 c 1,2,3
 785 -348 785 -348 819 -460 c 0,4,5
 830 -495 830 -495 830 -539 c 0,6,7
 830 -634 830 -634 759 -706.5 c 128,-1,8
 688 -779 688 -779 587.5 -779 c 128,-1,9
 487 -779 487 -779 416 -706.5 c 128,-1,10
 345 -634 345 -634 345 -533 c 0,11,12
 345 -488 345 -488 362 -443 c 1,13,14
 328 -445 328 -445 296.5 -445 c 128,-1,15
 265 -445 265 -445 229 -441.5 c 128,-1,16
 193 -438 193 -438 155 -430 c 0,17,18
 69 -412 69 -412 12 -369 c 128,-1,19
 -45 -326 -45 -326 -45 -256.5 c 128,-1,20
 -45 -187 -45 -187 7 -143.5 c 128,-1,21
 59 -100 59 -100 128 -100 c 2,22,-1
 188 -100 l 2,23,24
 223 -100 223 -100 220 -43 c 0,25,26
 220 -29 220 -29 220 -19 c 1,27,-1
 333 -19 l 1,28,-1
 333 -66 l 2,29,30
 333 -111 333 -111 303.5 -150 c 128,-1,31
 274 -189 274 -189 229 -189 c 0,32,33
 173 -189 173 -189 173 -256 c 0,34,35
 173 -294 173 -294 213 -316.5 c 128,-1,36
 253 -339 253 -339 294 -339 c 0,37,38
 394 -339 394 -339 440 -314 c 0,39,40
 502 -281 502 -281 502 -191.5 c 128,-1,41
 502 -102 502 -102 437 -6 c 0,42,43
 409 36 409 36 377 78 c 0,44,45
 252 240 252 240 252 385 c 2,46,-1
 252 895 l 1,47,-1
 465 895 l 1,48,-1
 465 345 l 2,49,50
 465 222 465 222 584 72 c 0,51,52
 657 -20 657 -20 680 -78.5 c 128,-1,0
 703 -137 703 -137 703 -195.5 c 128,-1,1
610 -468 m 128,-1,54
 628 -452 628 -452 628 -423.5 c 128,-1,55
 628 -395 628 -395 599 -377 c 1,56,57
 571 -396 571 -396 510 -417 c 0,58,59
 509 -420 509 -420 509 -436 c 128,-1,60
 509 -452 509 -452 527 -468 c 128,-1,61
 545 -484 545 -484 568.5 -484 c 128,-1,53
 592 -484 592 -484 610 -468 c 128,-1,54
715 -509 m 128,-1,63
 715 -480 715 -480 703 -453 c 1,64,65
 705 -502 705 -502 668 -537 c 128,-1,66
 631 -572 631 -572 593 -572 c 0,67,68
 531 -572 531 -572 495 -537.5 c 128,-1,69
 459 -503 459 -503 459 -454 c 0,70,71
 459 -441 459 -441 461 -429 c 1,72,-1
 455 -431 l 1,73,74
 431 -466 431 -466 431 -502 c 128,-1,75
 431 -538 431 -538 442 -563.5 c 128,-1,76
 453 -589 453 -589 472 -608 c 128,-1,77
 491 -627 491 -627 517 -638 c 128,-1,78
 543 -649 543 -649 572 -649 c 128,-1,79
 601 -649 601 -649 627 -638 c 128,-1,80
 653 -627 653 -627 672.5 -608 c 128,-1,81
 692 -589 692 -589 703.5 -563.5 c 128,-1,62
 715 -538 715 -538 715 -509 c 128,-1,63
EndSplineSet
Validated: 33
Ligature2: "'psts' Post Base Substitutions lookup 22 subtable" y2 u2
EndChar

StartChar: v2
Encoding: 159 -1 159
Width: 464
GlyphClass: 3
Flags: W
LayerCount: 2
Fore
SplineSet
465 -160 m 1,0,-1
 -59 -160 l 1,1,-1
 -59 -50 l 1,2,-1
 257 -50 l 1,3,-1
 257 895 l 1,4,-1
 465 895 l 1,5,-1
 465 -160 l 1,0,-1
EndSplineSet
Validated: 1
Ligature2: "consonants" avagraha ZWJ v1
Ligature2: "'pstf' Post Base Forms in Malay+AQEA-lam2 lookup 16 subtable" xx v1
Ligature2: "'pstf' Post Base Forms in Malay+AQEA-lam lookup 15 subtable" v1 xx
EndChar

StartChar: k1u1
Encoding: 160 -1 160
Width: 1588
GlyphClass: 3
Flags: W
LayerCount: 2
Fore
SplineSet
1496 284 m 1,0,1
 1586 250 1586 250 1586 151 c 0,2,3
 1586 64 1586 64 1513 22 c 128,-1,4
 1440 -20 1440 -20 1344.5 -20 c 128,-1,5
 1249 -20 1249 -20 1191 9 c 1,6,-1
 1191 117 l 1,7,8
 1239 87 1239 87 1287 87 c 128,-1,9
 1335 87 1335 87 1356.5 109 c 128,-1,10
 1378 131 1378 131 1378 158 c 0,11,12
 1378 205 1378 205 1354 218 c 128,-1,13
 1330 231 1330 231 1280 231 c 1,14,-1
 1280 338 l 1,15,16
 1357 338 1357 338 1376 376 c 0,17,18
 1383 391 1383 391 1383 417 c 0,19,20
 1383 469 1383 469 1260 469 c 2,21,-1
 1214 468 l 1,22,23
 1210 284 1210 284 1135 147 c 0,24,25
 1079 46 1079 46 982 3 c 0,26,27
 933 -19 933 -19 871 -19 c 0,28,29
 711 -19 711 -19 628 104 c 1,30,31
 555 -19 555 -19 427.5 -19 c 128,-1,32
 300 -19 300 -19 221 77.5 c 128,-1,33
 142 174 142 174 142 300 c 0,34,35
 142 475 142 475 278 530 c 0,36,37
 353 561 353 561 432.5 563.5 c 128,-1,38
 512 566 512 566 562 566 c 1,39,40
 564 709 564 709 644 813 c 128,-1,41
 724 917 724 917 866 917 c 128,-1,42
 1008 917 1008 917 1104.5 816.5 c 128,-1,43
 1201 716 1201 716 1203 570 c 1,44,-1
 1318 572 l 2,45,46
 1431 572 1431 572 1481.5 552 c 128,-1,47
 1532 532 1532 532 1559 501.5 c 128,-1,48
 1586 471 1586 471 1586 417 c 0,49,50
 1586 315 1586 315 1496 284 c 1,0,1
984 567 m 1,51,52
 984 709 984 709 906 768 c 0,53,54
 878 789 878 789 834 789 c 0,55,56
 752 789 752 789 704 720 c 128,-1,57
 656 651 656 651 654 566 c 1,58,-1
 984 567 l 1,51,52
831 126 m 0,59,60
 985 126 985 126 985 420 c 2,61,-1
 985 466 l 1,62,-1
 650 465 l 1,63,64
 648 453 648 453 648 428 c 0,65,66
 648 334 648 334 688 244 c 0,67,68
 739 126 739 126 831 126 c 0,59,60
561 292 m 2,69,-1
 561 465 l 1,70,-1
 520 465 l 2,71,72
 458 465 458 465 409 418 c 128,-1,73
 360 371 360 371 360 295.5 c 128,-1,74
 360 220 360 220 417 172 c 0,75,76
 436 156 436 156 462 156 c 0,77,78
 510 156 510 156 535.5 198 c 128,-1,79
 561 240 561 240 561 292 c 2,69,-1
EndSplineSet
Validated: 1
Ligature2: "'psts' Post Base Substitutions lookup 22 subtable" k1 u1
EndChar

